M48
; DRILL file {KiCad 8.0.4} date 2024-08-02T14:16:04-0700
; FORMAT={-:-/ absolute / inch / decimal}
; #@! TF.CreationDate,2024-08-02T14:16:04-07:00
; #@! TF.GenerationSoftware,Kicad,Pcbnew,8.0.4
; #@! TF.FileFunction,Plated,1,4,PTH
FMAT,2
INCH
; #@! TA.AperFunction,Plated,PTH,ViaDrill
T1C0.0157
; #@! TA.AperFunction,Plated,PTH,ComponentDrill
T2C0.0276
; #@! TA.AperFunction,Plated,PTH,ComponentDrill
T3C0.0315
; #@! TA.AperFunction,Plated,PTH,ComponentDrill
T4C0.0354
; #@! TA.AperFunction,Plated,PTH,ComponentDrill
T5C0.0394
; #@! TA.AperFunction,Plated,PTH,ComponentDrill
T6C0.0472
; #@! TA.AperFunction,Plated,PTH,ComponentDrill
T7C0.0512
; #@! TA.AperFunction,Plated,PTH,ViaDrill
T8C0.1339
%
G90
G05
T1
X2.8705Y-1.639
X2.9252Y-1.6701
X2.9791Y-1.7299
X3.0303Y-1.7004
X3.2807Y-1.5496
X3.3354Y-1.5799
X3.3925Y-1.6102
X3.4551Y-1.761
X3.6681Y-1.6402
X3.7154Y-1.6697
X3.7594Y-1.7307
X3.8165Y-1.7008
X4.0669Y-1.5508
X4.1205Y-1.5807
X4.174Y-1.611
X4.2311Y-1.7602
X4.9299Y-1.6406
X4.9882Y-1.6713
X5.0378Y-1.7299
X5.0839Y-1.7
X5.3327Y-1.55
X5.3831Y-1.5803
X5.4413Y-1.6098
X5.5012Y-1.7606
X5.7335Y-1.6413
X5.7929Y-1.6713
X5.8366Y-1.7311
X5.8917Y-1.7008
X6.1425Y-1.55
X6.1913Y-1.5811
X6.2382Y-1.6106
X6.2835Y-1.7594
T2
X3.1419Y-2.7277
X3.1919Y-2.7777
X3.2419Y-2.7277
X3.9264Y-2.7307
X3.9764Y-2.7807
X4.0264Y-2.7307
X5.1898Y-2.7299
X5.2398Y-2.7799
X5.2898Y-2.7299
X6.0002Y-2.7309
X6.0502Y-2.7809
X6.1002Y-2.7309
T3
X1.9992Y-1.6563
X1.9992Y-1.8157
X1.9992Y-1.9752
X1.9992Y-2.1346
X1.9992Y-2.2941
X1.9992Y-2.4535
X1.9992Y-2.613
X1.9992Y-2.7724
X2.3417Y-3.0193
X2.3992Y-1.6563
X2.3992Y-1.8157
X2.3992Y-1.9752
X2.3992Y-2.1346
X2.3992Y-2.2941
X2.3992Y-2.4535
X2.3992Y-2.613
X2.3992Y-2.7724
X2.7417Y-3.0193
X3.0795Y-2.0213
X3.0795Y-2.1213
X3.0795Y-2.2213
X3.0795Y-2.3213
X3.0795Y-2.4213
X3.2795Y-2.0213
X3.2795Y-2.1213
X3.2795Y-2.2213
X3.2795Y-2.3213
X3.2795Y-2.4213
X3.3736Y-2.778
X3.6075Y-3.0185
X3.7736Y-2.778
X3.8665Y-2.0217
X3.8665Y-2.1217
X3.8665Y-2.2217
X3.8665Y-2.3217
X3.8665Y-2.4217
X4.0075Y-3.0185
X4.0665Y-2.0217
X4.0665Y-2.1217
X4.0665Y-2.2217
X4.0665Y-2.3217
X4.0665Y-2.4217
X4.1693Y-2.7811
X4.5693Y-2.7811
X5.1327Y-2.0213
X5.1327Y-2.1213
X5.1327Y-2.2213
X5.1327Y-2.3213
X5.1327Y-2.4213
X5.3327Y-2.0213
X5.3327Y-2.1213
X5.3327Y-2.2213
X5.3327Y-2.3213
X5.3327Y-2.4213
X5.3988Y-3.1953
X5.439Y-2.7807
X5.7988Y-3.1953
X5.839Y-2.7807
X5.885Y-3.1957
X5.943Y-2.0237
X5.943Y-2.1237
X5.943Y-2.2237
X5.943Y-2.3237
X5.943Y-2.4237
X6.143Y-2.0237
X6.143Y-2.1237
X6.143Y-2.2237
X6.143Y-2.3237
X6.143Y-2.4237
X6.24Y-2.78
X6.285Y-3.1957
X6.5539Y-2.0354
X6.5539Y-2.4354
X6.64Y-2.78
X6.8528Y-2.0362
X6.8528Y-2.4362
T4
X2.6417Y-3.2102
X2.7417Y-3.2102
X3.9091Y-3.2087
X4.0091Y-3.2087
X5.1677Y-3.2063
X5.2677Y-3.2063
X6.4189Y-3.2094
X6.5189Y-3.2094
T5
X3.53Y-1.17
X3.63Y-1.17
X3.73Y-1.17
X3.83Y-1.17
X3.93Y-1.17
X4.03Y-1.17
X4.13Y-1.17
X4.23Y-1.17
X4.33Y-1.17
X4.43Y-1.17
X4.53Y-1.17
X4.63Y-1.17
X4.73Y-1.17
X4.83Y-1.17
X4.93Y-1.17
X5.03Y-1.17
X5.13Y-1.17
X5.23Y-1.17
X5.33Y-1.17
X5.43Y-1.17
X5.53Y-1.17
X5.63Y-1.17
X5.73Y-1.17
X6.5555Y-1.7193
X6.8547Y-1.7193
T6
X2.1394Y-5.5587
X2.1394Y-5.7555
X2.1409Y-4.7744
X2.1409Y-4.9713
X2.6315Y-5.5587
X2.6315Y-5.7555
X2.6331Y-4.7744
X2.6331Y-4.9713
X2.7728Y-5.5591
X2.7728Y-5.7559
X2.7732Y-4.7732
X2.7732Y-4.9701
X3.265Y-5.5591
X3.265Y-5.7559
X3.2654Y-4.7732
X3.2654Y-4.9701
X3.4043Y-5.5594
X3.4043Y-5.7563
X3.4047Y-4.7732
X3.4047Y-4.9701
X3.8965Y-5.5594
X3.8965Y-5.7563
X3.8969Y-4.7732
X3.8969Y-4.9701
X4.0343Y-5.5579
X4.0343Y-5.7547
X4.0354Y-4.7724
X4.0354Y-4.9693
X4.5264Y-5.5579
X4.5264Y-5.7547
X4.5276Y-4.7724
X4.5276Y-4.9693
X4.6657Y-4.7724
X4.6657Y-4.9693
X4.6657Y-5.5583
X4.6657Y-5.7551
X4.9791Y-3.9795
X4.9791Y-4.1764
X5.1579Y-4.7724
X5.1579Y-4.9693
X5.1579Y-5.5583
X5.1579Y-5.7551
X5.2961Y-5.5583
X5.2961Y-5.7551
X5.2972Y-4.7717
X5.2972Y-4.9685
X5.4713Y-3.9795
X5.4713Y-4.1764
X5.7882Y-5.5583
X5.7882Y-5.7551
X5.7894Y-4.7717
X5.7894Y-4.9685
X5.926Y-5.5583
X5.926Y-5.7551
X5.9299Y-4.7697
X5.9299Y-4.9665
X6.2291Y-3.9787
X6.2291Y-4.1756
X6.4181Y-5.5583
X6.4181Y-5.7551
X6.422Y-4.7697
X6.422Y-4.9665
X6.5575Y-5.5587
X6.5575Y-5.7555
X6.5646Y-4.7661
X6.5646Y-4.963
X6.7213Y-3.9787
X6.7213Y-4.1756
X7.0496Y-5.5587
X7.0496Y-5.7555
X7.0567Y-4.7661
X7.0567Y-4.963
T7
X2.4594Y-3.9791
X2.4594Y-4.176
X2.9516Y-3.9791
X2.9516Y-4.176
T8
X1.8016Y-4.828
X1.8028Y-2.9382
X3.0827Y-6.3055
X3.0831Y-1.1469
X6.0732Y-6.3031
X6.074Y-1.1461
X7.3512Y-4.8303
X7.3531Y-2.9382
M30
