G04 EAGLE Gerber RS-274X export*
G75*
%MOMM*%
%FSLAX34Y34*%
%LPD*%
%INSoldermask Bottom*%
%IPPOS*%
%AMOC8*
5,1,8,0,0,1.08239X$1,22.5*%
G01*
%ADD10C,1.903200*%
%ADD11C,2.082800*%
%ADD12C,1.853200*%


D10*
X76200Y152400D03*
X76200Y76200D03*
D11*
X101600Y38100D03*
X127000Y38100D03*
X25400Y584200D03*
X25400Y558800D03*
X25400Y533400D03*
X25400Y508000D03*
X25400Y482600D03*
X25400Y457200D03*
X25400Y431800D03*
X25400Y406400D03*
X25400Y381000D03*
X25400Y355600D03*
X25400Y330200D03*
X25400Y304800D03*
X25400Y279400D03*
X25400Y254000D03*
X25400Y228600D03*
X25400Y203200D03*
X25400Y177800D03*
X25400Y152400D03*
X25400Y127000D03*
X25400Y101600D03*
X25400Y76200D03*
X25400Y50800D03*
X25400Y25400D03*
D12*
X317500Y88900D02*
X334000Y88900D01*
X334000Y114300D02*
X317500Y114300D01*
X317500Y139700D02*
X334000Y139700D01*
X334000Y165100D02*
X317500Y165100D01*
X317500Y190500D02*
X334000Y190500D01*
X334000Y215900D02*
X317500Y215900D01*
X317500Y241300D02*
X334000Y241300D01*
X334000Y266700D02*
X317500Y266700D01*
X317500Y292100D02*
X334000Y292100D01*
X334000Y317500D02*
X317500Y317500D01*
X317500Y342900D02*
X334000Y342900D01*
X334000Y368300D02*
X317500Y368300D01*
X317500Y393700D02*
X334000Y393700D01*
X334000Y419100D02*
X317500Y419100D01*
X317500Y444500D02*
X334000Y444500D01*
X334000Y469900D02*
X317500Y469900D01*
X317500Y495300D02*
X334000Y495300D01*
X334000Y520700D02*
X317500Y520700D01*
X317500Y546100D02*
X334000Y546100D01*
X334000Y571500D02*
X317500Y571500D01*
X139700Y571500D02*
X123200Y571500D01*
X123200Y546100D02*
X139700Y546100D01*
X139700Y520700D02*
X123200Y520700D01*
X123200Y495300D02*
X139700Y495300D01*
X139700Y469900D02*
X123200Y469900D01*
X123200Y444500D02*
X139700Y444500D01*
X139700Y419100D02*
X123200Y419100D01*
X123200Y393700D02*
X139700Y393700D01*
X139700Y368300D02*
X123200Y368300D01*
X123200Y342900D02*
X139700Y342900D01*
X139700Y317500D02*
X123200Y317500D01*
X123200Y292100D02*
X139700Y292100D01*
X139700Y266700D02*
X123200Y266700D01*
X123200Y241300D02*
X139700Y241300D01*
X139700Y215900D02*
X123200Y215900D01*
X123200Y190500D02*
X139700Y190500D01*
X139700Y165100D02*
X123200Y165100D01*
X123200Y139700D02*
X139700Y139700D01*
X139700Y114300D02*
X123200Y114300D01*
X123200Y88900D02*
X139700Y88900D01*
X254000Y569200D02*
X254000Y585700D01*
X228600Y585700D02*
X228600Y569200D01*
X203200Y569200D02*
X203200Y585700D01*
M02*
