G04 EAGLE Gerber RS-274X export*
G75*
%MOMM*%
%FSLAX34Y34*%
%LPD*%
%INSilkscreen Top*%
%IPPOS*%
%AMOC8*
5,1,8,0,0,1.08239X$1,22.5*%
G01*
%ADD10C,0.152400*%
%ADD11R,1.870000X0.508000*%
%ADD12R,0.850000X0.635000*%
%ADD13C,0.127000*%
%ADD14C,0.203200*%


D10*
X67000Y93480D02*
X67000Y135120D01*
X67000Y93480D02*
X85400Y93480D01*
X85400Y135120D01*
X67000Y135120D01*
X76200Y120650D02*
X76200Y114300D01*
X82550Y104140D02*
X69850Y104140D01*
X76200Y114300D01*
X76200Y99060D01*
X82550Y104140D02*
X76200Y114300D01*
X82550Y114300D01*
X76200Y114300D02*
X69850Y114300D01*
D11*
X76050Y128270D03*
D12*
X76200Y90305D03*
X76200Y138295D03*
D13*
X93345Y115824D02*
X104775Y115824D01*
X93345Y115824D02*
X93345Y118999D01*
X93347Y119110D01*
X93353Y119220D01*
X93362Y119331D01*
X93376Y119441D01*
X93393Y119550D01*
X93414Y119659D01*
X93439Y119767D01*
X93468Y119874D01*
X93500Y119980D01*
X93536Y120085D01*
X93576Y120188D01*
X93619Y120290D01*
X93666Y120391D01*
X93717Y120490D01*
X93770Y120587D01*
X93827Y120681D01*
X93888Y120774D01*
X93951Y120865D01*
X94018Y120954D01*
X94088Y121040D01*
X94161Y121123D01*
X94236Y121205D01*
X94314Y121283D01*
X94396Y121358D01*
X94479Y121431D01*
X94565Y121501D01*
X94654Y121568D01*
X94745Y121631D01*
X94838Y121692D01*
X94933Y121749D01*
X95029Y121802D01*
X95128Y121853D01*
X95229Y121900D01*
X95331Y121943D01*
X95434Y121983D01*
X95539Y122019D01*
X95645Y122051D01*
X95752Y122080D01*
X95860Y122105D01*
X95969Y122126D01*
X96078Y122143D01*
X96188Y122157D01*
X96299Y122166D01*
X96409Y122172D01*
X96520Y122174D01*
X101600Y122174D01*
X101711Y122172D01*
X101821Y122166D01*
X101932Y122157D01*
X102042Y122143D01*
X102151Y122126D01*
X102260Y122105D01*
X102368Y122080D01*
X102475Y122051D01*
X102581Y122019D01*
X102686Y121983D01*
X102789Y121943D01*
X102891Y121900D01*
X102992Y121853D01*
X103091Y121802D01*
X103188Y121749D01*
X103282Y121692D01*
X103375Y121631D01*
X103466Y121568D01*
X103555Y121501D01*
X103641Y121431D01*
X103724Y121358D01*
X103806Y121283D01*
X103884Y121205D01*
X103959Y121123D01*
X104032Y121040D01*
X104102Y120954D01*
X104169Y120865D01*
X104232Y120774D01*
X104293Y120681D01*
X104350Y120587D01*
X104403Y120490D01*
X104454Y120391D01*
X104501Y120290D01*
X104544Y120188D01*
X104584Y120085D01*
X104620Y119980D01*
X104652Y119874D01*
X104681Y119767D01*
X104706Y119659D01*
X104727Y119550D01*
X104744Y119441D01*
X104758Y119331D01*
X104767Y119220D01*
X104773Y119110D01*
X104775Y118999D01*
X104775Y115824D01*
X95885Y127635D02*
X93345Y130810D01*
X104775Y130810D01*
X104775Y127635D02*
X104775Y133985D01*
D14*
X107950Y50800D02*
X95250Y50800D01*
X107950Y50800D02*
X114300Y44450D01*
X114300Y31750D02*
X107950Y25400D01*
X114300Y44450D02*
X120650Y50800D01*
X133350Y50800D01*
X139700Y44450D01*
X139700Y31750D02*
X133350Y25400D01*
X120650Y25400D01*
X114300Y31750D01*
X88900Y31750D02*
X88900Y44450D01*
X95250Y50800D01*
X88900Y31750D02*
X95250Y25400D01*
X107950Y25400D01*
X139700Y31750D02*
X139700Y44450D01*
D13*
X91144Y53777D02*
X91144Y57531D01*
X91143Y53777D02*
X91141Y53712D01*
X91135Y53648D01*
X91125Y53584D01*
X91112Y53520D01*
X91094Y53458D01*
X91073Y53397D01*
X91049Y53337D01*
X91020Y53279D01*
X90988Y53222D01*
X90953Y53168D01*
X90915Y53116D01*
X90873Y53066D01*
X90829Y53019D01*
X90782Y52975D01*
X90732Y52933D01*
X90680Y52895D01*
X90626Y52860D01*
X90569Y52828D01*
X90511Y52799D01*
X90451Y52775D01*
X90390Y52754D01*
X90328Y52736D01*
X90264Y52723D01*
X90200Y52713D01*
X90136Y52707D01*
X90071Y52705D01*
X89535Y52705D01*
X94092Y56459D02*
X95432Y57531D01*
X95432Y52705D01*
X94092Y52705D02*
X96773Y52705D01*
D14*
X38100Y450850D02*
X38100Y463550D01*
X38100Y450850D02*
X31750Y444500D01*
X19050Y444500D02*
X12700Y450850D01*
X38100Y488950D02*
X31750Y495300D01*
X38100Y488950D02*
X38100Y476250D01*
X31750Y469900D01*
X19050Y469900D02*
X12700Y476250D01*
X12700Y488950D01*
X19050Y495300D01*
X31750Y469900D02*
X38100Y463550D01*
X19050Y469900D02*
X12700Y463550D01*
X12700Y450850D01*
X38100Y527050D02*
X38100Y539750D01*
X38100Y527050D02*
X31750Y520700D01*
X19050Y520700D02*
X12700Y527050D01*
X31750Y520700D02*
X38100Y514350D01*
X38100Y501650D01*
X31750Y495300D01*
X19050Y495300D02*
X12700Y501650D01*
X12700Y514350D01*
X19050Y520700D01*
X38100Y565150D02*
X31750Y571500D01*
X38100Y565150D02*
X38100Y552450D01*
X31750Y546100D01*
X19050Y546100D02*
X12700Y552450D01*
X12700Y565150D01*
X19050Y571500D01*
X31750Y546100D02*
X38100Y539750D01*
X19050Y546100D02*
X12700Y539750D01*
X12700Y527050D01*
X38100Y590550D02*
X31750Y596900D01*
X38100Y590550D02*
X38100Y577850D01*
X31750Y571500D01*
X19050Y571500D02*
X12700Y577850D01*
X12700Y590550D01*
X19050Y596900D01*
X38100Y285750D02*
X38100Y273050D01*
X31750Y266700D01*
X19050Y266700D02*
X12700Y273050D01*
X38100Y311150D02*
X31750Y317500D01*
X38100Y311150D02*
X38100Y298450D01*
X31750Y292100D01*
X19050Y292100D02*
X12700Y298450D01*
X12700Y311150D01*
X19050Y317500D01*
X31750Y292100D02*
X38100Y285750D01*
X19050Y292100D02*
X12700Y285750D01*
X12700Y273050D01*
X38100Y349250D02*
X38100Y361950D01*
X38100Y349250D02*
X31750Y342900D01*
X19050Y342900D02*
X12700Y349250D01*
X31750Y342900D02*
X38100Y336550D01*
X38100Y323850D01*
X31750Y317500D01*
X19050Y317500D02*
X12700Y323850D01*
X12700Y336550D01*
X19050Y342900D01*
X38100Y387350D02*
X31750Y393700D01*
X38100Y387350D02*
X38100Y374650D01*
X31750Y368300D01*
X19050Y368300D02*
X12700Y374650D01*
X12700Y387350D01*
X19050Y393700D01*
X31750Y368300D02*
X38100Y361950D01*
X19050Y368300D02*
X12700Y361950D01*
X12700Y349250D01*
X38100Y425450D02*
X38100Y438150D01*
X38100Y425450D02*
X31750Y419100D01*
X19050Y419100D02*
X12700Y425450D01*
X31750Y419100D02*
X38100Y412750D01*
X38100Y400050D01*
X31750Y393700D01*
X19050Y393700D02*
X12700Y400050D01*
X12700Y412750D01*
X19050Y419100D01*
X38100Y438150D02*
X31750Y444500D01*
X19050Y444500D02*
X12700Y438150D01*
X12700Y425450D01*
X31750Y266700D02*
X38100Y260350D01*
X38100Y247650D01*
X31750Y241300D01*
X19050Y241300D02*
X12700Y247650D01*
X12700Y260350D01*
X19050Y266700D01*
X31750Y241300D02*
X38100Y234950D01*
X38100Y222250D01*
X31750Y215900D01*
X19050Y215900D02*
X12700Y222250D01*
X12700Y234950D01*
X19050Y241300D01*
X31750Y215900D02*
X38100Y209550D01*
X38100Y196850D01*
X31750Y190500D01*
X19050Y190500D02*
X12700Y196850D01*
X12700Y209550D01*
X19050Y215900D01*
X31750Y190500D02*
X38100Y184150D01*
X38100Y171450D01*
X31750Y165100D01*
X19050Y165100D02*
X12700Y171450D01*
X12700Y184150D01*
X19050Y190500D01*
X31750Y165100D02*
X38100Y158750D01*
X38100Y146050D01*
X31750Y139700D01*
X19050Y139700D02*
X12700Y146050D01*
X12700Y158750D01*
X19050Y165100D01*
X31750Y139700D02*
X38100Y133350D01*
X38100Y120650D01*
X31750Y114300D01*
X19050Y114300D02*
X12700Y120650D01*
X12700Y133350D01*
X19050Y139700D01*
X31750Y114300D02*
X38100Y107950D01*
X38100Y95250D01*
X31750Y88900D01*
X19050Y88900D02*
X12700Y95250D01*
X12700Y107950D01*
X19050Y114300D01*
X31750Y88900D02*
X38100Y82550D01*
X38100Y69850D01*
X31750Y63500D01*
X19050Y63500D02*
X12700Y69850D01*
X12700Y82550D01*
X19050Y88900D01*
X31750Y63500D02*
X38100Y57150D01*
X38100Y44450D01*
X31750Y38100D01*
X19050Y38100D02*
X12700Y44450D01*
X12700Y57150D01*
X19050Y63500D01*
X31750Y38100D02*
X38100Y31750D01*
X38100Y19050D01*
X31750Y12700D01*
X19050Y12700D02*
X12700Y19050D01*
X12700Y31750D01*
X19050Y38100D01*
X19050Y12700D02*
X31750Y12700D01*
X31750Y596900D02*
X19050Y596900D01*
D13*
X40005Y590636D02*
X43759Y590636D01*
X43824Y590634D01*
X43888Y590628D01*
X43952Y590618D01*
X44016Y590605D01*
X44078Y590587D01*
X44139Y590566D01*
X44199Y590542D01*
X44257Y590513D01*
X44314Y590481D01*
X44368Y590446D01*
X44420Y590408D01*
X44470Y590366D01*
X44517Y590322D01*
X44561Y590275D01*
X44603Y590225D01*
X44641Y590173D01*
X44676Y590119D01*
X44708Y590062D01*
X44737Y590004D01*
X44761Y589944D01*
X44782Y589883D01*
X44800Y589821D01*
X44813Y589757D01*
X44823Y589693D01*
X44829Y589629D01*
X44831Y589564D01*
X44831Y589027D01*
X40005Y595058D02*
X40007Y595126D01*
X40013Y595193D01*
X40022Y595260D01*
X40035Y595327D01*
X40052Y595392D01*
X40073Y595457D01*
X40097Y595520D01*
X40125Y595582D01*
X40156Y595642D01*
X40190Y595700D01*
X40228Y595756D01*
X40268Y595811D01*
X40312Y595862D01*
X40359Y595911D01*
X40408Y595958D01*
X40459Y596002D01*
X40514Y596042D01*
X40570Y596080D01*
X40628Y596114D01*
X40688Y596145D01*
X40750Y596173D01*
X40813Y596197D01*
X40878Y596218D01*
X40943Y596235D01*
X41010Y596248D01*
X41077Y596257D01*
X41144Y596263D01*
X41212Y596265D01*
X40005Y595058D02*
X40007Y594980D01*
X40013Y594902D01*
X40023Y594825D01*
X40036Y594748D01*
X40054Y594672D01*
X40075Y594597D01*
X40100Y594523D01*
X40129Y594451D01*
X40161Y594380D01*
X40197Y594311D01*
X40236Y594243D01*
X40279Y594178D01*
X40325Y594115D01*
X40374Y594054D01*
X40426Y593996D01*
X40481Y593941D01*
X40538Y593888D01*
X40598Y593839D01*
X40661Y593792D01*
X40726Y593749D01*
X40792Y593709D01*
X40861Y593672D01*
X40932Y593639D01*
X41004Y593609D01*
X41078Y593583D01*
X42150Y595863D02*
X42101Y595912D01*
X42049Y595959D01*
X41994Y596002D01*
X41937Y596043D01*
X41878Y596081D01*
X41817Y596115D01*
X41754Y596146D01*
X41690Y596174D01*
X41624Y596198D01*
X41558Y596218D01*
X41490Y596235D01*
X41421Y596248D01*
X41352Y596257D01*
X41282Y596263D01*
X41212Y596265D01*
X42150Y595863D02*
X44831Y593584D01*
X44831Y596265D01*
X268600Y75200D02*
X333600Y75200D01*
X268600Y75200D02*
X189600Y75200D01*
X123600Y75200D01*
X123600Y585200D01*
X333600Y585200D01*
X333600Y75200D01*
X268600Y75200D02*
X268600Y60200D01*
X188600Y60200D01*
X189600Y75200D01*
X268600Y75200D02*
X268600Y120200D01*
X188600Y120200D01*
X189600Y75200D01*
M02*
