G04 EAGLE Gerber RS-274X export*
G75*
%MOMM*%
%FSLAX34Y34*%
%LPD*%
%INBottom Copper*%
%IPPOS*%
%AMOC8*
5,1,8,0,0,1.08239X$1,22.5*%
G01*
%ADD10C,1.700000*%
%ADD11C,1.879600*%
%ADD12C,1.650000*%
%ADD13C,0.254000*%
%ADD14C,1.016000*%

G36*
X357526Y2036D02*
X357526Y2036D01*
X357545Y2034D01*
X357647Y2056D01*
X357749Y2072D01*
X357766Y2082D01*
X357786Y2086D01*
X357875Y2139D01*
X357966Y2188D01*
X357980Y2202D01*
X357997Y2212D01*
X358064Y2291D01*
X358136Y2366D01*
X358144Y2384D01*
X358157Y2399D01*
X358196Y2495D01*
X358239Y2589D01*
X358241Y2609D01*
X358249Y2627D01*
X358267Y2794D01*
X358267Y216420D01*
X358256Y216491D01*
X358254Y216563D01*
X358236Y216612D01*
X358228Y216663D01*
X358194Y216726D01*
X358169Y216794D01*
X358137Y216834D01*
X358112Y216880D01*
X358060Y216930D01*
X358016Y216986D01*
X357972Y217014D01*
X357934Y217050D01*
X357869Y217080D01*
X357809Y217119D01*
X357758Y217131D01*
X357711Y217153D01*
X357640Y217161D01*
X357570Y217179D01*
X357518Y217175D01*
X357467Y217180D01*
X357396Y217165D01*
X357325Y217160D01*
X357277Y217139D01*
X357226Y217128D01*
X357165Y217091D01*
X357099Y217063D01*
X357043Y217019D01*
X357015Y217002D01*
X357000Y216984D01*
X356968Y216959D01*
X354416Y214406D01*
X340064Y200055D01*
X340052Y200039D01*
X340037Y200026D01*
X339981Y199939D01*
X339920Y199855D01*
X339914Y199836D01*
X339904Y199819D01*
X339878Y199719D01*
X339848Y199620D01*
X339848Y199600D01*
X339844Y199581D01*
X339852Y199478D01*
X339854Y199374D01*
X339861Y199355D01*
X339863Y199335D01*
X339903Y199240D01*
X339939Y199143D01*
X339951Y199127D01*
X339959Y199109D01*
X340064Y198978D01*
X342717Y196325D01*
X344283Y192545D01*
X344283Y188455D01*
X342717Y184675D01*
X340064Y182022D01*
X340052Y182006D01*
X340037Y181993D01*
X339981Y181906D01*
X339920Y181822D01*
X339914Y181803D01*
X339904Y181786D01*
X339878Y181686D01*
X339848Y181587D01*
X339848Y181567D01*
X339844Y181548D01*
X339852Y181445D01*
X339854Y181341D01*
X339861Y181322D01*
X339863Y181303D01*
X339903Y181208D01*
X339939Y181110D01*
X339951Y181095D01*
X339959Y181076D01*
X340064Y180945D01*
X349336Y171674D01*
X351791Y169218D01*
X351791Y160982D01*
X341854Y151044D01*
X340334Y149525D01*
X340287Y149460D01*
X340234Y149401D01*
X340216Y149361D01*
X340190Y149325D01*
X340167Y149249D01*
X340135Y149176D01*
X340131Y149132D01*
X340118Y149090D01*
X340120Y149010D01*
X340113Y148931D01*
X340123Y148888D01*
X340124Y148844D01*
X340151Y148769D01*
X340170Y148692D01*
X340193Y148654D01*
X340209Y148613D01*
X340258Y148551D01*
X340301Y148483D01*
X340344Y148444D01*
X340362Y148421D01*
X340386Y148406D01*
X340425Y148370D01*
X341030Y147931D01*
X342231Y146730D01*
X343229Y145355D01*
X344000Y143842D01*
X344525Y142227D01*
X344684Y141223D01*
X318262Y141223D01*
X318242Y141220D01*
X318223Y141222D01*
X318121Y141200D01*
X318019Y141183D01*
X318002Y141174D01*
X317982Y141170D01*
X317893Y141117D01*
X317802Y141068D01*
X317788Y141054D01*
X317771Y141044D01*
X317704Y140965D01*
X317633Y140890D01*
X317624Y140872D01*
X317611Y140857D01*
X317573Y140761D01*
X317529Y140667D01*
X317527Y140647D01*
X317519Y140629D01*
X317501Y140462D01*
X317501Y139699D01*
X317499Y139699D01*
X317499Y140462D01*
X317496Y140482D01*
X317498Y140501D01*
X317476Y140603D01*
X317459Y140705D01*
X317450Y140722D01*
X317446Y140742D01*
X317393Y140831D01*
X317344Y140922D01*
X317330Y140936D01*
X317320Y140953D01*
X317241Y141020D01*
X317166Y141091D01*
X317148Y141100D01*
X317133Y141113D01*
X317037Y141152D01*
X316943Y141195D01*
X316923Y141197D01*
X316905Y141205D01*
X316738Y141223D01*
X306816Y141223D01*
X306975Y142227D01*
X307500Y143842D01*
X308271Y145355D01*
X309269Y146730D01*
X309829Y147290D01*
X309871Y147348D01*
X309921Y147400D01*
X309943Y147447D01*
X309973Y147489D01*
X309994Y147558D01*
X310024Y147623D01*
X310030Y147675D01*
X310045Y147725D01*
X310043Y147796D01*
X310051Y147867D01*
X310040Y147918D01*
X310039Y147970D01*
X310014Y148038D01*
X309999Y148108D01*
X309972Y148153D01*
X309954Y148201D01*
X309910Y148257D01*
X309873Y148319D01*
X309833Y148353D01*
X309801Y148393D01*
X309740Y148432D01*
X309686Y148479D01*
X309638Y148498D01*
X309594Y148526D01*
X309524Y148544D01*
X309458Y148571D01*
X309387Y148579D01*
X309355Y148587D01*
X309332Y148585D01*
X309291Y148589D01*
X263514Y148589D01*
X263424Y148575D01*
X263333Y148567D01*
X263303Y148555D01*
X263271Y148550D01*
X263190Y148507D01*
X263106Y148471D01*
X263074Y148445D01*
X263054Y148434D01*
X263031Y148411D01*
X262976Y148366D01*
X208619Y94010D01*
X208578Y93952D01*
X208528Y93900D01*
X208506Y93853D01*
X208476Y93811D01*
X208455Y93742D01*
X208425Y93677D01*
X208419Y93625D01*
X208404Y93575D01*
X208405Y93504D01*
X208398Y93433D01*
X208409Y93382D01*
X208410Y93330D01*
X208435Y93262D01*
X208450Y93192D01*
X208476Y93147D01*
X208494Y93099D01*
X208539Y93043D01*
X208576Y92981D01*
X208616Y92947D01*
X208648Y92907D01*
X208708Y92868D01*
X208763Y92821D01*
X208811Y92802D01*
X208855Y92774D01*
X208924Y92756D01*
X208991Y92729D01*
X209062Y92721D01*
X209094Y92713D01*
X209117Y92715D01*
X209158Y92711D01*
X307440Y92711D01*
X307555Y92730D01*
X307671Y92747D01*
X307676Y92749D01*
X307683Y92750D01*
X307785Y92805D01*
X307890Y92858D01*
X307894Y92863D01*
X307900Y92866D01*
X307980Y92950D01*
X308062Y93034D01*
X308066Y93040D01*
X308069Y93044D01*
X308077Y93061D01*
X308143Y93181D01*
X308783Y94725D01*
X311675Y97617D01*
X315455Y99183D01*
X336045Y99183D01*
X339825Y97617D01*
X342717Y94725D01*
X344283Y90945D01*
X344283Y86855D01*
X342717Y83075D01*
X339825Y80183D01*
X336045Y78617D01*
X315455Y78617D01*
X311675Y80183D01*
X308783Y83075D01*
X308143Y84619D01*
X308082Y84719D01*
X308022Y84819D01*
X308017Y84823D01*
X308014Y84828D01*
X307923Y84903D01*
X307835Y84979D01*
X307829Y84981D01*
X307824Y84985D01*
X307716Y85027D01*
X307607Y85071D01*
X307599Y85072D01*
X307594Y85073D01*
X307576Y85074D01*
X307440Y85089D01*
X207634Y85089D01*
X207544Y85075D01*
X207453Y85067D01*
X207423Y85055D01*
X207391Y85050D01*
X207310Y85007D01*
X207226Y84971D01*
X207194Y84945D01*
X207174Y84934D01*
X207151Y84911D01*
X207096Y84866D01*
X131118Y8889D01*
X16202Y8889D01*
X3809Y21282D01*
X3809Y567998D01*
X14713Y578902D01*
X14781Y578997D01*
X14851Y579091D01*
X14853Y579097D01*
X14857Y579102D01*
X14891Y579213D01*
X14927Y579325D01*
X14927Y579331D01*
X14929Y579337D01*
X14926Y579454D01*
X14925Y579571D01*
X14923Y579578D01*
X14923Y579583D01*
X14916Y579600D01*
X14878Y579732D01*
X13969Y581926D01*
X13969Y586474D01*
X15710Y590675D01*
X18925Y593890D01*
X23126Y595631D01*
X27674Y595631D01*
X31875Y593890D01*
X35090Y590675D01*
X36831Y586474D01*
X36831Y581926D01*
X35090Y577725D01*
X31875Y574510D01*
X27674Y572769D01*
X23126Y572769D01*
X20932Y573678D01*
X20867Y573693D01*
X20819Y573713D01*
X20760Y573719D01*
X20705Y573733D01*
X20699Y573733D01*
X20692Y573734D01*
X20656Y573731D01*
X20652Y573731D01*
X20636Y573731D01*
X20601Y573726D01*
X20576Y573723D01*
X20460Y573714D01*
X20454Y573712D01*
X20448Y573711D01*
X20410Y573694D01*
X20393Y573692D01*
X20338Y573663D01*
X20233Y573618D01*
X20227Y573613D01*
X20223Y573611D01*
X20209Y573599D01*
X20193Y573586D01*
X20176Y573577D01*
X20157Y573557D01*
X20102Y573513D01*
X11654Y565064D01*
X11601Y564991D01*
X11541Y564921D01*
X11529Y564891D01*
X11510Y564865D01*
X11483Y564778D01*
X11449Y564693D01*
X11445Y564652D01*
X11438Y564630D01*
X11439Y564597D01*
X11431Y564526D01*
X11431Y552058D01*
X11442Y551987D01*
X11444Y551915D01*
X11462Y551866D01*
X11470Y551815D01*
X11504Y551752D01*
X11529Y551684D01*
X11561Y551644D01*
X11586Y551598D01*
X11637Y551548D01*
X11682Y551492D01*
X11726Y551464D01*
X11764Y551428D01*
X11829Y551398D01*
X11889Y551359D01*
X11940Y551347D01*
X11987Y551325D01*
X12058Y551317D01*
X12128Y551299D01*
X12180Y551303D01*
X12231Y551298D01*
X12302Y551313D01*
X12373Y551318D01*
X12421Y551339D01*
X12472Y551350D01*
X12533Y551387D01*
X12599Y551415D01*
X12655Y551459D01*
X12683Y551476D01*
X12698Y551494D01*
X12730Y551519D01*
X14713Y553502D01*
X14781Y553596D01*
X14851Y553691D01*
X14853Y553697D01*
X14857Y553702D01*
X14891Y553813D01*
X14927Y553925D01*
X14927Y553931D01*
X14929Y553937D01*
X14926Y554054D01*
X14925Y554171D01*
X14923Y554178D01*
X14923Y554183D01*
X14916Y554201D01*
X14878Y554332D01*
X13969Y556526D01*
X13969Y561074D01*
X15710Y565275D01*
X18925Y568490D01*
X23126Y570231D01*
X27674Y570231D01*
X31875Y568490D01*
X35090Y565275D01*
X36831Y561074D01*
X36831Y556526D01*
X35090Y552325D01*
X31875Y549110D01*
X27674Y547369D01*
X23126Y547369D01*
X20932Y548278D01*
X20818Y548305D01*
X20705Y548333D01*
X20699Y548333D01*
X20692Y548334D01*
X20576Y548323D01*
X20460Y548314D01*
X20454Y548312D01*
X20448Y548311D01*
X20340Y548264D01*
X20233Y548218D01*
X20227Y548213D01*
X20223Y548211D01*
X20209Y548199D01*
X20102Y548113D01*
X16734Y544744D01*
X16681Y544670D01*
X16621Y544601D01*
X16609Y544571D01*
X16590Y544545D01*
X16563Y544458D01*
X16529Y544373D01*
X16525Y544332D01*
X16518Y544310D01*
X16519Y544277D01*
X16511Y544206D01*
X16511Y542514D01*
X16514Y542497D01*
X16512Y542481D01*
X16523Y542431D01*
X16524Y542372D01*
X16542Y542323D01*
X16550Y542271D01*
X16562Y542249D01*
X16564Y542240D01*
X16585Y542205D01*
X16609Y542141D01*
X16641Y542100D01*
X16666Y542054D01*
X16689Y542032D01*
X16690Y542029D01*
X16703Y542018D01*
X16718Y542005D01*
X16762Y541949D01*
X16806Y541920D01*
X16844Y541885D01*
X16909Y541854D01*
X16969Y541816D01*
X17020Y541803D01*
X17067Y541781D01*
X17138Y541773D01*
X17208Y541755D01*
X17260Y541760D01*
X17311Y541754D01*
X17382Y541769D01*
X17453Y541775D01*
X17501Y541795D01*
X17509Y541797D01*
X17521Y541799D01*
X17523Y541800D01*
X17552Y541806D01*
X17613Y541843D01*
X17679Y541871D01*
X17722Y541905D01*
X17738Y541914D01*
X17747Y541922D01*
X17763Y541932D01*
X17778Y541950D01*
X17810Y541976D01*
X18925Y543090D01*
X23126Y544831D01*
X27674Y544831D01*
X31875Y543090D01*
X35090Y539875D01*
X36831Y535674D01*
X36831Y531126D01*
X35090Y526925D01*
X31875Y523710D01*
X27674Y521969D01*
X23126Y521969D01*
X18925Y523710D01*
X17810Y524824D01*
X17752Y524866D01*
X17700Y524915D01*
X17653Y524937D01*
X17611Y524968D01*
X17542Y524989D01*
X17477Y525019D01*
X17425Y525025D01*
X17375Y525040D01*
X17304Y525038D01*
X17233Y525046D01*
X17182Y525035D01*
X17130Y525034D01*
X17062Y525009D01*
X16992Y524994D01*
X16947Y524967D01*
X16899Y524949D01*
X16843Y524904D01*
X16781Y524868D01*
X16747Y524828D01*
X16707Y524796D01*
X16668Y524735D01*
X16621Y524681D01*
X16602Y524633D01*
X16574Y524589D01*
X16556Y524519D01*
X16529Y524453D01*
X16521Y524381D01*
X16513Y524350D01*
X16515Y524327D01*
X16511Y524286D01*
X16511Y517114D01*
X16522Y517043D01*
X16524Y516972D01*
X16542Y516923D01*
X16550Y516871D01*
X16584Y516808D01*
X16609Y516741D01*
X16641Y516700D01*
X16666Y516654D01*
X16718Y516605D01*
X16762Y516549D01*
X16806Y516520D01*
X16844Y516485D01*
X16909Y516454D01*
X16969Y516416D01*
X17020Y516403D01*
X17067Y516381D01*
X17138Y516373D01*
X17208Y516355D01*
X17260Y516360D01*
X17311Y516354D01*
X17382Y516369D01*
X17453Y516375D01*
X17501Y516395D01*
X17552Y516406D01*
X17613Y516443D01*
X17679Y516471D01*
X17735Y516516D01*
X17763Y516532D01*
X17778Y516550D01*
X17810Y516576D01*
X18925Y517690D01*
X23126Y519431D01*
X27674Y519431D01*
X31875Y517690D01*
X35090Y514475D01*
X35999Y512281D01*
X36061Y512181D01*
X36121Y512081D01*
X36126Y512077D01*
X36129Y512072D01*
X36220Y511997D01*
X36308Y511921D01*
X36314Y511919D01*
X36318Y511915D01*
X36427Y511873D01*
X36536Y511829D01*
X36544Y511828D01*
X36548Y511827D01*
X36566Y511826D01*
X36703Y511811D01*
X114991Y511811D01*
X115062Y511822D01*
X115134Y511824D01*
X115182Y511842D01*
X115234Y511850D01*
X115297Y511884D01*
X115365Y511909D01*
X115405Y511941D01*
X115451Y511966D01*
X115501Y512017D01*
X115557Y512062D01*
X115585Y512106D01*
X115621Y512144D01*
X115651Y512209D01*
X115690Y512269D01*
X115702Y512320D01*
X115724Y512367D01*
X115732Y512438D01*
X115750Y512508D01*
X115746Y512560D01*
X115751Y512611D01*
X115736Y512682D01*
X115730Y512753D01*
X115710Y512801D01*
X115699Y512852D01*
X115662Y512913D01*
X115634Y512979D01*
X115589Y513035D01*
X115573Y513063D01*
X115555Y513078D01*
X115529Y513110D01*
X114969Y513670D01*
X113971Y515045D01*
X113200Y516558D01*
X112675Y518173D01*
X112516Y519177D01*
X138938Y519177D01*
X138958Y519180D01*
X138977Y519178D01*
X139079Y519200D01*
X139181Y519217D01*
X139198Y519226D01*
X139218Y519230D01*
X139307Y519283D01*
X139398Y519332D01*
X139412Y519346D01*
X139429Y519356D01*
X139496Y519435D01*
X139567Y519510D01*
X139576Y519528D01*
X139589Y519543D01*
X139627Y519639D01*
X139671Y519733D01*
X139673Y519753D01*
X139681Y519771D01*
X139699Y519938D01*
X139699Y520701D01*
X139701Y520701D01*
X139701Y519938D01*
X139704Y519918D01*
X139702Y519899D01*
X139724Y519797D01*
X139741Y519695D01*
X139750Y519678D01*
X139754Y519658D01*
X139807Y519569D01*
X139856Y519478D01*
X139870Y519464D01*
X139880Y519447D01*
X139959Y519380D01*
X140034Y519309D01*
X140052Y519300D01*
X140067Y519287D01*
X140163Y519248D01*
X140257Y519205D01*
X140277Y519203D01*
X140295Y519195D01*
X140462Y519177D01*
X150384Y519177D01*
X150225Y518173D01*
X149700Y516558D01*
X148929Y515045D01*
X147931Y513670D01*
X146753Y512493D01*
X146741Y512477D01*
X146726Y512464D01*
X146670Y512377D01*
X146610Y512293D01*
X146604Y512274D01*
X146593Y512257D01*
X146568Y512157D01*
X146537Y512058D01*
X146538Y512038D01*
X146533Y512019D01*
X146541Y511916D01*
X146544Y511812D01*
X146550Y511793D01*
X146552Y511773D01*
X146592Y511679D01*
X146628Y511581D01*
X146640Y511565D01*
X146648Y511547D01*
X146753Y511416D01*
X148814Y509356D01*
X196936Y461234D01*
X197009Y461181D01*
X197079Y461121D01*
X197109Y461109D01*
X197135Y461090D01*
X197222Y461063D01*
X197307Y461029D01*
X197348Y461025D01*
X197370Y461018D01*
X197403Y461019D01*
X197474Y461011D01*
X207094Y461011D01*
X207165Y461022D01*
X207237Y461024D01*
X207286Y461042D01*
X207337Y461050D01*
X207400Y461084D01*
X207468Y461109D01*
X207508Y461141D01*
X207554Y461166D01*
X207604Y461218D01*
X207660Y461262D01*
X207688Y461306D01*
X207724Y461344D01*
X207754Y461409D01*
X207793Y461469D01*
X207805Y461520D01*
X207827Y461567D01*
X207835Y461638D01*
X207853Y461708D01*
X207849Y461760D01*
X207854Y461811D01*
X207839Y461882D01*
X207834Y461953D01*
X207813Y462001D01*
X207802Y462052D01*
X207765Y462113D01*
X207737Y462179D01*
X207692Y462235D01*
X207676Y462263D01*
X207658Y462278D01*
X207632Y462310D01*
X206899Y463043D01*
X205739Y465844D01*
X205739Y468876D01*
X206899Y471677D01*
X209043Y473821D01*
X211844Y474981D01*
X214876Y474981D01*
X214912Y474966D01*
X215025Y474939D01*
X215139Y474911D01*
X215145Y474911D01*
X215151Y474910D01*
X215268Y474921D01*
X215384Y474930D01*
X215390Y474932D01*
X215396Y474933D01*
X215504Y474981D01*
X215611Y475026D01*
X215616Y475031D01*
X215621Y475033D01*
X215635Y475046D01*
X215742Y475131D01*
X307692Y567081D01*
X307760Y567176D01*
X307830Y567270D01*
X307832Y567276D01*
X307835Y567281D01*
X307870Y567392D01*
X307906Y567504D01*
X307906Y567510D01*
X307908Y567516D01*
X307905Y567633D01*
X307904Y567678D01*
X307905Y567681D01*
X307904Y567683D01*
X307904Y567750D01*
X307901Y567757D01*
X307901Y567762D01*
X307895Y567779D01*
X307857Y567911D01*
X307217Y569455D01*
X307217Y573545D01*
X308783Y577325D01*
X311675Y580217D01*
X315455Y581783D01*
X336045Y581783D01*
X339825Y580217D01*
X342717Y577325D01*
X344283Y573545D01*
X344283Y569455D01*
X342717Y565675D01*
X339825Y562783D01*
X336045Y561217D01*
X315455Y561217D01*
X313911Y561857D01*
X313797Y561884D01*
X313684Y561912D01*
X313677Y561912D01*
X313671Y561913D01*
X313555Y561902D01*
X313438Y561893D01*
X313433Y561891D01*
X313426Y561890D01*
X313319Y561842D01*
X313212Y561797D01*
X313206Y561792D01*
X313202Y561790D01*
X313188Y561777D01*
X313081Y561692D01*
X221131Y469742D01*
X221063Y469647D01*
X220993Y469553D01*
X220991Y469547D01*
X220987Y469542D01*
X220953Y469430D01*
X220917Y469319D01*
X220917Y469313D01*
X220915Y469307D01*
X220918Y469190D01*
X220919Y469073D01*
X220921Y469066D01*
X220921Y469061D01*
X220928Y469043D01*
X220966Y468912D01*
X220981Y468876D01*
X220981Y465844D01*
X219821Y463043D01*
X219088Y462310D01*
X219046Y462252D01*
X218996Y462200D01*
X218974Y462153D01*
X218944Y462111D01*
X218923Y462042D01*
X218893Y461977D01*
X218887Y461925D01*
X218872Y461875D01*
X218874Y461804D01*
X218866Y461733D01*
X218877Y461682D01*
X218878Y461630D01*
X218903Y461562D01*
X218918Y461492D01*
X218945Y461447D01*
X218962Y461399D01*
X219007Y461343D01*
X219044Y461281D01*
X219084Y461247D01*
X219116Y461207D01*
X219176Y461168D01*
X219231Y461121D01*
X219279Y461102D01*
X219323Y461074D01*
X219393Y461056D01*
X219459Y461029D01*
X219530Y461021D01*
X219562Y461013D01*
X219585Y461015D01*
X219626Y461011D01*
X220018Y461011D01*
X222474Y458556D01*
X222474Y458555D01*
X295996Y385034D01*
X296069Y384981D01*
X296139Y384921D01*
X296169Y384909D01*
X296195Y384890D01*
X296282Y384863D01*
X296367Y384829D01*
X296408Y384825D01*
X296430Y384818D01*
X296463Y384819D01*
X296534Y384811D01*
X309291Y384811D01*
X309362Y384822D01*
X309434Y384824D01*
X309482Y384842D01*
X309534Y384850D01*
X309597Y384884D01*
X309665Y384909D01*
X309705Y384941D01*
X309751Y384966D01*
X309801Y385017D01*
X309857Y385062D01*
X309885Y385106D01*
X309921Y385144D01*
X309951Y385209D01*
X309990Y385269D01*
X310002Y385320D01*
X310024Y385367D01*
X310032Y385438D01*
X310050Y385508D01*
X310046Y385560D01*
X310051Y385611D01*
X310036Y385682D01*
X310030Y385753D01*
X310010Y385801D01*
X309999Y385852D01*
X309962Y385913D01*
X309934Y385979D01*
X309889Y386035D01*
X309873Y386063D01*
X309855Y386078D01*
X309829Y386110D01*
X309269Y386670D01*
X308271Y388045D01*
X307500Y389558D01*
X306975Y391173D01*
X306816Y392177D01*
X316738Y392177D01*
X316758Y392180D01*
X316777Y392178D01*
X316879Y392200D01*
X316981Y392217D01*
X316998Y392226D01*
X317018Y392230D01*
X317107Y392283D01*
X317198Y392332D01*
X317212Y392346D01*
X317229Y392356D01*
X317296Y392435D01*
X317367Y392510D01*
X317376Y392528D01*
X317389Y392543D01*
X317427Y392639D01*
X317471Y392733D01*
X317473Y392753D01*
X317481Y392771D01*
X317499Y392938D01*
X317499Y393701D01*
X317501Y393701D01*
X317501Y392938D01*
X317504Y392918D01*
X317502Y392899D01*
X317524Y392797D01*
X317541Y392695D01*
X317550Y392678D01*
X317554Y392658D01*
X317607Y392569D01*
X317656Y392478D01*
X317670Y392464D01*
X317680Y392447D01*
X317759Y392380D01*
X317834Y392309D01*
X317852Y392300D01*
X317867Y392287D01*
X317963Y392248D01*
X318057Y392205D01*
X318077Y392203D01*
X318095Y392195D01*
X318262Y392177D01*
X344684Y392177D01*
X344525Y391173D01*
X344000Y389558D01*
X343229Y388045D01*
X342231Y386670D01*
X341030Y385469D01*
X340425Y385030D01*
X340369Y384973D01*
X340307Y384923D01*
X340283Y384886D01*
X340252Y384855D01*
X340217Y384783D01*
X340174Y384717D01*
X340163Y384674D01*
X340143Y384634D01*
X340133Y384555D01*
X340113Y384478D01*
X340117Y384434D01*
X340111Y384390D01*
X340126Y384312D01*
X340133Y384233D01*
X340150Y384192D01*
X340158Y384149D01*
X340198Y384079D01*
X340229Y384006D01*
X340265Y383961D01*
X340280Y383935D01*
X340301Y383916D01*
X340334Y383875D01*
X356968Y367241D01*
X357026Y367200D01*
X357078Y367150D01*
X357125Y367128D01*
X357167Y367098D01*
X357236Y367077D01*
X357301Y367047D01*
X357353Y367041D01*
X357403Y367026D01*
X357474Y367027D01*
X357545Y367020D01*
X357596Y367031D01*
X357648Y367032D01*
X357716Y367057D01*
X357786Y367072D01*
X357830Y367098D01*
X357879Y367116D01*
X357935Y367161D01*
X357997Y367198D01*
X358031Y367238D01*
X358071Y367270D01*
X358110Y367330D01*
X358157Y367385D01*
X358176Y367433D01*
X358204Y367477D01*
X358222Y367546D01*
X358249Y367613D01*
X358257Y367684D01*
X358265Y367716D01*
X358263Y367739D01*
X358267Y367780D01*
X358267Y609206D01*
X358264Y609226D01*
X358266Y609245D01*
X358244Y609347D01*
X358228Y609449D01*
X358218Y609466D01*
X358214Y609486D01*
X358161Y609575D01*
X358112Y609666D01*
X358098Y609680D01*
X358088Y609697D01*
X358009Y609764D01*
X357934Y609836D01*
X357916Y609844D01*
X357901Y609857D01*
X357805Y609896D01*
X357711Y609939D01*
X357691Y609941D01*
X357673Y609949D01*
X357506Y609967D01*
X2794Y609967D01*
X2774Y609964D01*
X2755Y609966D01*
X2653Y609944D01*
X2551Y609928D01*
X2534Y609918D01*
X2514Y609914D01*
X2425Y609861D01*
X2334Y609812D01*
X2320Y609798D01*
X2303Y609788D01*
X2236Y609709D01*
X2164Y609634D01*
X2156Y609616D01*
X2143Y609601D01*
X2104Y609505D01*
X2061Y609411D01*
X2059Y609391D01*
X2051Y609373D01*
X2033Y609206D01*
X2033Y2794D01*
X2036Y2774D01*
X2034Y2755D01*
X2056Y2653D01*
X2072Y2551D01*
X2082Y2534D01*
X2086Y2514D01*
X2139Y2425D01*
X2188Y2334D01*
X2202Y2320D01*
X2212Y2303D01*
X2291Y2236D01*
X2366Y2164D01*
X2384Y2156D01*
X2399Y2143D01*
X2495Y2104D01*
X2589Y2061D01*
X2609Y2059D01*
X2627Y2051D01*
X2794Y2033D01*
X357506Y2033D01*
X357526Y2036D01*
G37*
G36*
X13298Y22989D02*
X13298Y22989D01*
X13350Y22990D01*
X13418Y23015D01*
X13488Y23030D01*
X13533Y23056D01*
X13581Y23074D01*
X13637Y23119D01*
X13699Y23156D01*
X13733Y23196D01*
X13773Y23228D01*
X13812Y23288D01*
X13859Y23343D01*
X13878Y23391D01*
X13906Y23435D01*
X13924Y23504D01*
X13951Y23571D01*
X13959Y23642D01*
X13967Y23673D01*
X13965Y23697D01*
X13969Y23738D01*
X13969Y27674D01*
X15710Y31875D01*
X18925Y35090D01*
X23126Y36831D01*
X27674Y36831D01*
X31875Y35090D01*
X35090Y31875D01*
X35999Y29681D01*
X36061Y29581D01*
X36121Y29481D01*
X36126Y29477D01*
X36129Y29472D01*
X36220Y29397D01*
X36308Y29321D01*
X36314Y29319D01*
X36318Y29315D01*
X36427Y29273D01*
X36536Y29229D01*
X36544Y29228D01*
X36548Y29227D01*
X36566Y29226D01*
X36703Y29211D01*
X92486Y29211D01*
X92557Y29222D01*
X92628Y29224D01*
X92677Y29242D01*
X92729Y29250D01*
X92792Y29284D01*
X92859Y29309D01*
X92900Y29341D01*
X92946Y29366D01*
X92995Y29418D01*
X93051Y29462D01*
X93080Y29506D01*
X93115Y29544D01*
X93146Y29609D01*
X93184Y29669D01*
X93197Y29720D01*
X93219Y29767D01*
X93227Y29838D01*
X93245Y29908D01*
X93240Y29960D01*
X93246Y30011D01*
X93231Y30082D01*
X93225Y30153D01*
X93205Y30201D01*
X93194Y30252D01*
X93157Y30313D01*
X93129Y30379D01*
X93084Y30435D01*
X93068Y30463D01*
X93050Y30478D01*
X93024Y30510D01*
X91910Y31625D01*
X90169Y35826D01*
X90169Y40374D01*
X91910Y44575D01*
X95125Y47790D01*
X99326Y49531D01*
X103874Y49531D01*
X108075Y47790D01*
X111290Y44575D01*
X113031Y40374D01*
X113031Y35826D01*
X111290Y31625D01*
X110176Y30510D01*
X110134Y30452D01*
X110085Y30400D01*
X110063Y30353D01*
X110032Y30311D01*
X110011Y30242D01*
X109981Y30177D01*
X109975Y30125D01*
X109960Y30075D01*
X109962Y30004D01*
X109954Y29933D01*
X109965Y29882D01*
X109966Y29830D01*
X109991Y29762D01*
X110006Y29692D01*
X110033Y29647D01*
X110051Y29599D01*
X110096Y29543D01*
X110132Y29481D01*
X110172Y29447D01*
X110204Y29407D01*
X110265Y29368D01*
X110319Y29321D01*
X110367Y29302D01*
X110411Y29274D01*
X110481Y29256D01*
X110547Y29229D01*
X110619Y29221D01*
X110650Y29213D01*
X110673Y29215D01*
X110714Y29211D01*
X117207Y29211D01*
X117219Y29213D01*
X117231Y29211D01*
X117340Y29232D01*
X117450Y29250D01*
X117461Y29256D01*
X117472Y29258D01*
X117569Y29313D01*
X117667Y29366D01*
X117676Y29374D01*
X117686Y29380D01*
X117760Y29463D01*
X117837Y29544D01*
X117842Y29555D01*
X117850Y29564D01*
X117893Y29666D01*
X117940Y29767D01*
X117942Y29779D01*
X117946Y29790D01*
X117955Y29901D01*
X117968Y30011D01*
X117965Y30023D01*
X117966Y30035D01*
X117939Y30143D01*
X117915Y30252D01*
X117909Y30262D01*
X117906Y30274D01*
X117823Y30419D01*
X116789Y31843D01*
X115936Y33517D01*
X115355Y35304D01*
X115154Y36577D01*
X126238Y36577D01*
X126258Y36580D01*
X126277Y36578D01*
X126379Y36600D01*
X126481Y36617D01*
X126498Y36626D01*
X126518Y36630D01*
X126607Y36683D01*
X126698Y36732D01*
X126712Y36746D01*
X126729Y36756D01*
X126796Y36835D01*
X126867Y36910D01*
X126876Y36928D01*
X126889Y36943D01*
X126927Y37039D01*
X126971Y37133D01*
X126973Y37153D01*
X126981Y37171D01*
X126999Y37338D01*
X126999Y38101D01*
X127001Y38101D01*
X127001Y37338D01*
X127004Y37318D01*
X127002Y37299D01*
X127024Y37197D01*
X127041Y37095D01*
X127050Y37078D01*
X127054Y37058D01*
X127107Y36969D01*
X127156Y36878D01*
X127170Y36864D01*
X127180Y36847D01*
X127259Y36780D01*
X127334Y36709D01*
X127352Y36700D01*
X127367Y36687D01*
X127463Y36648D01*
X127557Y36605D01*
X127577Y36603D01*
X127595Y36595D01*
X127762Y36577D01*
X138993Y36577D01*
X139000Y36557D01*
X139005Y36551D01*
X139008Y36543D01*
X139079Y36454D01*
X139150Y36362D01*
X139156Y36357D01*
X139161Y36351D01*
X139258Y36289D01*
X139354Y36225D01*
X139361Y36222D01*
X139368Y36218D01*
X139480Y36190D01*
X139591Y36160D01*
X139599Y36160D01*
X139607Y36158D01*
X139721Y36167D01*
X139836Y36174D01*
X139844Y36177D01*
X139852Y36177D01*
X139957Y36222D01*
X140065Y36265D01*
X140071Y36270D01*
X140078Y36274D01*
X140209Y36378D01*
X260042Y156211D01*
X310009Y156211D01*
X310080Y156222D01*
X310152Y156224D01*
X310201Y156242D01*
X310252Y156250D01*
X310316Y156284D01*
X310383Y156309D01*
X310424Y156341D01*
X310470Y156366D01*
X310519Y156418D01*
X310575Y156462D01*
X310603Y156506D01*
X310639Y156544D01*
X310669Y156609D01*
X310708Y156669D01*
X310721Y156720D01*
X310743Y156767D01*
X310751Y156838D01*
X310768Y156908D01*
X310764Y156960D01*
X310770Y157011D01*
X310754Y157082D01*
X310749Y157153D01*
X310729Y157201D01*
X310717Y157252D01*
X310681Y157313D01*
X310653Y157379D01*
X310608Y157435D01*
X310591Y157463D01*
X310573Y157478D01*
X310548Y157510D01*
X308783Y159275D01*
X308143Y160819D01*
X308082Y160919D01*
X308022Y161019D01*
X308017Y161023D01*
X308014Y161028D01*
X307923Y161103D01*
X307835Y161179D01*
X307829Y161181D01*
X307824Y161185D01*
X307716Y161227D01*
X307607Y161271D01*
X307599Y161272D01*
X307594Y161273D01*
X307576Y161274D01*
X307440Y161289D01*
X257502Y161289D01*
X151282Y267509D01*
X151224Y267550D01*
X151172Y267600D01*
X151125Y267622D01*
X151083Y267652D01*
X151014Y267673D01*
X150949Y267703D01*
X150897Y267709D01*
X150847Y267724D01*
X150776Y267723D01*
X150705Y267730D01*
X150654Y267719D01*
X150602Y267718D01*
X150534Y267693D01*
X150464Y267678D01*
X150420Y267652D01*
X150371Y267634D01*
X150315Y267589D01*
X150253Y267552D01*
X150219Y267512D01*
X150179Y267480D01*
X150140Y267420D01*
X150093Y267365D01*
X150074Y267317D01*
X150046Y267273D01*
X150028Y267204D01*
X150001Y267137D01*
X149993Y267066D01*
X149985Y267034D01*
X149987Y267011D01*
X149983Y266970D01*
X149983Y264655D01*
X148417Y260875D01*
X145525Y257983D01*
X141745Y256417D01*
X121155Y256417D01*
X117375Y257983D01*
X114483Y260875D01*
X112917Y264655D01*
X112917Y268745D01*
X114483Y272525D01*
X116248Y274290D01*
X116290Y274348D01*
X116339Y274400D01*
X116361Y274447D01*
X116391Y274489D01*
X116412Y274558D01*
X116443Y274623D01*
X116448Y274675D01*
X116464Y274725D01*
X116462Y274796D01*
X116470Y274867D01*
X116459Y274918D01*
X116457Y274970D01*
X116433Y275038D01*
X116417Y275108D01*
X116391Y275153D01*
X116373Y275201D01*
X116328Y275257D01*
X116291Y275319D01*
X116252Y275353D01*
X116219Y275393D01*
X116159Y275432D01*
X116104Y275479D01*
X116056Y275498D01*
X116012Y275526D01*
X115943Y275544D01*
X115876Y275571D01*
X115805Y275579D01*
X115774Y275587D01*
X115750Y275585D01*
X115709Y275589D01*
X107642Y275589D01*
X81122Y302109D01*
X81027Y302177D01*
X80933Y302247D01*
X80927Y302249D01*
X80922Y302253D01*
X80810Y302287D01*
X80699Y302323D01*
X80693Y302323D01*
X80687Y302325D01*
X80570Y302322D01*
X80453Y302321D01*
X80446Y302319D01*
X80441Y302319D01*
X80423Y302312D01*
X80292Y302274D01*
X80256Y302259D01*
X77224Y302259D01*
X74423Y303419D01*
X72279Y305563D01*
X71119Y308364D01*
X71119Y311396D01*
X72279Y314197D01*
X74423Y316341D01*
X77224Y317501D01*
X80256Y317501D01*
X83057Y316341D01*
X85201Y314197D01*
X86361Y311396D01*
X86361Y308364D01*
X86346Y308328D01*
X86336Y308287D01*
X86324Y308260D01*
X86318Y308210D01*
X86291Y308101D01*
X86291Y308095D01*
X86290Y308089D01*
X86301Y307972D01*
X86310Y307856D01*
X86312Y307850D01*
X86313Y307844D01*
X86361Y307736D01*
X86406Y307629D01*
X86411Y307624D01*
X86413Y307619D01*
X86426Y307605D01*
X86511Y307498D01*
X110576Y283434D01*
X110649Y283381D01*
X110719Y283321D01*
X110749Y283309D01*
X110775Y283290D01*
X110862Y283263D01*
X110947Y283229D01*
X110988Y283225D01*
X111010Y283218D01*
X111043Y283219D01*
X111114Y283211D01*
X115709Y283211D01*
X115780Y283222D01*
X115852Y283224D01*
X115901Y283242D01*
X115952Y283250D01*
X116016Y283284D01*
X116083Y283309D01*
X116124Y283341D01*
X116170Y283366D01*
X116219Y283418D01*
X116275Y283462D01*
X116303Y283506D01*
X116339Y283544D01*
X116369Y283609D01*
X116408Y283669D01*
X116421Y283720D01*
X116443Y283767D01*
X116451Y283838D01*
X116468Y283908D01*
X116464Y283960D01*
X116470Y284011D01*
X116454Y284082D01*
X116449Y284153D01*
X116429Y284201D01*
X116417Y284252D01*
X116381Y284313D01*
X116353Y284379D01*
X116308Y284435D01*
X116291Y284463D01*
X116273Y284478D01*
X116248Y284510D01*
X114483Y286275D01*
X112917Y290055D01*
X112917Y294145D01*
X114483Y297925D01*
X116248Y299690D01*
X116290Y299748D01*
X116339Y299800D01*
X116361Y299847D01*
X116391Y299889D01*
X116412Y299958D01*
X116443Y300023D01*
X116448Y300075D01*
X116464Y300125D01*
X116462Y300196D01*
X116470Y300267D01*
X116459Y300318D01*
X116457Y300370D01*
X116433Y300438D01*
X116417Y300508D01*
X116391Y300553D01*
X116373Y300601D01*
X116328Y300657D01*
X116291Y300719D01*
X116252Y300753D01*
X116219Y300793D01*
X116159Y300832D01*
X116104Y300879D01*
X116056Y300898D01*
X116012Y300926D01*
X115943Y300944D01*
X115876Y300971D01*
X115805Y300979D01*
X115774Y300987D01*
X115750Y300985D01*
X115709Y300989D01*
X110182Y300989D01*
X109062Y302109D01*
X108967Y302177D01*
X108873Y302247D01*
X108867Y302249D01*
X108862Y302253D01*
X108750Y302287D01*
X108639Y302323D01*
X108633Y302323D01*
X108627Y302325D01*
X108510Y302322D01*
X108393Y302321D01*
X108386Y302319D01*
X108381Y302319D01*
X108363Y302312D01*
X108232Y302274D01*
X108196Y302259D01*
X105164Y302259D01*
X102363Y303419D01*
X100219Y305563D01*
X99059Y308364D01*
X99059Y311396D01*
X100219Y314197D01*
X102363Y316341D01*
X105164Y317501D01*
X108196Y317501D01*
X110997Y316341D01*
X111618Y315720D01*
X111676Y315678D01*
X111728Y315628D01*
X111775Y315606D01*
X111817Y315576D01*
X111886Y315555D01*
X111951Y315525D01*
X112003Y315519D01*
X112053Y315504D01*
X112124Y315506D01*
X112195Y315498D01*
X112246Y315509D01*
X112298Y315510D01*
X112366Y315535D01*
X112436Y315550D01*
X112481Y315577D01*
X112529Y315594D01*
X112585Y315639D01*
X112647Y315676D01*
X112681Y315716D01*
X112721Y315748D01*
X112760Y315808D01*
X112807Y315863D01*
X112826Y315911D01*
X112854Y315955D01*
X112872Y316025D01*
X112899Y316091D01*
X112907Y316162D01*
X112915Y316194D01*
X112913Y316217D01*
X112917Y316258D01*
X112917Y319545D01*
X114483Y323325D01*
X117375Y326217D01*
X121155Y327783D01*
X141745Y327783D01*
X145525Y326217D01*
X148417Y323325D01*
X149327Y321128D01*
X149365Y321067D01*
X149394Y321001D01*
X149430Y320963D01*
X149457Y320918D01*
X149512Y320873D01*
X149561Y320820D01*
X149606Y320795D01*
X149646Y320762D01*
X149713Y320736D01*
X149776Y320701D01*
X149828Y320692D01*
X149876Y320673D01*
X149948Y320670D01*
X150018Y320658D01*
X150070Y320665D01*
X150122Y320663D01*
X150191Y320683D01*
X150262Y320693D01*
X150308Y320717D01*
X150358Y320732D01*
X150417Y320772D01*
X150481Y320805D01*
X150517Y320842D01*
X150560Y320872D01*
X150603Y320929D01*
X150653Y320981D01*
X150688Y321043D01*
X150707Y321069D01*
X150714Y321091D01*
X150734Y321128D01*
X151019Y321817D01*
X153163Y323961D01*
X155964Y325121D01*
X158996Y325121D01*
X161797Y323961D01*
X164031Y321727D01*
X164068Y321700D01*
X164099Y321666D01*
X164167Y321628D01*
X164230Y321583D01*
X164274Y321570D01*
X164315Y321547D01*
X164391Y321534D01*
X164466Y321511D01*
X164511Y321512D01*
X164557Y321504D01*
X164634Y321515D01*
X164711Y321517D01*
X164755Y321533D01*
X164800Y321540D01*
X164869Y321575D01*
X164942Y321602D01*
X164978Y321630D01*
X165019Y321651D01*
X165074Y321707D01*
X165134Y321755D01*
X165159Y321794D01*
X165191Y321827D01*
X165257Y321946D01*
X165267Y321962D01*
X165269Y321967D01*
X165272Y321974D01*
X166259Y324357D01*
X168403Y326501D01*
X171204Y327661D01*
X174236Y327661D01*
X174272Y327646D01*
X174385Y327619D01*
X174499Y327591D01*
X174505Y327591D01*
X174511Y327590D01*
X174628Y327601D01*
X174744Y327610D01*
X174750Y327612D01*
X174756Y327613D01*
X174864Y327661D01*
X174971Y327706D01*
X174976Y327711D01*
X174981Y327713D01*
X174995Y327726D01*
X175102Y327811D01*
X178871Y331580D01*
X178898Y331618D01*
X178932Y331649D01*
X178969Y331717D01*
X179015Y331780D01*
X179028Y331824D01*
X179050Y331864D01*
X179064Y331941D01*
X179087Y332015D01*
X179086Y332061D01*
X179094Y332106D01*
X179083Y332183D01*
X179081Y332261D01*
X179065Y332304D01*
X179058Y332350D01*
X179023Y332419D01*
X178996Y332492D01*
X178968Y332528D01*
X178947Y332569D01*
X178891Y332623D01*
X178843Y332684D01*
X178804Y332709D01*
X178771Y332741D01*
X178651Y332807D01*
X178636Y332817D01*
X178631Y332818D01*
X178624Y332822D01*
X176023Y333899D01*
X173879Y336043D01*
X172719Y338844D01*
X172719Y341876D01*
X173879Y344677D01*
X176023Y346821D01*
X176059Y346835D01*
X176158Y346897D01*
X176259Y346957D01*
X176263Y346962D01*
X176268Y346965D01*
X176342Y347055D01*
X176419Y347144D01*
X176421Y347150D01*
X176425Y347155D01*
X176467Y347262D01*
X176511Y347372D01*
X176512Y347380D01*
X176513Y347384D01*
X176514Y347402D01*
X176529Y347539D01*
X176529Y379814D01*
X176518Y379885D01*
X176516Y379957D01*
X176498Y380006D01*
X176490Y380057D01*
X176456Y380120D01*
X176431Y380188D01*
X176399Y380228D01*
X176374Y380274D01*
X176322Y380324D01*
X176278Y380380D01*
X176234Y380408D01*
X176196Y380444D01*
X176131Y380474D01*
X176071Y380513D01*
X176020Y380525D01*
X175973Y380547D01*
X175902Y380555D01*
X175832Y380573D01*
X175780Y380569D01*
X175729Y380574D01*
X175658Y380559D01*
X175587Y380554D01*
X175539Y380533D01*
X175488Y380522D01*
X175427Y380485D01*
X175361Y380457D01*
X175305Y380412D01*
X175277Y380396D01*
X175262Y380378D01*
X175230Y380352D01*
X174497Y379619D01*
X171696Y378459D01*
X168664Y378459D01*
X165863Y379619D01*
X165130Y380352D01*
X165072Y380394D01*
X165020Y380444D01*
X164973Y380466D01*
X164931Y380496D01*
X164862Y380517D01*
X164797Y380547D01*
X164745Y380553D01*
X164695Y380568D01*
X164624Y380566D01*
X164553Y380574D01*
X164502Y380563D01*
X164450Y380562D01*
X164382Y380537D01*
X164312Y380522D01*
X164267Y380495D01*
X164219Y380478D01*
X164163Y380433D01*
X164101Y380396D01*
X164067Y380356D01*
X164027Y380324D01*
X163988Y380264D01*
X163941Y380209D01*
X163922Y380161D01*
X163894Y380117D01*
X163876Y380047D01*
X163849Y379981D01*
X163841Y379910D01*
X163833Y379878D01*
X163835Y379855D01*
X163831Y379814D01*
X163831Y363831D01*
X163850Y363716D01*
X163867Y363600D01*
X163869Y363594D01*
X163870Y363588D01*
X163925Y363486D01*
X163978Y363381D01*
X163983Y363376D01*
X163986Y363371D01*
X164070Y363291D01*
X164154Y363208D01*
X164160Y363205D01*
X164164Y363201D01*
X164181Y363194D01*
X164301Y363128D01*
X166877Y362061D01*
X169021Y359917D01*
X170181Y357116D01*
X170181Y354084D01*
X169021Y351283D01*
X166877Y349139D01*
X164076Y347979D01*
X161044Y347979D01*
X158243Y349139D01*
X156099Y351283D01*
X154939Y354084D01*
X154939Y357116D01*
X156151Y360042D01*
X156166Y360106D01*
X156191Y360167D01*
X156200Y360249D01*
X156207Y360281D01*
X156206Y360301D01*
X156209Y360333D01*
X156209Y389061D01*
X156191Y389176D01*
X156173Y389292D01*
X156171Y389298D01*
X156170Y389304D01*
X156115Y389407D01*
X156062Y389511D01*
X156057Y389516D01*
X156054Y389521D01*
X155970Y389602D01*
X155886Y389684D01*
X155880Y389687D01*
X155876Y389691D01*
X155859Y389699D01*
X155739Y389765D01*
X155703Y389779D01*
X153559Y391923D01*
X152399Y394724D01*
X152399Y397756D01*
X153559Y400557D01*
X154292Y401290D01*
X154334Y401348D01*
X154384Y401400D01*
X154406Y401447D01*
X154436Y401489D01*
X154457Y401558D01*
X154487Y401623D01*
X154493Y401675D01*
X154508Y401725D01*
X154506Y401796D01*
X154514Y401867D01*
X154503Y401918D01*
X154502Y401970D01*
X154477Y402038D01*
X154462Y402108D01*
X154435Y402153D01*
X154418Y402201D01*
X154373Y402257D01*
X154336Y402319D01*
X154296Y402353D01*
X154264Y402393D01*
X154204Y402432D01*
X154149Y402479D01*
X154101Y402498D01*
X154057Y402526D01*
X153987Y402544D01*
X153921Y402571D01*
X153850Y402579D01*
X153818Y402587D01*
X153795Y402585D01*
X153754Y402589D01*
X147909Y402589D01*
X147838Y402578D01*
X147766Y402576D01*
X147718Y402558D01*
X147666Y402550D01*
X147603Y402516D01*
X147535Y402491D01*
X147495Y402459D01*
X147449Y402434D01*
X147399Y402383D01*
X147343Y402338D01*
X147315Y402294D01*
X147279Y402256D01*
X147249Y402191D01*
X147210Y402131D01*
X147198Y402080D01*
X147176Y402033D01*
X147168Y401962D01*
X147150Y401892D01*
X147154Y401840D01*
X147149Y401789D01*
X147164Y401718D01*
X147170Y401647D01*
X147190Y401599D01*
X147201Y401548D01*
X147238Y401487D01*
X147266Y401421D01*
X147311Y401365D01*
X147327Y401337D01*
X147345Y401322D01*
X147371Y401290D01*
X147931Y400730D01*
X148929Y399355D01*
X149700Y397842D01*
X150225Y396227D01*
X150384Y395223D01*
X140462Y395223D01*
X140442Y395220D01*
X140423Y395222D01*
X140321Y395200D01*
X140219Y395183D01*
X140202Y395174D01*
X140182Y395170D01*
X140093Y395117D01*
X140002Y395068D01*
X139988Y395054D01*
X139971Y395044D01*
X139904Y394965D01*
X139833Y394890D01*
X139824Y394872D01*
X139811Y394857D01*
X139773Y394761D01*
X139729Y394667D01*
X139727Y394647D01*
X139719Y394629D01*
X139701Y394462D01*
X139701Y393699D01*
X139699Y393699D01*
X139699Y394462D01*
X139696Y394482D01*
X139698Y394501D01*
X139676Y394603D01*
X139659Y394705D01*
X139650Y394722D01*
X139646Y394742D01*
X139593Y394831D01*
X139544Y394922D01*
X139530Y394936D01*
X139520Y394953D01*
X139441Y395020D01*
X139366Y395091D01*
X139348Y395100D01*
X139333Y395113D01*
X139237Y395152D01*
X139143Y395195D01*
X139123Y395197D01*
X139105Y395205D01*
X138938Y395223D01*
X112516Y395223D01*
X112675Y396227D01*
X113200Y397842D01*
X113971Y399355D01*
X114969Y400730D01*
X115529Y401290D01*
X115571Y401348D01*
X115621Y401400D01*
X115643Y401447D01*
X115673Y401489D01*
X115694Y401558D01*
X115724Y401623D01*
X115730Y401675D01*
X115745Y401725D01*
X115743Y401796D01*
X115751Y401867D01*
X115740Y401918D01*
X115739Y401970D01*
X115714Y402038D01*
X115699Y402108D01*
X115672Y402153D01*
X115654Y402201D01*
X115610Y402257D01*
X115573Y402319D01*
X115533Y402353D01*
X115501Y402393D01*
X115440Y402432D01*
X115386Y402479D01*
X115338Y402498D01*
X115294Y402526D01*
X115224Y402544D01*
X115158Y402571D01*
X115087Y402579D01*
X115055Y402587D01*
X115032Y402585D01*
X114991Y402589D01*
X107642Y402589D01*
X106710Y403521D01*
X106652Y403562D01*
X106600Y403612D01*
X106553Y403634D01*
X106511Y403664D01*
X106442Y403685D01*
X106377Y403715D01*
X106325Y403721D01*
X106275Y403736D01*
X106204Y403735D01*
X106133Y403742D01*
X106082Y403731D01*
X106030Y403730D01*
X105962Y403705D01*
X105892Y403690D01*
X105847Y403664D01*
X105799Y403646D01*
X105743Y403601D01*
X105681Y403564D01*
X105647Y403524D01*
X105607Y403492D01*
X105568Y403432D01*
X105521Y403377D01*
X105502Y403329D01*
X105474Y403285D01*
X105456Y403216D01*
X105429Y403149D01*
X105421Y403078D01*
X105413Y403047D01*
X105415Y403023D01*
X105411Y402982D01*
X105411Y352619D01*
X105429Y352504D01*
X105447Y352388D01*
X105449Y352382D01*
X105450Y352376D01*
X105505Y352273D01*
X105558Y352169D01*
X105563Y352164D01*
X105566Y352159D01*
X105650Y352078D01*
X105734Y351996D01*
X105740Y351993D01*
X105744Y351989D01*
X105761Y351981D01*
X105881Y351915D01*
X105917Y351901D01*
X108061Y349757D01*
X109221Y346956D01*
X109221Y343924D01*
X108061Y341123D01*
X105827Y338889D01*
X105800Y338852D01*
X105766Y338821D01*
X105728Y338753D01*
X105683Y338690D01*
X105670Y338646D01*
X105647Y338605D01*
X105634Y338529D01*
X105611Y338454D01*
X105612Y338409D01*
X105604Y338363D01*
X105615Y338286D01*
X105617Y338209D01*
X105633Y338165D01*
X105640Y338120D01*
X105675Y338051D01*
X105702Y337978D01*
X105730Y337942D01*
X105751Y337901D01*
X105807Y337846D01*
X105855Y337786D01*
X105894Y337761D01*
X105927Y337729D01*
X106046Y337663D01*
X106062Y337653D01*
X106067Y337651D01*
X106074Y337648D01*
X108457Y336661D01*
X110601Y334517D01*
X111761Y331716D01*
X111761Y328684D01*
X110601Y325883D01*
X108457Y323739D01*
X105656Y322579D01*
X102624Y322579D01*
X99823Y323739D01*
X97679Y325883D01*
X97665Y325919D01*
X97603Y326018D01*
X97543Y326119D01*
X97538Y326123D01*
X97535Y326128D01*
X97445Y326202D01*
X97356Y326279D01*
X97350Y326281D01*
X97345Y326285D01*
X97238Y326327D01*
X97128Y326371D01*
X97120Y326372D01*
X97116Y326373D01*
X97098Y326374D01*
X96961Y326389D01*
X74622Y326389D01*
X30698Y370313D01*
X30604Y370381D01*
X30509Y370451D01*
X30503Y370453D01*
X30498Y370457D01*
X30387Y370491D01*
X30275Y370527D01*
X30269Y370527D01*
X30263Y370529D01*
X30146Y370526D01*
X30029Y370525D01*
X30022Y370523D01*
X30017Y370523D01*
X30000Y370516D01*
X29868Y370478D01*
X27674Y369569D01*
X23126Y369569D01*
X18925Y371310D01*
X17810Y372424D01*
X17752Y372466D01*
X17700Y372515D01*
X17653Y372537D01*
X17611Y372568D01*
X17542Y372589D01*
X17477Y372619D01*
X17425Y372625D01*
X17375Y372640D01*
X17304Y372638D01*
X17233Y372646D01*
X17182Y372635D01*
X17130Y372634D01*
X17062Y372609D01*
X16992Y372594D01*
X16947Y372567D01*
X16899Y372549D01*
X16843Y372504D01*
X16781Y372468D01*
X16747Y372428D01*
X16707Y372396D01*
X16668Y372335D01*
X16621Y372281D01*
X16602Y372233D01*
X16574Y372189D01*
X16556Y372119D01*
X16529Y372053D01*
X16521Y371981D01*
X16513Y371950D01*
X16515Y371927D01*
X16511Y371886D01*
X16511Y364714D01*
X16522Y364643D01*
X16524Y364572D01*
X16542Y364523D01*
X16550Y364471D01*
X16584Y364408D01*
X16609Y364341D01*
X16641Y364300D01*
X16666Y364254D01*
X16718Y364205D01*
X16762Y364149D01*
X16806Y364120D01*
X16844Y364085D01*
X16909Y364054D01*
X16969Y364016D01*
X17020Y364003D01*
X17067Y363981D01*
X17138Y363973D01*
X17208Y363955D01*
X17260Y363960D01*
X17311Y363954D01*
X17382Y363969D01*
X17453Y363975D01*
X17501Y363995D01*
X17552Y364006D01*
X17613Y364043D01*
X17679Y364071D01*
X17735Y364116D01*
X17763Y364132D01*
X17778Y364150D01*
X17810Y364176D01*
X18925Y365290D01*
X23126Y367031D01*
X27674Y367031D01*
X31875Y365290D01*
X35090Y362075D01*
X36831Y357874D01*
X36831Y353326D01*
X35090Y349125D01*
X31875Y345910D01*
X27674Y344169D01*
X23126Y344169D01*
X18925Y345910D01*
X17810Y347024D01*
X17752Y347066D01*
X17700Y347115D01*
X17653Y347137D01*
X17611Y347168D01*
X17542Y347189D01*
X17477Y347219D01*
X17425Y347225D01*
X17375Y347240D01*
X17304Y347238D01*
X17233Y347246D01*
X17182Y347235D01*
X17130Y347234D01*
X17062Y347209D01*
X16992Y347194D01*
X16947Y347167D01*
X16899Y347149D01*
X16843Y347104D01*
X16781Y347068D01*
X16747Y347028D01*
X16707Y346996D01*
X16668Y346935D01*
X16621Y346881D01*
X16602Y346833D01*
X16574Y346789D01*
X16556Y346719D01*
X16529Y346653D01*
X16521Y346581D01*
X16513Y346550D01*
X16515Y346527D01*
X16511Y346486D01*
X16511Y339314D01*
X16522Y339243D01*
X16524Y339172D01*
X16542Y339123D01*
X16550Y339071D01*
X16584Y339008D01*
X16609Y338941D01*
X16641Y338900D01*
X16666Y338854D01*
X16718Y338805D01*
X16762Y338749D01*
X16806Y338720D01*
X16844Y338685D01*
X16909Y338654D01*
X16969Y338616D01*
X17020Y338603D01*
X17067Y338581D01*
X17138Y338573D01*
X17208Y338555D01*
X17260Y338560D01*
X17311Y338554D01*
X17382Y338569D01*
X17453Y338575D01*
X17501Y338595D01*
X17552Y338606D01*
X17613Y338643D01*
X17679Y338671D01*
X17735Y338716D01*
X17763Y338732D01*
X17778Y338750D01*
X17810Y338776D01*
X18925Y339890D01*
X23126Y341631D01*
X27674Y341631D01*
X31875Y339890D01*
X35090Y336675D01*
X36831Y332474D01*
X36831Y327926D01*
X35090Y323725D01*
X31875Y320510D01*
X27674Y318769D01*
X23126Y318769D01*
X18925Y320510D01*
X17810Y321624D01*
X17752Y321666D01*
X17700Y321715D01*
X17653Y321737D01*
X17611Y321768D01*
X17542Y321789D01*
X17477Y321819D01*
X17425Y321825D01*
X17375Y321840D01*
X17304Y321838D01*
X17233Y321846D01*
X17182Y321835D01*
X17130Y321834D01*
X17062Y321809D01*
X16992Y321794D01*
X16947Y321767D01*
X16899Y321749D01*
X16843Y321704D01*
X16781Y321668D01*
X16747Y321628D01*
X16707Y321596D01*
X16668Y321535D01*
X16621Y321481D01*
X16602Y321433D01*
X16574Y321389D01*
X16556Y321319D01*
X16529Y321253D01*
X16521Y321181D01*
X16513Y321150D01*
X16515Y321127D01*
X16511Y321086D01*
X16511Y314593D01*
X16513Y314581D01*
X16511Y314569D01*
X16532Y314460D01*
X16550Y314350D01*
X16556Y314339D01*
X16558Y314328D01*
X16613Y314231D01*
X16666Y314133D01*
X16674Y314124D01*
X16680Y314114D01*
X16763Y314040D01*
X16844Y313963D01*
X16855Y313958D01*
X16864Y313950D01*
X16966Y313907D01*
X17067Y313860D01*
X17079Y313858D01*
X17090Y313854D01*
X17201Y313845D01*
X17311Y313832D01*
X17323Y313835D01*
X17335Y313834D01*
X17443Y313861D01*
X17552Y313885D01*
X17562Y313891D01*
X17574Y313894D01*
X17719Y313977D01*
X19143Y315011D01*
X20817Y315864D01*
X22604Y316445D01*
X23877Y316646D01*
X23877Y305562D01*
X23880Y305542D01*
X23878Y305523D01*
X23900Y305421D01*
X23917Y305319D01*
X23926Y305302D01*
X23930Y305282D01*
X23983Y305193D01*
X24032Y305102D01*
X24046Y305088D01*
X24056Y305071D01*
X24135Y305004D01*
X24210Y304933D01*
X24228Y304924D01*
X24243Y304911D01*
X24339Y304873D01*
X24433Y304829D01*
X24453Y304827D01*
X24471Y304819D01*
X24638Y304801D01*
X25401Y304801D01*
X25401Y304799D01*
X24638Y304799D01*
X24618Y304796D01*
X24599Y304798D01*
X24497Y304776D01*
X24395Y304759D01*
X24378Y304750D01*
X24358Y304746D01*
X24269Y304693D01*
X24178Y304644D01*
X24164Y304630D01*
X24147Y304620D01*
X24080Y304541D01*
X24009Y304466D01*
X24000Y304448D01*
X23987Y304433D01*
X23948Y304337D01*
X23905Y304243D01*
X23903Y304223D01*
X23895Y304205D01*
X23877Y304038D01*
X23877Y292954D01*
X22604Y293155D01*
X20817Y293736D01*
X19143Y294589D01*
X17719Y295623D01*
X17709Y295629D01*
X17700Y295637D01*
X17599Y295684D01*
X17500Y295734D01*
X17488Y295735D01*
X17477Y295740D01*
X17366Y295753D01*
X17256Y295768D01*
X17244Y295766D01*
X17233Y295768D01*
X17124Y295744D01*
X17014Y295724D01*
X17004Y295718D01*
X16992Y295715D01*
X16897Y295658D01*
X16799Y295604D01*
X16791Y295595D01*
X16781Y295589D01*
X16709Y295504D01*
X16634Y295422D01*
X16629Y295411D01*
X16621Y295402D01*
X16579Y295299D01*
X16535Y295197D01*
X16534Y295185D01*
X16529Y295174D01*
X16511Y295007D01*
X16511Y288514D01*
X16522Y288443D01*
X16524Y288372D01*
X16542Y288323D01*
X16550Y288271D01*
X16584Y288208D01*
X16609Y288141D01*
X16641Y288100D01*
X16666Y288054D01*
X16718Y288005D01*
X16762Y287949D01*
X16806Y287920D01*
X16844Y287885D01*
X16909Y287854D01*
X16969Y287816D01*
X17020Y287803D01*
X17067Y287781D01*
X17138Y287773D01*
X17208Y287755D01*
X17260Y287760D01*
X17311Y287754D01*
X17382Y287769D01*
X17453Y287775D01*
X17501Y287795D01*
X17552Y287806D01*
X17613Y287843D01*
X17679Y287871D01*
X17735Y287916D01*
X17763Y287932D01*
X17778Y287950D01*
X17810Y287976D01*
X18925Y289090D01*
X23126Y290831D01*
X27674Y290831D01*
X31875Y289090D01*
X35090Y285875D01*
X36831Y281674D01*
X36831Y277126D01*
X35090Y272925D01*
X31875Y269710D01*
X27674Y267969D01*
X23126Y267969D01*
X18925Y269710D01*
X17810Y270824D01*
X17752Y270866D01*
X17700Y270915D01*
X17653Y270937D01*
X17611Y270968D01*
X17542Y270989D01*
X17477Y271019D01*
X17425Y271025D01*
X17375Y271040D01*
X17304Y271038D01*
X17233Y271046D01*
X17182Y271035D01*
X17130Y271034D01*
X17062Y271009D01*
X16992Y270994D01*
X16947Y270967D01*
X16899Y270949D01*
X16843Y270904D01*
X16781Y270868D01*
X16747Y270828D01*
X16707Y270796D01*
X16668Y270735D01*
X16621Y270681D01*
X16602Y270633D01*
X16574Y270589D01*
X16556Y270519D01*
X16529Y270453D01*
X16521Y270381D01*
X16513Y270350D01*
X16515Y270327D01*
X16511Y270286D01*
X16511Y263114D01*
X16512Y263105D01*
X16512Y263102D01*
X16516Y263084D01*
X16522Y263043D01*
X16524Y262972D01*
X16542Y262923D01*
X16550Y262871D01*
X16584Y262808D01*
X16609Y262741D01*
X16641Y262700D01*
X16666Y262654D01*
X16718Y262605D01*
X16762Y262549D01*
X16806Y262520D01*
X16844Y262485D01*
X16909Y262454D01*
X16969Y262416D01*
X17020Y262403D01*
X17067Y262381D01*
X17138Y262373D01*
X17208Y262355D01*
X17260Y262360D01*
X17311Y262354D01*
X17382Y262369D01*
X17453Y262375D01*
X17501Y262395D01*
X17552Y262406D01*
X17613Y262443D01*
X17679Y262471D01*
X17735Y262516D01*
X17763Y262532D01*
X17778Y262550D01*
X17810Y262576D01*
X18925Y263690D01*
X23126Y265431D01*
X27674Y265431D01*
X31875Y263690D01*
X34060Y261506D01*
X34076Y261494D01*
X34088Y261478D01*
X34176Y261422D01*
X34260Y261362D01*
X34279Y261356D01*
X34295Y261345D01*
X34396Y261320D01*
X34495Y261290D01*
X34515Y261290D01*
X34534Y261285D01*
X34637Y261293D01*
X34741Y261296D01*
X34759Y261303D01*
X34779Y261304D01*
X34874Y261345D01*
X34972Y261381D01*
X34987Y261393D01*
X35005Y261401D01*
X35136Y261506D01*
X36744Y263114D01*
X53189Y279558D01*
X53257Y279653D01*
X53327Y279747D01*
X53329Y279753D01*
X53333Y279758D01*
X53367Y279870D01*
X53403Y279981D01*
X53403Y279987D01*
X53405Y279993D01*
X53402Y280111D01*
X53401Y280227D01*
X53399Y280234D01*
X53399Y280239D01*
X53392Y280257D01*
X53354Y280388D01*
X53339Y280424D01*
X53339Y283456D01*
X54499Y286257D01*
X56643Y288401D01*
X59444Y289561D01*
X62476Y289561D01*
X65277Y288401D01*
X67421Y286257D01*
X68581Y283456D01*
X68581Y280424D01*
X67421Y277623D01*
X65926Y276128D01*
X65914Y276112D01*
X65898Y276100D01*
X65842Y276012D01*
X65782Y275929D01*
X65776Y275910D01*
X65765Y275893D01*
X65740Y275792D01*
X65710Y275693D01*
X65710Y275674D01*
X65705Y275654D01*
X65713Y275551D01*
X65716Y275448D01*
X65723Y275429D01*
X65724Y275409D01*
X65765Y275314D01*
X65801Y275217D01*
X65813Y275201D01*
X65821Y275183D01*
X65926Y275052D01*
X67421Y273557D01*
X68581Y270756D01*
X68581Y267724D01*
X67421Y264923D01*
X65277Y262779D01*
X65241Y262765D01*
X65142Y262703D01*
X65041Y262643D01*
X65037Y262638D01*
X65032Y262635D01*
X64958Y262545D01*
X64881Y262456D01*
X64879Y262450D01*
X64875Y262445D01*
X64833Y262337D01*
X64789Y262228D01*
X64788Y262220D01*
X64787Y262216D01*
X64786Y262198D01*
X64771Y262061D01*
X64771Y186382D01*
X36087Y157698D01*
X36019Y157604D01*
X35949Y157509D01*
X35947Y157503D01*
X35943Y157498D01*
X35909Y157387D01*
X35873Y157275D01*
X35873Y157269D01*
X35871Y157263D01*
X35874Y157146D01*
X35875Y157029D01*
X35877Y157022D01*
X35877Y157017D01*
X35884Y157000D01*
X35922Y156868D01*
X36831Y154674D01*
X36831Y150126D01*
X35090Y145925D01*
X31875Y142710D01*
X27674Y140969D01*
X23126Y140969D01*
X18925Y142710D01*
X17810Y143824D01*
X17752Y143866D01*
X17700Y143915D01*
X17653Y143937D01*
X17611Y143968D01*
X17542Y143989D01*
X17477Y144019D01*
X17425Y144025D01*
X17375Y144040D01*
X17304Y144038D01*
X17233Y144046D01*
X17182Y144035D01*
X17130Y144034D01*
X17062Y144009D01*
X16992Y143994D01*
X16947Y143967D01*
X16899Y143949D01*
X16843Y143904D01*
X16781Y143868D01*
X16747Y143828D01*
X16707Y143796D01*
X16668Y143735D01*
X16621Y143681D01*
X16602Y143633D01*
X16574Y143589D01*
X16556Y143519D01*
X16529Y143453D01*
X16521Y143381D01*
X16513Y143350D01*
X16515Y143327D01*
X16511Y143286D01*
X16511Y136114D01*
X16522Y136043D01*
X16524Y135972D01*
X16542Y135923D01*
X16550Y135871D01*
X16584Y135808D01*
X16609Y135741D01*
X16641Y135700D01*
X16666Y135654D01*
X16718Y135605D01*
X16762Y135549D01*
X16806Y135520D01*
X16844Y135485D01*
X16909Y135454D01*
X16969Y135416D01*
X17020Y135403D01*
X17067Y135381D01*
X17138Y135373D01*
X17208Y135355D01*
X17260Y135360D01*
X17311Y135354D01*
X17382Y135369D01*
X17453Y135375D01*
X17501Y135395D01*
X17552Y135406D01*
X17613Y135443D01*
X17679Y135471D01*
X17735Y135516D01*
X17763Y135532D01*
X17778Y135550D01*
X17810Y135576D01*
X18925Y136690D01*
X23126Y138431D01*
X27674Y138431D01*
X31875Y136690D01*
X35090Y133475D01*
X35999Y131281D01*
X36061Y131181D01*
X36121Y131081D01*
X36126Y131077D01*
X36129Y131072D01*
X36219Y130997D01*
X36308Y130921D01*
X36314Y130919D01*
X36319Y130915D01*
X36427Y130873D01*
X36536Y130829D01*
X36544Y130828D01*
X36548Y130827D01*
X36566Y130826D01*
X36703Y130811D01*
X66686Y130811D01*
X66776Y130825D01*
X66867Y130833D01*
X66897Y130845D01*
X66929Y130850D01*
X67010Y130893D01*
X67094Y130929D01*
X67126Y130955D01*
X67146Y130966D01*
X67169Y130989D01*
X67224Y131034D01*
X76759Y140568D01*
X76800Y140626D01*
X76850Y140678D01*
X76872Y140725D01*
X76902Y140767D01*
X76923Y140836D01*
X76953Y140901D01*
X76959Y140953D01*
X76974Y141003D01*
X76973Y141074D01*
X76980Y141145D01*
X76969Y141196D01*
X76968Y141248D01*
X76943Y141316D01*
X76928Y141386D01*
X76902Y141431D01*
X76884Y141479D01*
X76839Y141535D01*
X76802Y141597D01*
X76762Y141631D01*
X76730Y141671D01*
X76670Y141710D01*
X76615Y141757D01*
X76567Y141776D01*
X76523Y141804D01*
X76454Y141822D01*
X76387Y141849D01*
X76316Y141857D01*
X76284Y141865D01*
X76261Y141863D01*
X76220Y141867D01*
X74105Y141867D01*
X70234Y143471D01*
X67271Y146434D01*
X65667Y150305D01*
X65667Y154495D01*
X67271Y158366D01*
X70234Y161329D01*
X74105Y162933D01*
X78295Y162933D01*
X82166Y161329D01*
X85129Y158366D01*
X85963Y156354D01*
X86000Y156293D01*
X86030Y156228D01*
X86065Y156189D01*
X86092Y156145D01*
X86147Y156099D01*
X86196Y156047D01*
X86242Y156021D01*
X86282Y155988D01*
X86349Y155963D01*
X86412Y155928D01*
X86463Y155919D01*
X86511Y155900D01*
X86583Y155897D01*
X86654Y155884D01*
X86705Y155892D01*
X86757Y155890D01*
X86826Y155910D01*
X86897Y155920D01*
X86943Y155944D01*
X86993Y155958D01*
X87052Y155999D01*
X87116Y156032D01*
X87153Y156069D01*
X87195Y156098D01*
X87238Y156156D01*
X87288Y156207D01*
X87323Y156270D01*
X87342Y156296D01*
X87349Y156318D01*
X87369Y156354D01*
X87519Y156717D01*
X89663Y158861D01*
X92464Y160021D01*
X95496Y160021D01*
X98297Y158861D01*
X100441Y156717D01*
X101601Y153916D01*
X101601Y150884D01*
X100441Y148083D01*
X98297Y145939D01*
X95496Y144779D01*
X92464Y144779D01*
X92428Y144794D01*
X92315Y144821D01*
X92201Y144849D01*
X92195Y144849D01*
X92189Y144850D01*
X92072Y144839D01*
X91956Y144830D01*
X91950Y144828D01*
X91944Y144827D01*
X91836Y144779D01*
X91729Y144734D01*
X91724Y144729D01*
X91719Y144727D01*
X91705Y144715D01*
X91598Y144629D01*
X72614Y125644D01*
X70158Y123189D01*
X36703Y123189D01*
X36588Y123170D01*
X36472Y123153D01*
X36466Y123151D01*
X36460Y123150D01*
X36357Y123095D01*
X36253Y123042D01*
X36248Y123037D01*
X36243Y123034D01*
X36163Y122950D01*
X36080Y122866D01*
X36077Y122860D01*
X36073Y122856D01*
X36065Y122839D01*
X35999Y122719D01*
X35090Y120525D01*
X31875Y117310D01*
X27674Y115569D01*
X23126Y115569D01*
X18925Y117310D01*
X17810Y118424D01*
X17752Y118466D01*
X17700Y118515D01*
X17653Y118537D01*
X17611Y118568D01*
X17542Y118589D01*
X17477Y118619D01*
X17425Y118625D01*
X17375Y118640D01*
X17304Y118638D01*
X17233Y118646D01*
X17182Y118635D01*
X17130Y118634D01*
X17062Y118609D01*
X16992Y118594D01*
X16947Y118567D01*
X16899Y118549D01*
X16843Y118504D01*
X16781Y118468D01*
X16747Y118428D01*
X16707Y118396D01*
X16668Y118335D01*
X16621Y118281D01*
X16602Y118233D01*
X16574Y118189D01*
X16556Y118119D01*
X16529Y118053D01*
X16521Y117981D01*
X16513Y117950D01*
X16515Y117927D01*
X16511Y117886D01*
X16511Y110714D01*
X16522Y110643D01*
X16524Y110572D01*
X16542Y110523D01*
X16550Y110471D01*
X16584Y110408D01*
X16609Y110341D01*
X16641Y110300D01*
X16666Y110254D01*
X16718Y110205D01*
X16762Y110149D01*
X16806Y110120D01*
X16844Y110085D01*
X16909Y110054D01*
X16969Y110016D01*
X17020Y110003D01*
X17067Y109981D01*
X17138Y109973D01*
X17208Y109955D01*
X17260Y109960D01*
X17311Y109954D01*
X17382Y109969D01*
X17453Y109975D01*
X17501Y109995D01*
X17552Y110006D01*
X17613Y110043D01*
X17679Y110071D01*
X17735Y110116D01*
X17763Y110132D01*
X17778Y110150D01*
X17810Y110176D01*
X18925Y111290D01*
X23126Y113031D01*
X27674Y113031D01*
X31875Y111290D01*
X35090Y108075D01*
X36831Y103874D01*
X36831Y99326D01*
X35090Y95125D01*
X31875Y91910D01*
X27674Y90169D01*
X23126Y90169D01*
X18925Y91910D01*
X17810Y93024D01*
X17752Y93066D01*
X17700Y93115D01*
X17653Y93137D01*
X17611Y93168D01*
X17542Y93189D01*
X17477Y93219D01*
X17425Y93225D01*
X17375Y93240D01*
X17304Y93238D01*
X17233Y93246D01*
X17182Y93235D01*
X17130Y93234D01*
X17062Y93209D01*
X16992Y93194D01*
X16947Y93167D01*
X16899Y93149D01*
X16843Y93104D01*
X16781Y93068D01*
X16747Y93028D01*
X16707Y92996D01*
X16668Y92935D01*
X16621Y92881D01*
X16602Y92833D01*
X16574Y92789D01*
X16556Y92719D01*
X16529Y92653D01*
X16521Y92581D01*
X16513Y92550D01*
X16515Y92527D01*
X16511Y92486D01*
X16511Y85314D01*
X16522Y85243D01*
X16524Y85172D01*
X16542Y85123D01*
X16550Y85071D01*
X16584Y85008D01*
X16609Y84941D01*
X16641Y84900D01*
X16666Y84854D01*
X16718Y84805D01*
X16762Y84749D01*
X16806Y84720D01*
X16844Y84685D01*
X16909Y84654D01*
X16969Y84616D01*
X17020Y84603D01*
X17067Y84581D01*
X17138Y84573D01*
X17208Y84555D01*
X17260Y84560D01*
X17311Y84554D01*
X17382Y84569D01*
X17453Y84575D01*
X17501Y84595D01*
X17552Y84606D01*
X17613Y84643D01*
X17679Y84671D01*
X17735Y84716D01*
X17763Y84732D01*
X17778Y84750D01*
X17810Y84776D01*
X18925Y85890D01*
X23126Y87631D01*
X27674Y87631D01*
X31875Y85890D01*
X35090Y82675D01*
X36831Y78474D01*
X36831Y73926D01*
X35090Y69725D01*
X31875Y66510D01*
X27674Y64769D01*
X23126Y64769D01*
X18925Y66510D01*
X17810Y67624D01*
X17752Y67666D01*
X17700Y67715D01*
X17653Y67737D01*
X17611Y67768D01*
X17542Y67789D01*
X17477Y67819D01*
X17425Y67825D01*
X17375Y67840D01*
X17304Y67838D01*
X17233Y67846D01*
X17182Y67835D01*
X17130Y67834D01*
X17062Y67809D01*
X16992Y67794D01*
X16947Y67767D01*
X16899Y67749D01*
X16843Y67704D01*
X16781Y67668D01*
X16747Y67628D01*
X16707Y67596D01*
X16668Y67535D01*
X16621Y67481D01*
X16602Y67433D01*
X16574Y67389D01*
X16556Y67319D01*
X16529Y67253D01*
X16521Y67181D01*
X16513Y67150D01*
X16515Y67127D01*
X16511Y67086D01*
X16511Y65394D01*
X16525Y65304D01*
X16533Y65213D01*
X16545Y65183D01*
X16550Y65151D01*
X16593Y65071D01*
X16629Y64986D01*
X16655Y64954D01*
X16666Y64934D01*
X16689Y64912D01*
X16734Y64856D01*
X20102Y61487D01*
X20197Y61419D01*
X20291Y61349D01*
X20297Y61347D01*
X20302Y61343D01*
X20413Y61309D01*
X20525Y61273D01*
X20531Y61273D01*
X20537Y61271D01*
X20654Y61274D01*
X20771Y61275D01*
X20778Y61277D01*
X20783Y61277D01*
X20800Y61284D01*
X20932Y61322D01*
X23126Y62231D01*
X27674Y62231D01*
X31875Y60490D01*
X35090Y57275D01*
X36831Y53074D01*
X36831Y48526D01*
X35090Y44325D01*
X31875Y41110D01*
X27674Y39369D01*
X23126Y39369D01*
X18925Y41110D01*
X15710Y44325D01*
X13969Y48526D01*
X13969Y53074D01*
X14878Y55268D01*
X14905Y55382D01*
X14933Y55495D01*
X14933Y55501D01*
X14934Y55508D01*
X14923Y55624D01*
X14914Y55740D01*
X14912Y55746D01*
X14911Y55752D01*
X14863Y55860D01*
X14818Y55967D01*
X14813Y55973D01*
X14811Y55977D01*
X14799Y55991D01*
X14713Y56098D01*
X12730Y58081D01*
X12672Y58122D01*
X12620Y58172D01*
X12573Y58194D01*
X12531Y58224D01*
X12462Y58245D01*
X12397Y58275D01*
X12345Y58281D01*
X12295Y58296D01*
X12224Y58295D01*
X12153Y58302D01*
X12102Y58291D01*
X12050Y58290D01*
X11982Y58265D01*
X11912Y58250D01*
X11868Y58224D01*
X11819Y58206D01*
X11763Y58161D01*
X11701Y58124D01*
X11667Y58084D01*
X11627Y58052D01*
X11588Y57992D01*
X11541Y57937D01*
X11522Y57889D01*
X11494Y57845D01*
X11476Y57776D01*
X11449Y57709D01*
X11441Y57638D01*
X11433Y57606D01*
X11435Y57583D01*
X11431Y57542D01*
X11431Y24754D01*
X11445Y24664D01*
X11453Y24573D01*
X11465Y24543D01*
X11470Y24511D01*
X11513Y24431D01*
X11549Y24346D01*
X11575Y24314D01*
X11586Y24294D01*
X11609Y24272D01*
X11654Y24216D01*
X12670Y23199D01*
X12728Y23158D01*
X12780Y23108D01*
X12827Y23086D01*
X12869Y23056D01*
X12938Y23035D01*
X13003Y23005D01*
X13055Y22999D01*
X13105Y22984D01*
X13176Y22985D01*
X13247Y22978D01*
X13298Y22989D01*
G37*
G36*
X307555Y168930D02*
X307555Y168930D01*
X307671Y168947D01*
X307676Y168949D01*
X307683Y168950D01*
X307785Y169005D01*
X307890Y169058D01*
X307894Y169063D01*
X307900Y169066D01*
X307980Y169150D01*
X308062Y169234D01*
X308066Y169240D01*
X308069Y169244D01*
X308077Y169261D01*
X308143Y169381D01*
X308783Y170925D01*
X310806Y172948D01*
X310818Y172964D01*
X310833Y172977D01*
X310889Y173064D01*
X310950Y173148D01*
X310956Y173167D01*
X310966Y173184D01*
X310992Y173284D01*
X311022Y173383D01*
X311022Y173403D01*
X311026Y173422D01*
X311018Y173525D01*
X311016Y173629D01*
X311009Y173648D01*
X311007Y173667D01*
X310967Y173762D01*
X310931Y173860D01*
X310919Y173875D01*
X310911Y173894D01*
X310806Y174025D01*
X308386Y176444D01*
X213202Y271629D01*
X213107Y271697D01*
X213013Y271767D01*
X213007Y271769D01*
X213002Y271773D01*
X212890Y271807D01*
X212779Y271843D01*
X212773Y271843D01*
X212767Y271845D01*
X212650Y271842D01*
X212533Y271841D01*
X212526Y271839D01*
X212521Y271839D01*
X212503Y271832D01*
X212372Y271794D01*
X212336Y271779D01*
X209304Y271779D01*
X206503Y272939D01*
X204359Y275083D01*
X203199Y277884D01*
X203199Y280916D01*
X204359Y283717D01*
X206503Y285861D01*
X209304Y287021D01*
X212336Y287021D01*
X215137Y285861D01*
X217281Y283717D01*
X218441Y280916D01*
X218441Y277884D01*
X218426Y277848D01*
X218418Y277814D01*
X218416Y277810D01*
X218415Y277803D01*
X218399Y277735D01*
X218371Y277621D01*
X218371Y277615D01*
X218370Y277609D01*
X218381Y277492D01*
X218390Y277376D01*
X218392Y277370D01*
X218393Y277364D01*
X218441Y277256D01*
X218486Y277149D01*
X218491Y277144D01*
X218493Y277139D01*
X218506Y277125D01*
X218591Y277018D01*
X305918Y189691D01*
X305976Y189650D01*
X306028Y189600D01*
X306075Y189578D01*
X306117Y189548D01*
X306186Y189527D01*
X306251Y189497D01*
X306303Y189491D01*
X306353Y189476D01*
X306424Y189477D01*
X306495Y189470D01*
X306546Y189481D01*
X306598Y189482D01*
X306666Y189507D01*
X306736Y189522D01*
X306780Y189548D01*
X306829Y189566D01*
X306885Y189611D01*
X306947Y189648D01*
X306981Y189688D01*
X307021Y189720D01*
X307060Y189780D01*
X307107Y189835D01*
X307126Y189883D01*
X307154Y189927D01*
X307172Y189996D01*
X307199Y190063D01*
X307207Y190134D01*
X307215Y190166D01*
X307213Y190189D01*
X307217Y190230D01*
X307217Y192545D01*
X308783Y196325D01*
X311675Y199217D01*
X315455Y200783D01*
X329698Y200783D01*
X329788Y200797D01*
X329879Y200805D01*
X329909Y200817D01*
X329941Y200822D01*
X330021Y200865D01*
X330106Y200901D01*
X330138Y200927D01*
X330158Y200938D01*
X330180Y200961D01*
X330236Y201006D01*
X333549Y204318D01*
X333590Y204376D01*
X333640Y204428D01*
X333662Y204475D01*
X333692Y204517D01*
X333713Y204586D01*
X333743Y204651D01*
X333749Y204703D01*
X333764Y204753D01*
X333763Y204824D01*
X333770Y204895D01*
X333759Y204946D01*
X333758Y204998D01*
X333733Y205066D01*
X333718Y205136D01*
X333692Y205181D01*
X333674Y205229D01*
X333629Y205285D01*
X333592Y205347D01*
X333552Y205381D01*
X333520Y205421D01*
X333460Y205460D01*
X333405Y205507D01*
X333357Y205526D01*
X333313Y205554D01*
X333244Y205572D01*
X333177Y205599D01*
X333106Y205607D01*
X333074Y205615D01*
X333051Y205613D01*
X333010Y205617D01*
X315455Y205617D01*
X311675Y207183D01*
X308783Y210075D01*
X307217Y213855D01*
X307217Y217945D01*
X308783Y221725D01*
X311675Y224617D01*
X315455Y226183D01*
X329698Y226183D01*
X329788Y226197D01*
X329879Y226205D01*
X329909Y226217D01*
X329941Y226222D01*
X330022Y226265D01*
X330106Y226301D01*
X330138Y226327D01*
X330158Y226338D01*
X330181Y226361D01*
X330237Y226406D01*
X333549Y229718D01*
X333590Y229776D01*
X333640Y229828D01*
X333662Y229875D01*
X333692Y229917D01*
X333713Y229986D01*
X333743Y230051D01*
X333749Y230103D01*
X333764Y230153D01*
X333763Y230224D01*
X333770Y230295D01*
X333759Y230346D01*
X333758Y230398D01*
X333733Y230466D01*
X333718Y230536D01*
X333692Y230580D01*
X333674Y230629D01*
X333629Y230685D01*
X333592Y230747D01*
X333552Y230781D01*
X333520Y230821D01*
X333460Y230860D01*
X333405Y230907D01*
X333357Y230926D01*
X333313Y230954D01*
X333244Y230972D01*
X333177Y230999D01*
X333106Y231007D01*
X333074Y231015D01*
X333051Y231013D01*
X333010Y231017D01*
X315455Y231017D01*
X311675Y232583D01*
X308783Y235475D01*
X307217Y239255D01*
X307217Y243345D01*
X308783Y247125D01*
X311675Y250017D01*
X315455Y251583D01*
X336045Y251583D01*
X339825Y250017D01*
X342734Y247108D01*
X342756Y247072D01*
X342802Y246986D01*
X342820Y246968D01*
X342834Y246946D01*
X342909Y246884D01*
X342980Y246817D01*
X343004Y246806D01*
X343024Y246789D01*
X343115Y246754D01*
X343203Y246713D01*
X343229Y246710D01*
X343253Y246701D01*
X343351Y246697D01*
X343447Y246686D01*
X343473Y246692D01*
X343499Y246691D01*
X343592Y246718D01*
X343688Y246738D01*
X343710Y246752D01*
X343735Y246759D01*
X343815Y246815D01*
X343899Y246865D01*
X343916Y246884D01*
X343937Y246899D01*
X343995Y246977D01*
X344059Y247051D01*
X344069Y247076D01*
X344084Y247097D01*
X344114Y247189D01*
X344151Y247280D01*
X344154Y247312D01*
X344160Y247330D01*
X344160Y247363D01*
X344169Y247446D01*
X344169Y259996D01*
X344168Y260004D01*
X344169Y260011D01*
X344148Y260125D01*
X344130Y260238D01*
X344126Y260245D01*
X344124Y260253D01*
X344068Y260354D01*
X344014Y260456D01*
X344009Y260461D01*
X344005Y260468D01*
X343919Y260546D01*
X343836Y260625D01*
X343829Y260629D01*
X343823Y260634D01*
X343717Y260680D01*
X343613Y260729D01*
X343605Y260730D01*
X343598Y260733D01*
X343483Y260743D01*
X343369Y260756D01*
X343361Y260754D01*
X343353Y260755D01*
X343241Y260728D01*
X343128Y260704D01*
X343121Y260699D01*
X343114Y260698D01*
X343016Y260636D01*
X342917Y260577D01*
X342912Y260571D01*
X342905Y260567D01*
X342792Y260443D01*
X342231Y259670D01*
X341030Y258469D01*
X339655Y257471D01*
X338142Y256700D01*
X336527Y256175D01*
X334849Y255909D01*
X319023Y255909D01*
X319023Y265938D01*
X319020Y265958D01*
X319022Y265977D01*
X319000Y266079D01*
X318983Y266181D01*
X318974Y266198D01*
X318970Y266218D01*
X318917Y266307D01*
X318868Y266398D01*
X318854Y266412D01*
X318844Y266429D01*
X318765Y266496D01*
X318690Y266567D01*
X318672Y266576D01*
X318657Y266589D01*
X318561Y266627D01*
X318467Y266671D01*
X318447Y266673D01*
X318429Y266681D01*
X318262Y266699D01*
X317499Y266699D01*
X317499Y266701D01*
X318262Y266701D01*
X318282Y266704D01*
X318301Y266702D01*
X318403Y266724D01*
X318505Y266741D01*
X318522Y266750D01*
X318542Y266754D01*
X318631Y266807D01*
X318722Y266856D01*
X318736Y266870D01*
X318753Y266880D01*
X318820Y266959D01*
X318891Y267034D01*
X318900Y267052D01*
X318913Y267067D01*
X318952Y267163D01*
X318995Y267257D01*
X318997Y267277D01*
X319005Y267295D01*
X319023Y267462D01*
X319023Y277491D01*
X334849Y277491D01*
X336527Y277225D01*
X338142Y276700D01*
X339655Y275929D01*
X341030Y274931D01*
X342231Y273730D01*
X342792Y272957D01*
X342798Y272951D01*
X342802Y272944D01*
X342885Y272865D01*
X342967Y272784D01*
X342974Y272780D01*
X342980Y272775D01*
X343084Y272726D01*
X343188Y272676D01*
X343196Y272675D01*
X343203Y272671D01*
X343317Y272659D01*
X343432Y272643D01*
X343440Y272645D01*
X343447Y272644D01*
X343560Y272669D01*
X343673Y272691D01*
X343680Y272695D01*
X343688Y272696D01*
X343786Y272755D01*
X343887Y272813D01*
X343892Y272819D01*
X343899Y272823D01*
X343974Y272910D01*
X344051Y272996D01*
X344054Y273003D01*
X344059Y273009D01*
X344102Y273117D01*
X344147Y273222D01*
X344148Y273230D01*
X344151Y273238D01*
X344169Y273404D01*
X344169Y285954D01*
X344154Y286050D01*
X344144Y286147D01*
X344134Y286171D01*
X344130Y286196D01*
X344084Y286283D01*
X344044Y286372D01*
X344027Y286391D01*
X344014Y286414D01*
X343944Y286481D01*
X343878Y286553D01*
X343855Y286565D01*
X343836Y286583D01*
X343748Y286624D01*
X343662Y286671D01*
X343637Y286676D01*
X343613Y286687D01*
X343516Y286698D01*
X343420Y286715D01*
X343394Y286711D01*
X343369Y286714D01*
X343273Y286693D01*
X343177Y286679D01*
X343154Y286667D01*
X343128Y286662D01*
X343044Y286612D01*
X342958Y286567D01*
X342939Y286549D01*
X342917Y286535D01*
X342854Y286461D01*
X342785Y286392D01*
X342770Y286363D01*
X342757Y286349D01*
X342745Y286318D01*
X342726Y286284D01*
X339825Y283383D01*
X336045Y281817D01*
X315455Y281817D01*
X311675Y283383D01*
X308783Y286275D01*
X307757Y288752D01*
X307722Y288808D01*
X307697Y288868D01*
X307645Y288933D01*
X307627Y288961D01*
X307612Y288974D01*
X307592Y288999D01*
X290720Y305871D01*
X290682Y305898D01*
X290651Y305932D01*
X290583Y305969D01*
X290520Y306015D01*
X290476Y306028D01*
X290436Y306050D01*
X290359Y306064D01*
X290285Y306087D01*
X290239Y306086D01*
X290194Y306094D01*
X290117Y306083D01*
X290039Y306081D01*
X289996Y306065D01*
X289950Y306058D01*
X289881Y306023D01*
X289808Y305996D01*
X289772Y305968D01*
X289731Y305947D01*
X289677Y305891D01*
X289616Y305843D01*
X289591Y305804D01*
X289559Y305771D01*
X289493Y305651D01*
X289483Y305636D01*
X289482Y305631D01*
X289478Y305624D01*
X288401Y303023D01*
X286257Y300879D01*
X283456Y299719D01*
X280424Y299719D01*
X277623Y300879D01*
X275479Y303023D01*
X275465Y303059D01*
X275403Y303158D01*
X275343Y303259D01*
X275338Y303263D01*
X275335Y303268D01*
X275245Y303342D01*
X275156Y303419D01*
X275150Y303421D01*
X275145Y303425D01*
X275038Y303467D01*
X274928Y303511D01*
X274920Y303512D01*
X274916Y303513D01*
X274898Y303514D01*
X274761Y303529D01*
X166062Y303529D01*
X163606Y305984D01*
X163606Y305985D01*
X159862Y309729D01*
X159767Y309797D01*
X159673Y309867D01*
X159667Y309869D01*
X159662Y309873D01*
X159550Y309907D01*
X159439Y309943D01*
X159433Y309943D01*
X159427Y309945D01*
X159309Y309942D01*
X159193Y309941D01*
X159186Y309939D01*
X159181Y309939D01*
X159163Y309932D01*
X159032Y309894D01*
X158996Y309879D01*
X155964Y309879D01*
X153163Y311039D01*
X151019Y313183D01*
X150734Y313872D01*
X150696Y313933D01*
X150667Y313999D01*
X150632Y314037D01*
X150604Y314082D01*
X150549Y314127D01*
X150501Y314180D01*
X150455Y314205D01*
X150415Y314238D01*
X150348Y314264D01*
X150285Y314299D01*
X150234Y314308D01*
X150185Y314327D01*
X150114Y314330D01*
X150043Y314342D01*
X149992Y314335D01*
X149940Y314337D01*
X149871Y314317D01*
X149800Y314307D01*
X149753Y314283D01*
X149703Y314268D01*
X149644Y314228D01*
X149580Y314195D01*
X149544Y314158D01*
X149501Y314128D01*
X149458Y314071D01*
X149408Y314019D01*
X149374Y313957D01*
X149354Y313931D01*
X149347Y313909D01*
X149327Y313872D01*
X148417Y311675D01*
X146394Y309652D01*
X146382Y309636D01*
X146367Y309623D01*
X146311Y309536D01*
X146250Y309452D01*
X146244Y309433D01*
X146234Y309416D01*
X146208Y309316D01*
X146178Y309217D01*
X146178Y309197D01*
X146174Y309178D01*
X146182Y309075D01*
X146184Y308971D01*
X146191Y308952D01*
X146193Y308933D01*
X146233Y308838D01*
X146269Y308740D01*
X146281Y308725D01*
X146289Y308706D01*
X146394Y308575D01*
X148814Y306156D01*
X252731Y202238D01*
X252731Y197679D01*
X252750Y197564D01*
X252767Y197448D01*
X252769Y197442D01*
X252770Y197436D01*
X252825Y197333D01*
X252878Y197229D01*
X252883Y197224D01*
X252886Y197219D01*
X252920Y197186D01*
X252922Y197183D01*
X252934Y197173D01*
X252970Y197138D01*
X253054Y197056D01*
X253060Y197053D01*
X253064Y197049D01*
X253081Y197041D01*
X253099Y197031D01*
X253109Y197023D01*
X253129Y197015D01*
X253201Y196975D01*
X253237Y196961D01*
X255381Y194817D01*
X256541Y192016D01*
X256541Y188984D01*
X255381Y186183D01*
X253237Y184039D01*
X250436Y182879D01*
X248528Y182879D01*
X248457Y182868D01*
X248385Y182866D01*
X248336Y182848D01*
X248285Y182840D01*
X248222Y182806D01*
X248154Y182781D01*
X248114Y182749D01*
X248068Y182724D01*
X248018Y182672D01*
X247962Y182628D01*
X247934Y182584D01*
X247898Y182546D01*
X247868Y182481D01*
X247829Y182421D01*
X247817Y182370D01*
X247795Y182323D01*
X247787Y182252D01*
X247769Y182182D01*
X247773Y182130D01*
X247768Y182079D01*
X247783Y182008D01*
X247788Y181937D01*
X247809Y181889D01*
X247820Y181838D01*
X247857Y181777D01*
X247885Y181711D01*
X247929Y181655D01*
X247946Y181627D01*
X247964Y181612D01*
X247989Y181580D01*
X260436Y169134D01*
X260509Y169081D01*
X260579Y169021D01*
X260609Y169009D01*
X260635Y168990D01*
X260722Y168963D01*
X260807Y168929D01*
X260848Y168925D01*
X260870Y168918D01*
X260903Y168919D01*
X260974Y168911D01*
X307440Y168911D01*
X307555Y168930D01*
G37*
%LPC*%
G36*
X251955Y558917D02*
X251955Y558917D01*
X248175Y560483D01*
X245283Y563375D01*
X243717Y567155D01*
X243717Y587745D01*
X245283Y591525D01*
X248175Y594417D01*
X251955Y595983D01*
X256045Y595983D01*
X259825Y594417D01*
X262717Y591525D01*
X264283Y587745D01*
X264283Y567155D01*
X262717Y563375D01*
X259825Y560483D01*
X256045Y558917D01*
X251955Y558917D01*
G37*
%LPD*%
%LPC*%
G36*
X201155Y558917D02*
X201155Y558917D01*
X197375Y560483D01*
X194483Y563375D01*
X192917Y567155D01*
X192917Y587745D01*
X194483Y591525D01*
X197375Y594417D01*
X201155Y595983D01*
X205245Y595983D01*
X209025Y594417D01*
X211917Y591525D01*
X213483Y587745D01*
X213483Y567155D01*
X211917Y563375D01*
X209025Y560483D01*
X205245Y558917D01*
X201155Y558917D01*
G37*
%LPD*%
%LPC*%
G36*
X121155Y561217D02*
X121155Y561217D01*
X117375Y562783D01*
X114483Y565675D01*
X112917Y569455D01*
X112917Y573545D01*
X114483Y577325D01*
X117375Y580217D01*
X121155Y581783D01*
X141745Y581783D01*
X145525Y580217D01*
X148417Y577325D01*
X149983Y573545D01*
X149983Y569455D01*
X148417Y565675D01*
X145525Y562783D01*
X141745Y561217D01*
X121155Y561217D01*
G37*
%LPD*%
%LPC*%
G36*
X121155Y154817D02*
X121155Y154817D01*
X117375Y156383D01*
X114483Y159275D01*
X112917Y163055D01*
X112917Y167145D01*
X114483Y170925D01*
X117375Y173817D01*
X121155Y175383D01*
X141745Y175383D01*
X145525Y173817D01*
X148417Y170925D01*
X149983Y167145D01*
X149983Y163055D01*
X148417Y159275D01*
X145525Y156383D01*
X141745Y154817D01*
X121155Y154817D01*
G37*
%LPD*%
%LPC*%
G36*
X121155Y535817D02*
X121155Y535817D01*
X117375Y537383D01*
X114483Y540275D01*
X112917Y544055D01*
X112917Y548145D01*
X114483Y551925D01*
X117375Y554817D01*
X121155Y556383D01*
X141745Y556383D01*
X145525Y554817D01*
X148417Y551925D01*
X149983Y548145D01*
X149983Y544055D01*
X148417Y540275D01*
X145525Y537383D01*
X141745Y535817D01*
X121155Y535817D01*
G37*
%LPD*%
%LPC*%
G36*
X315455Y535817D02*
X315455Y535817D01*
X311675Y537383D01*
X308783Y540275D01*
X307217Y544055D01*
X307217Y548145D01*
X308783Y551925D01*
X311675Y554817D01*
X315455Y556383D01*
X336045Y556383D01*
X339825Y554817D01*
X342717Y551925D01*
X344283Y548145D01*
X344283Y544055D01*
X342717Y540275D01*
X339825Y537383D01*
X336045Y535817D01*
X315455Y535817D01*
G37*
%LPD*%
%LPC*%
G36*
X121155Y180217D02*
X121155Y180217D01*
X117375Y181783D01*
X114483Y184675D01*
X112917Y188455D01*
X112917Y192545D01*
X114483Y196325D01*
X117375Y199217D01*
X121155Y200783D01*
X141745Y200783D01*
X145525Y199217D01*
X148417Y196325D01*
X149983Y192545D01*
X149983Y188455D01*
X148417Y184675D01*
X145525Y181783D01*
X141745Y180217D01*
X121155Y180217D01*
G37*
%LPD*%
%LPC*%
G36*
X121155Y205617D02*
X121155Y205617D01*
X117375Y207183D01*
X114483Y210075D01*
X112917Y213855D01*
X112917Y217945D01*
X114483Y221725D01*
X117375Y224617D01*
X121155Y226183D01*
X141745Y226183D01*
X145525Y224617D01*
X148417Y221725D01*
X149983Y217945D01*
X149983Y213855D01*
X148417Y210075D01*
X145525Y207183D01*
X141745Y205617D01*
X121155Y205617D01*
G37*
%LPD*%
%LPC*%
G36*
X121155Y231017D02*
X121155Y231017D01*
X117375Y232583D01*
X114483Y235475D01*
X112917Y239255D01*
X112917Y243345D01*
X114483Y247125D01*
X117375Y250017D01*
X121155Y251583D01*
X141745Y251583D01*
X145525Y250017D01*
X148417Y247125D01*
X149983Y243345D01*
X149983Y239255D01*
X148417Y235475D01*
X145525Y232583D01*
X141745Y231017D01*
X121155Y231017D01*
G37*
%LPD*%
%LPC*%
G36*
X121155Y332617D02*
X121155Y332617D01*
X117375Y334183D01*
X114483Y337075D01*
X112917Y340855D01*
X112917Y344945D01*
X114483Y348725D01*
X117375Y351617D01*
X121155Y353183D01*
X141745Y353183D01*
X145525Y351617D01*
X148417Y348725D01*
X149983Y344945D01*
X149983Y340855D01*
X148417Y337075D01*
X145525Y334183D01*
X141745Y332617D01*
X121155Y332617D01*
G37*
%LPD*%
%LPC*%
G36*
X315455Y485017D02*
X315455Y485017D01*
X311675Y486583D01*
X308783Y489475D01*
X307217Y493255D01*
X307217Y497345D01*
X308783Y501125D01*
X311675Y504017D01*
X315455Y505583D01*
X336045Y505583D01*
X339825Y504017D01*
X342717Y501125D01*
X344283Y497345D01*
X344283Y493255D01*
X342717Y489475D01*
X339825Y486583D01*
X336045Y485017D01*
X315455Y485017D01*
G37*
%LPD*%
%LPC*%
G36*
X315455Y459617D02*
X315455Y459617D01*
X311675Y461183D01*
X308783Y464075D01*
X307217Y467855D01*
X307217Y471945D01*
X308783Y475725D01*
X311675Y478617D01*
X315455Y480183D01*
X336045Y480183D01*
X339825Y478617D01*
X342717Y475725D01*
X344283Y471945D01*
X344283Y467855D01*
X342717Y464075D01*
X339825Y461183D01*
X336045Y459617D01*
X315455Y459617D01*
G37*
%LPD*%
%LPC*%
G36*
X315455Y434217D02*
X315455Y434217D01*
X311675Y435783D01*
X308783Y438675D01*
X307217Y442455D01*
X307217Y446545D01*
X308783Y450325D01*
X311675Y453217D01*
X315455Y454783D01*
X336045Y454783D01*
X339825Y453217D01*
X342717Y450325D01*
X344283Y446545D01*
X344283Y442455D01*
X342717Y438675D01*
X339825Y435783D01*
X336045Y434217D01*
X315455Y434217D01*
G37*
%LPD*%
%LPC*%
G36*
X315455Y408817D02*
X315455Y408817D01*
X311675Y410383D01*
X308783Y413275D01*
X307217Y417055D01*
X307217Y421145D01*
X308783Y424925D01*
X311675Y427817D01*
X315455Y429383D01*
X336045Y429383D01*
X339825Y427817D01*
X342717Y424925D01*
X344283Y421145D01*
X344283Y417055D01*
X342717Y413275D01*
X339825Y410383D01*
X336045Y408817D01*
X315455Y408817D01*
G37*
%LPD*%
%LPC*%
G36*
X121155Y358017D02*
X121155Y358017D01*
X117375Y359583D01*
X114483Y362475D01*
X112917Y366255D01*
X112917Y370345D01*
X114483Y374125D01*
X117375Y377017D01*
X121155Y378583D01*
X141745Y378583D01*
X145525Y377017D01*
X148417Y374125D01*
X149983Y370345D01*
X149983Y366255D01*
X148417Y362475D01*
X145525Y359583D01*
X141745Y358017D01*
X121155Y358017D01*
G37*
%LPD*%
%LPC*%
G36*
X315455Y104017D02*
X315455Y104017D01*
X311675Y105583D01*
X308783Y108475D01*
X307217Y112255D01*
X307217Y116345D01*
X308783Y120125D01*
X311675Y123017D01*
X315455Y124583D01*
X336045Y124583D01*
X339825Y123017D01*
X342717Y120125D01*
X344283Y116345D01*
X344283Y112255D01*
X342717Y108475D01*
X339825Y105583D01*
X336045Y104017D01*
X315455Y104017D01*
G37*
%LPD*%
%LPC*%
G36*
X121155Y104017D02*
X121155Y104017D01*
X117375Y105583D01*
X114483Y108475D01*
X112917Y112255D01*
X112917Y116345D01*
X114483Y120125D01*
X117375Y123017D01*
X121155Y124583D01*
X141745Y124583D01*
X145525Y123017D01*
X148417Y120125D01*
X149983Y116345D01*
X149983Y112255D01*
X148417Y108475D01*
X145525Y105583D01*
X141745Y104017D01*
X121155Y104017D01*
G37*
%LPD*%
%LPC*%
G36*
X121155Y78617D02*
X121155Y78617D01*
X117375Y80183D01*
X114483Y83075D01*
X112917Y86855D01*
X112917Y90945D01*
X114483Y94725D01*
X117375Y97617D01*
X121155Y99183D01*
X141745Y99183D01*
X145525Y97617D01*
X148417Y94725D01*
X149983Y90945D01*
X149983Y86855D01*
X148417Y83075D01*
X145525Y80183D01*
X141745Y78617D01*
X121155Y78617D01*
G37*
%LPD*%
%LPC*%
G36*
X74105Y65667D02*
X74105Y65667D01*
X70234Y67271D01*
X67271Y70234D01*
X65667Y74105D01*
X65667Y78295D01*
X67271Y82166D01*
X70234Y85129D01*
X74105Y86733D01*
X78295Y86733D01*
X82166Y85129D01*
X85129Y82166D01*
X86733Y78295D01*
X86733Y74105D01*
X85129Y70234D01*
X82166Y67271D01*
X78295Y65667D01*
X74105Y65667D01*
G37*
%LPD*%
%LPC*%
G36*
X230123Y570723D02*
X230123Y570723D01*
X230123Y596384D01*
X231127Y596225D01*
X232742Y595700D01*
X234255Y594929D01*
X235630Y593931D01*
X236831Y592730D01*
X237829Y591355D01*
X238600Y589842D01*
X239125Y588227D01*
X239391Y586549D01*
X239391Y570723D01*
X230123Y570723D01*
G37*
%LPD*%
%LPC*%
G36*
X319023Y522223D02*
X319023Y522223D01*
X319023Y531491D01*
X334849Y531491D01*
X336527Y531225D01*
X338142Y530700D01*
X339655Y529929D01*
X341030Y528931D01*
X342231Y527730D01*
X343229Y526355D01*
X344000Y524842D01*
X344525Y523227D01*
X344684Y522223D01*
X319023Y522223D01*
G37*
%LPD*%
%LPC*%
G36*
X319023Y395223D02*
X319023Y395223D01*
X319023Y404491D01*
X334849Y404491D01*
X336527Y404225D01*
X338142Y403700D01*
X339655Y402929D01*
X341030Y401931D01*
X342231Y400730D01*
X343229Y399355D01*
X344000Y397842D01*
X344525Y396227D01*
X344684Y395223D01*
X319023Y395223D01*
G37*
%LPD*%
%LPC*%
G36*
X112516Y522223D02*
X112516Y522223D01*
X112675Y523227D01*
X113200Y524842D01*
X113971Y526355D01*
X114969Y527730D01*
X116170Y528931D01*
X117545Y529929D01*
X119058Y530700D01*
X120673Y531225D01*
X122351Y531491D01*
X138177Y531491D01*
X138177Y522223D01*
X112516Y522223D01*
G37*
%LPD*%
%LPC*%
G36*
X112516Y141223D02*
X112516Y141223D01*
X112675Y142227D01*
X113200Y143842D01*
X113971Y145355D01*
X114969Y146730D01*
X116170Y147931D01*
X117545Y148929D01*
X119058Y149700D01*
X120673Y150225D01*
X122351Y150491D01*
X138177Y150491D01*
X138177Y141223D01*
X112516Y141223D01*
G37*
%LPD*%
%LPC*%
G36*
X217809Y570723D02*
X217809Y570723D01*
X217809Y586549D01*
X218075Y588227D01*
X218600Y589842D01*
X219371Y591355D01*
X220369Y592730D01*
X221570Y593931D01*
X222945Y594929D01*
X224458Y595700D01*
X226073Y596225D01*
X227077Y596384D01*
X227077Y570723D01*
X217809Y570723D01*
G37*
%LPD*%
%LPC*%
G36*
X319023Y509909D02*
X319023Y509909D01*
X319023Y519177D01*
X344684Y519177D01*
X344525Y518173D01*
X344000Y516558D01*
X343229Y515045D01*
X342231Y513670D01*
X341030Y512469D01*
X339655Y511471D01*
X338142Y510700D01*
X336527Y510175D01*
X334849Y509909D01*
X319023Y509909D01*
G37*
%LPD*%
%LPC*%
G36*
X319023Y128909D02*
X319023Y128909D01*
X319023Y138177D01*
X344684Y138177D01*
X344525Y137173D01*
X344000Y135558D01*
X343229Y134045D01*
X342231Y132670D01*
X341030Y131469D01*
X339655Y130471D01*
X338142Y129700D01*
X336527Y129175D01*
X334849Y128909D01*
X319023Y128909D01*
G37*
%LPD*%
%LPC*%
G36*
X122351Y382909D02*
X122351Y382909D01*
X120673Y383175D01*
X119058Y383700D01*
X117545Y384471D01*
X116170Y385469D01*
X114969Y386670D01*
X113971Y388045D01*
X113200Y389558D01*
X112675Y391173D01*
X112516Y392177D01*
X138177Y392177D01*
X138177Y382909D01*
X122351Y382909D01*
G37*
%LPD*%
%LPC*%
G36*
X122351Y128909D02*
X122351Y128909D01*
X120673Y129175D01*
X119058Y129700D01*
X117545Y130471D01*
X116170Y131469D01*
X114969Y132670D01*
X113971Y134045D01*
X113200Y135558D01*
X112675Y137173D01*
X112516Y138177D01*
X138177Y138177D01*
X138177Y128909D01*
X122351Y128909D01*
G37*
%LPD*%
%LPC*%
G36*
X26923Y306323D02*
X26923Y306323D01*
X26923Y316646D01*
X28196Y316445D01*
X29983Y315864D01*
X31657Y315011D01*
X33178Y313906D01*
X34506Y312578D01*
X35611Y311057D01*
X36464Y309383D01*
X37045Y307596D01*
X37246Y306323D01*
X26923Y306323D01*
G37*
%LPD*%
%LPC*%
G36*
X128523Y39623D02*
X128523Y39623D01*
X128523Y49946D01*
X129796Y49745D01*
X131583Y49164D01*
X133257Y48311D01*
X134778Y47206D01*
X136106Y45878D01*
X137211Y44357D01*
X138064Y42683D01*
X138645Y40896D01*
X138846Y39623D01*
X128523Y39623D01*
G37*
%LPD*%
%LPC*%
G36*
X26923Y303277D02*
X26923Y303277D01*
X37246Y303277D01*
X37045Y302004D01*
X36464Y300217D01*
X35611Y298543D01*
X34506Y297022D01*
X33178Y295694D01*
X31657Y294589D01*
X29983Y293736D01*
X28196Y293155D01*
X26923Y292954D01*
X26923Y303277D01*
G37*
%LPD*%
%LPC*%
G36*
X115154Y39623D02*
X115154Y39623D01*
X115355Y40896D01*
X115936Y42683D01*
X116789Y44357D01*
X117894Y45878D01*
X119222Y47206D01*
X120743Y48311D01*
X122417Y49164D01*
X124204Y49745D01*
X125477Y49946D01*
X125477Y39623D01*
X115154Y39623D01*
G37*
%LPD*%
%LPC*%
G36*
X141223Y522223D02*
X141223Y522223D01*
X141223Y531384D01*
X142227Y531225D01*
X143842Y530700D01*
X145355Y529929D01*
X146730Y528931D01*
X147931Y527730D01*
X148929Y526355D01*
X149700Y524842D01*
X150225Y523227D01*
X150384Y522223D01*
X141223Y522223D01*
G37*
%LPD*%
%LPC*%
G36*
X141223Y141223D02*
X141223Y141223D01*
X141223Y150384D01*
X142227Y150225D01*
X143842Y149700D01*
X145355Y148929D01*
X146730Y147931D01*
X147931Y146730D01*
X148929Y145355D01*
X149700Y143842D01*
X150225Y142227D01*
X150384Y141223D01*
X141223Y141223D01*
G37*
%LPD*%
%LPC*%
G36*
X306816Y268223D02*
X306816Y268223D01*
X306975Y269227D01*
X307500Y270842D01*
X308271Y272355D01*
X309269Y273730D01*
X310470Y274931D01*
X311845Y275929D01*
X313358Y276700D01*
X314973Y277225D01*
X315977Y277384D01*
X315977Y268223D01*
X306816Y268223D01*
G37*
%LPD*%
%LPC*%
G36*
X306816Y522223D02*
X306816Y522223D01*
X306975Y523227D01*
X307500Y524842D01*
X308271Y526355D01*
X309269Y527730D01*
X310470Y528931D01*
X311845Y529929D01*
X313358Y530700D01*
X314973Y531225D01*
X315977Y531384D01*
X315977Y522223D01*
X306816Y522223D01*
G37*
%LPD*%
%LPC*%
G36*
X230123Y567677D02*
X230123Y567677D01*
X239284Y567677D01*
X239125Y566673D01*
X238600Y565058D01*
X237829Y563545D01*
X236831Y562170D01*
X235630Y560969D01*
X234255Y559971D01*
X232742Y559200D01*
X231127Y558675D01*
X230123Y558516D01*
X230123Y567677D01*
G37*
%LPD*%
%LPC*%
G36*
X141223Y392177D02*
X141223Y392177D01*
X150384Y392177D01*
X150225Y391173D01*
X149700Y389558D01*
X148929Y388045D01*
X147931Y386670D01*
X146730Y385469D01*
X145355Y384471D01*
X143842Y383700D01*
X142227Y383175D01*
X141223Y383016D01*
X141223Y392177D01*
G37*
%LPD*%
%LPC*%
G36*
X141223Y138177D02*
X141223Y138177D01*
X150384Y138177D01*
X150225Y137173D01*
X149700Y135558D01*
X148929Y134045D01*
X147931Y132670D01*
X146730Y131469D01*
X145355Y130471D01*
X143842Y129700D01*
X142227Y129175D01*
X141223Y129016D01*
X141223Y138177D01*
G37*
%LPD*%
%LPC*%
G36*
X306816Y395223D02*
X306816Y395223D01*
X306975Y396227D01*
X307500Y397842D01*
X308271Y399355D01*
X309269Y400730D01*
X310470Y401931D01*
X311845Y402929D01*
X313358Y403700D01*
X314973Y404225D01*
X315977Y404384D01*
X315977Y395223D01*
X306816Y395223D01*
G37*
%LPD*%
%LPC*%
G36*
X314973Y256175D02*
X314973Y256175D01*
X313358Y256700D01*
X311845Y257471D01*
X310470Y258469D01*
X309269Y259670D01*
X308271Y261045D01*
X307500Y262558D01*
X306975Y264173D01*
X306816Y265177D01*
X315977Y265177D01*
X315977Y256016D01*
X314973Y256175D01*
G37*
%LPD*%
%LPC*%
G36*
X226073Y558675D02*
X226073Y558675D01*
X224458Y559200D01*
X222945Y559971D01*
X221570Y560969D01*
X220369Y562170D01*
X219371Y563545D01*
X218600Y565058D01*
X218075Y566673D01*
X217916Y567677D01*
X227077Y567677D01*
X227077Y558516D01*
X226073Y558675D01*
G37*
%LPD*%
%LPC*%
G36*
X314973Y129175D02*
X314973Y129175D01*
X313358Y129700D01*
X311845Y130471D01*
X310470Y131469D01*
X309269Y132670D01*
X308271Y134045D01*
X307500Y135558D01*
X306975Y137173D01*
X306816Y138177D01*
X315977Y138177D01*
X315977Y129016D01*
X314973Y129175D01*
G37*
%LPD*%
%LPC*%
G36*
X314973Y510175D02*
X314973Y510175D01*
X313358Y510700D01*
X311845Y511471D01*
X310470Y512469D01*
X309269Y513670D01*
X308271Y515045D01*
X307500Y516558D01*
X306975Y518173D01*
X306816Y519177D01*
X315977Y519177D01*
X315977Y510016D01*
X314973Y510175D01*
G37*
%LPD*%
%LPC*%
G36*
X228599Y569199D02*
X228599Y569199D01*
X228599Y569201D01*
X228601Y569201D01*
X228601Y569199D01*
X228599Y569199D01*
G37*
%LPD*%
%LPC*%
G36*
X139699Y139699D02*
X139699Y139699D01*
X139699Y139701D01*
X139701Y139701D01*
X139701Y139699D01*
X139699Y139699D01*
G37*
%LPD*%
%LPC*%
G36*
X317499Y520699D02*
X317499Y520699D01*
X317499Y520701D01*
X317501Y520701D01*
X317501Y520699D01*
X317499Y520699D01*
G37*
%LPD*%
D10*
X76200Y152400D03*
X76200Y76200D03*
D11*
X101600Y38100D03*
X127000Y38100D03*
X25400Y584200D03*
X25400Y558800D03*
X25400Y533400D03*
X25400Y508000D03*
X25400Y482600D03*
X25400Y457200D03*
X25400Y431800D03*
X25400Y406400D03*
X25400Y381000D03*
X25400Y355600D03*
X25400Y330200D03*
X25400Y304800D03*
X25400Y279400D03*
X25400Y254000D03*
X25400Y228600D03*
X25400Y203200D03*
X25400Y177800D03*
X25400Y152400D03*
X25400Y127000D03*
X25400Y101600D03*
X25400Y76200D03*
X25400Y50800D03*
X25400Y25400D03*
D12*
X317500Y88900D02*
X334000Y88900D01*
X334000Y114300D02*
X317500Y114300D01*
X317500Y139700D02*
X334000Y139700D01*
X334000Y165100D02*
X317500Y165100D01*
X317500Y190500D02*
X334000Y190500D01*
X334000Y215900D02*
X317500Y215900D01*
X317500Y241300D02*
X334000Y241300D01*
X334000Y266700D02*
X317500Y266700D01*
X317500Y292100D02*
X334000Y292100D01*
X334000Y317500D02*
X317500Y317500D01*
X317500Y342900D02*
X334000Y342900D01*
X334000Y368300D02*
X317500Y368300D01*
X317500Y393700D02*
X334000Y393700D01*
X334000Y419100D02*
X317500Y419100D01*
X317500Y444500D02*
X334000Y444500D01*
X334000Y469900D02*
X317500Y469900D01*
X317500Y495300D02*
X334000Y495300D01*
X334000Y520700D02*
X317500Y520700D01*
X317500Y546100D02*
X334000Y546100D01*
X334000Y571500D02*
X317500Y571500D01*
X139700Y571500D02*
X123200Y571500D01*
X123200Y546100D02*
X139700Y546100D01*
X139700Y520700D02*
X123200Y520700D01*
X123200Y495300D02*
X139700Y495300D01*
X139700Y469900D02*
X123200Y469900D01*
X123200Y444500D02*
X139700Y444500D01*
X139700Y419100D02*
X123200Y419100D01*
X123200Y393700D02*
X139700Y393700D01*
X139700Y368300D02*
X123200Y368300D01*
X123200Y342900D02*
X139700Y342900D01*
X139700Y317500D02*
X123200Y317500D01*
X123200Y292100D02*
X139700Y292100D01*
X139700Y266700D02*
X123200Y266700D01*
X123200Y241300D02*
X139700Y241300D01*
X139700Y215900D02*
X123200Y215900D01*
X123200Y190500D02*
X139700Y190500D01*
X139700Y165100D02*
X123200Y165100D01*
X123200Y139700D02*
X139700Y139700D01*
X139700Y114300D02*
X123200Y114300D01*
X123200Y88900D02*
X139700Y88900D01*
X254000Y569200D02*
X254000Y585700D01*
X228600Y585700D02*
X228600Y569200D01*
X203200Y569200D02*
X203200Y585700D01*
D13*
X139700Y139700D02*
X139700Y132080D01*
X152400Y119380D01*
X152400Y63500D01*
X127000Y38100D01*
X60960Y304800D02*
X25400Y304800D01*
X60960Y304800D02*
X76200Y320040D01*
X109220Y320040D01*
X119380Y330200D01*
X144780Y330200D01*
X152400Y337820D01*
X152400Y381000D01*
X139700Y393700D01*
X139700Y139700D02*
X132080Y139700D01*
X71120Y200660D01*
X71120Y294640D01*
X60960Y304800D01*
X317500Y513080D02*
X317500Y520700D01*
X317500Y513080D02*
X304800Y500380D01*
X304800Y406400D01*
X317500Y393700D01*
X317500Y88900D02*
X205740Y88900D01*
X129540Y12700D01*
X17780Y12700D01*
X7620Y22860D01*
X7620Y566420D01*
X25400Y584200D01*
X248920Y200660D02*
X248920Y190500D01*
X248920Y200660D02*
X144780Y304800D01*
X111760Y304800D01*
X106680Y309880D01*
X101600Y345440D02*
X101600Y401320D01*
X33020Y469900D01*
X17780Y469900D01*
X12700Y474980D01*
X12700Y546100D01*
X25400Y558800D01*
D14*
X248920Y190500D03*
X106680Y309880D03*
X101600Y345440D03*
D13*
X259080Y165100D02*
X317500Y165100D01*
X259080Y165100D02*
X144780Y279400D01*
X109220Y279400D01*
X78740Y309880D01*
X78740Y355600D02*
X40640Y393700D01*
D14*
X78740Y309880D03*
X78740Y355600D03*
X40640Y393700D03*
D13*
X317500Y190500D02*
X325120Y190500D01*
X353060Y218440D01*
X353060Y365760D01*
X337820Y381000D01*
X294640Y381000D01*
X218440Y457200D01*
X195580Y457200D01*
X144780Y508000D01*
X25400Y508000D01*
X317500Y215900D02*
X325120Y215900D01*
X347980Y238760D01*
X347980Y345440D01*
X337820Y355600D01*
X312420Y355600D01*
X228600Y439420D01*
X223520Y439420D01*
X149860Y482600D02*
X25400Y482600D01*
D14*
X223520Y439420D03*
X149860Y482600D03*
D13*
X309880Y292100D02*
X317500Y292100D01*
X309880Y292100D02*
X266700Y335280D01*
X261620Y335280D01*
X223520Y373380D01*
X223520Y419100D01*
X195580Y447040D01*
X154940Y447040D01*
X144780Y457200D01*
X58420Y457200D01*
D14*
X58420Y457200D03*
D13*
X317500Y325120D02*
X317500Y317500D01*
X317500Y325120D02*
X274320Y368300D01*
X274320Y381000D01*
X170180Y386080D02*
X170180Y398780D01*
X162560Y406400D01*
X109220Y406400D01*
X78740Y436880D01*
D14*
X274320Y381000D03*
X170180Y386080D03*
X78740Y436880D03*
D13*
X167640Y307340D02*
X281940Y307340D01*
X167640Y307340D02*
X157480Y317500D01*
X104140Y330200D02*
X76200Y330200D01*
X25400Y381000D01*
D14*
X281940Y307340D03*
X157480Y317500D03*
X104140Y330200D03*
D13*
X213360Y355600D02*
X213360Y416560D01*
D14*
X213360Y416560D03*
X213360Y355600D03*
D13*
X73660Y373380D02*
X73660Y416560D01*
X73660Y373380D02*
X88900Y358140D01*
X88900Y345440D01*
X60960Y281940D02*
X38100Y259080D01*
X38100Y190500D01*
X25400Y177800D01*
D14*
X73660Y416560D03*
X88900Y345440D03*
X60960Y281940D03*
D13*
X213360Y467360D02*
X317500Y571500D01*
X200660Y429260D02*
X190500Y419100D01*
X190500Y337820D01*
X172720Y320040D01*
X60960Y269240D02*
X60960Y187960D01*
X25400Y152400D01*
D14*
X213360Y467360D03*
X200660Y429260D03*
X172720Y320040D03*
X60960Y269240D03*
D13*
X182880Y457200D02*
X187960Y457200D01*
X193040Y452120D01*
X198120Y452120D01*
X264160Y386080D01*
X264160Y345440D01*
X93980Y152400D02*
X68580Y127000D01*
X25400Y127000D01*
D14*
X182880Y457200D03*
X264160Y345440D03*
X93980Y152400D03*
D13*
X200660Y353060D02*
X200660Y416560D01*
X200660Y353060D02*
X236220Y317500D01*
D14*
X200660Y416560D03*
X236220Y317500D03*
D13*
X139700Y469900D02*
X83820Y469900D01*
X43180Y429260D02*
X33020Y419100D01*
X17780Y419100D01*
X12700Y414020D01*
X12700Y63500D01*
X25400Y50800D01*
D14*
X83820Y469900D03*
X43180Y429260D03*
D13*
X139700Y436880D02*
X139700Y444500D01*
X139700Y436880D02*
X180340Y396240D01*
X180340Y340360D01*
X210820Y279400D02*
X312420Y177800D01*
X337820Y177800D01*
X347980Y167640D01*
X347980Y162560D01*
X337820Y152400D01*
X261620Y152400D01*
X134620Y25400D01*
X25400Y25400D01*
D14*
X180340Y340360D03*
X210820Y279400D03*
D13*
X160020Y358140D02*
X160020Y396240D01*
X160020Y358140D02*
X162560Y355600D01*
D14*
X160020Y396240D03*
X162560Y355600D03*
M02*
