M48
;GenerationSoftware,Autodesk,EAGLE,9.6.2*%
;CreationDate,2024-08-03T01:05:55Z*%
FMAT,2
ICI,OFF
METRIC,TZ,000.000
T3C0.508
T2C1.016
T1C1.100
%
G90
M71
T1
X13970Y19050
X13970Y21590
X13970Y24130
X13970Y26670
X13970Y29210
X13970Y31750
X13970Y36830
X13970Y39370
X13970Y41910
X13970Y44450
X13970Y46990
X13970Y49530
X13970Y52070
X13970Y34290
X13970Y54610
X13970Y57150
X31750Y57150
X31750Y54610
X31750Y52070
X31750Y49530
X31750Y46990
X31750Y44450
X31750Y41910
X31750Y39370
X31750Y36830
X31750Y34290
X31750Y31750
X31750Y29210
X31750Y26670
X31750Y24130
X31750Y21590
X31750Y19050
X31750Y13970
X31750Y11430
X31750Y8890
X7620Y15240
X7620Y7620
X31750Y16510
X13970Y16510
X13970Y13970
X13970Y11430
X13970Y8890
X25400Y56920
X22860Y56920
X20320Y56920
T2
X2540Y43180
X2540Y40640
X2540Y38100
X2540Y35560
X2540Y33020
X2540Y30480
X2540Y27940
X2540Y58420
X2540Y22860
X2540Y20320
X2540Y17780
X2540Y15240
X2540Y12700
X2540Y10160
X2540Y7620
X2540Y5080
X2540Y2540
X2540Y25400
X10160Y3810
X12700Y3810
X2540Y55880
X2540Y53340
X2540Y50800
X2540Y48260
X2540Y45720
T3
X20066Y41656
X9398Y15240
X26416Y34544
X18288Y45720
X6096Y26924
X17272Y32004
X20066Y42926
X21336Y46736
X6096Y28194
X8890Y34544
X7366Y41656
X21336Y35560
X21336Y41656
X10414Y33020
X28194Y30734
X7874Y43688
X17018Y38608
X27432Y38100
X5842Y45720
X14986Y48260
X22352Y43942
X15748Y31750
X4064Y39370
X7874Y35560
X7874Y30988
X10160Y34544
X10668Y30988
X24892Y19050
X16002Y39624
X21082Y27940
X16256Y35560
X18034Y34036
X4318Y42926
X8382Y46990
X23622Y31750
M30