G04 EAGLE Gerber RS-274X export*
G75*
%MOMM*%
%FSLAX34Y34*%
%LPD*%
%INTop Copper*%
%IPPOS*%
%AMOC8*
5,1,8,0,0,1.08239X$1,22.5*%
G01*
%ADD10C,1.700000*%
%ADD11C,1.879600*%
%ADD12C,1.650000*%
%ADD13C,0.254000*%
%ADD14C,1.016000*%

G36*
X357526Y2036D02*
X357526Y2036D01*
X357545Y2034D01*
X357647Y2056D01*
X357749Y2072D01*
X357766Y2082D01*
X357786Y2086D01*
X357875Y2139D01*
X357966Y2188D01*
X357980Y2202D01*
X357997Y2212D01*
X358064Y2291D01*
X358136Y2366D01*
X358144Y2384D01*
X358157Y2399D01*
X358196Y2495D01*
X358239Y2589D01*
X358241Y2609D01*
X358249Y2627D01*
X358267Y2794D01*
X358267Y114820D01*
X358256Y114891D01*
X358254Y114963D01*
X358236Y115012D01*
X358228Y115063D01*
X358194Y115126D01*
X358169Y115194D01*
X358137Y115234D01*
X358112Y115280D01*
X358060Y115330D01*
X358016Y115386D01*
X357972Y115414D01*
X357934Y115450D01*
X357869Y115480D01*
X357809Y115519D01*
X357758Y115531D01*
X357711Y115553D01*
X357640Y115561D01*
X357570Y115579D01*
X357518Y115575D01*
X357467Y115580D01*
X357396Y115565D01*
X357325Y115560D01*
X357277Y115539D01*
X357226Y115528D01*
X357165Y115491D01*
X357099Y115463D01*
X357043Y115419D01*
X357015Y115402D01*
X357000Y115384D01*
X356968Y115359D01*
X341854Y100244D01*
X340064Y98455D01*
X340052Y98439D01*
X340037Y98426D01*
X339981Y98339D01*
X339920Y98255D01*
X339914Y98236D01*
X339904Y98219D01*
X339878Y98119D01*
X339848Y98020D01*
X339848Y98000D01*
X339844Y97981D01*
X339852Y97878D01*
X339854Y97774D01*
X339861Y97755D01*
X339863Y97735D01*
X339903Y97640D01*
X339939Y97543D01*
X339951Y97527D01*
X339959Y97509D01*
X340064Y97378D01*
X342717Y94725D01*
X344283Y90945D01*
X344283Y86855D01*
X342717Y83075D01*
X339825Y80183D01*
X336045Y78617D01*
X315455Y78617D01*
X311675Y80183D01*
X308783Y83075D01*
X307217Y86855D01*
X307217Y90945D01*
X308783Y94725D01*
X310548Y96490D01*
X310590Y96548D01*
X310639Y96600D01*
X310661Y96647D01*
X310691Y96689D01*
X310712Y96758D01*
X310743Y96823D01*
X310748Y96875D01*
X310764Y96925D01*
X310762Y96996D01*
X310770Y97067D01*
X310759Y97118D01*
X310757Y97170D01*
X310733Y97238D01*
X310717Y97308D01*
X310691Y97353D01*
X310673Y97401D01*
X310628Y97457D01*
X310591Y97519D01*
X310552Y97553D01*
X310519Y97593D01*
X310459Y97632D01*
X310404Y97679D01*
X310356Y97698D01*
X310312Y97726D01*
X310243Y97744D01*
X310176Y97771D01*
X310105Y97779D01*
X310074Y97787D01*
X310050Y97785D01*
X310009Y97789D01*
X172074Y97789D01*
X171984Y97775D01*
X171893Y97767D01*
X171863Y97755D01*
X171831Y97750D01*
X171750Y97707D01*
X171666Y97671D01*
X171634Y97645D01*
X171614Y97634D01*
X171591Y97611D01*
X171536Y97566D01*
X146358Y72389D01*
X92402Y72389D01*
X88032Y76759D01*
X87974Y76800D01*
X87922Y76850D01*
X87875Y76872D01*
X87833Y76902D01*
X87764Y76923D01*
X87699Y76953D01*
X87647Y76959D01*
X87597Y76974D01*
X87526Y76973D01*
X87455Y76980D01*
X87404Y76969D01*
X87352Y76968D01*
X87284Y76943D01*
X87214Y76928D01*
X87169Y76902D01*
X87121Y76884D01*
X87065Y76839D01*
X87003Y76802D01*
X86969Y76762D01*
X86929Y76730D01*
X86890Y76670D01*
X86843Y76615D01*
X86824Y76567D01*
X86796Y76523D01*
X86778Y76454D01*
X86751Y76387D01*
X86743Y76316D01*
X86735Y76284D01*
X86737Y76261D01*
X86733Y76220D01*
X86733Y74105D01*
X85129Y70234D01*
X82166Y67271D01*
X80481Y66573D01*
X80381Y66511D01*
X80281Y66451D01*
X80277Y66446D01*
X80272Y66443D01*
X80197Y66352D01*
X80121Y66264D01*
X80119Y66258D01*
X80115Y66253D01*
X80073Y66145D01*
X80029Y66036D01*
X80028Y66028D01*
X80027Y66024D01*
X80026Y66006D01*
X80011Y65869D01*
X80011Y65394D01*
X80025Y65304D01*
X80033Y65213D01*
X80045Y65183D01*
X80050Y65151D01*
X80093Y65070D01*
X80129Y64986D01*
X80155Y64954D01*
X80166Y64934D01*
X80189Y64911D01*
X80234Y64856D01*
X96302Y48787D01*
X96396Y48719D01*
X96491Y48649D01*
X96497Y48647D01*
X96502Y48643D01*
X96613Y48609D01*
X96725Y48573D01*
X96731Y48573D01*
X96737Y48571D01*
X96854Y48574D01*
X96971Y48575D01*
X96978Y48577D01*
X96983Y48577D01*
X97000Y48584D01*
X97132Y48622D01*
X99326Y49531D01*
X103874Y49531D01*
X108075Y47790D01*
X111290Y44575D01*
X113031Y40374D01*
X113031Y35826D01*
X111290Y31625D01*
X108075Y28410D01*
X103874Y26669D01*
X99326Y26669D01*
X95125Y28410D01*
X91910Y31625D01*
X90169Y35826D01*
X90169Y40374D01*
X91078Y42568D01*
X91105Y42682D01*
X91133Y42795D01*
X91133Y42801D01*
X91134Y42808D01*
X91123Y42924D01*
X91114Y43040D01*
X91112Y43046D01*
X91111Y43052D01*
X91063Y43160D01*
X91018Y43267D01*
X91013Y43273D01*
X91011Y43277D01*
X90999Y43291D01*
X90913Y43398D01*
X72389Y61922D01*
X72389Y65869D01*
X72370Y65984D01*
X72353Y66100D01*
X72351Y66106D01*
X72350Y66112D01*
X72295Y66215D01*
X72242Y66319D01*
X72237Y66324D01*
X72234Y66329D01*
X72150Y66409D01*
X72066Y66492D01*
X72060Y66495D01*
X72056Y66499D01*
X72039Y66507D01*
X71919Y66573D01*
X70234Y67271D01*
X67271Y70234D01*
X65667Y74105D01*
X65667Y78295D01*
X67271Y82166D01*
X68894Y83790D01*
X68936Y83848D01*
X68985Y83900D01*
X69007Y83947D01*
X69038Y83989D01*
X69059Y84058D01*
X69089Y84123D01*
X69095Y84175D01*
X69110Y84225D01*
X69108Y84296D01*
X69116Y84367D01*
X69105Y84418D01*
X69104Y84470D01*
X69079Y84538D01*
X69064Y84608D01*
X69037Y84653D01*
X69019Y84701D01*
X68974Y84757D01*
X68938Y84819D01*
X68898Y84853D01*
X68866Y84893D01*
X68805Y84932D01*
X68751Y84979D01*
X68702Y84998D01*
X68659Y85026D01*
X68589Y85044D01*
X68523Y85071D01*
X68451Y85079D01*
X68420Y85087D01*
X68397Y85085D01*
X68356Y85089D01*
X42534Y85089D01*
X42444Y85075D01*
X42353Y85067D01*
X42323Y85055D01*
X42291Y85050D01*
X42210Y85007D01*
X42126Y84971D01*
X42094Y84945D01*
X42074Y84934D01*
X42051Y84911D01*
X41996Y84866D01*
X36831Y79702D01*
X36763Y79607D01*
X36693Y79513D01*
X36691Y79507D01*
X36687Y79502D01*
X36653Y79390D01*
X36617Y79279D01*
X36617Y79273D01*
X36615Y79267D01*
X36618Y79150D01*
X36619Y79033D01*
X36621Y79026D01*
X36621Y79021D01*
X36628Y79004D01*
X36666Y78872D01*
X36831Y78474D01*
X36831Y73926D01*
X35090Y69725D01*
X31875Y66510D01*
X27674Y64769D01*
X23126Y64769D01*
X18925Y66510D01*
X15710Y69725D01*
X13969Y73926D01*
X13969Y78474D01*
X15710Y82675D01*
X16824Y83790D01*
X16866Y83848D01*
X16915Y83900D01*
X16937Y83947D01*
X16968Y83989D01*
X16989Y84058D01*
X17019Y84123D01*
X17025Y84175D01*
X17040Y84225D01*
X17038Y84296D01*
X17046Y84367D01*
X17035Y84418D01*
X17034Y84470D01*
X17009Y84538D01*
X16994Y84608D01*
X16967Y84653D01*
X16949Y84701D01*
X16904Y84757D01*
X16868Y84819D01*
X16828Y84853D01*
X16796Y84893D01*
X16735Y84932D01*
X16681Y84979D01*
X16633Y84998D01*
X16589Y85026D01*
X16519Y85044D01*
X16453Y85071D01*
X16381Y85079D01*
X16350Y85087D01*
X16327Y85085D01*
X16286Y85089D01*
X16202Y85089D01*
X13746Y87544D01*
X13746Y87545D01*
X6265Y95026D01*
X6264Y95026D01*
X3809Y97482D01*
X3809Y537518D01*
X16202Y549911D01*
X16286Y549911D01*
X16357Y549922D01*
X16428Y549924D01*
X16477Y549942D01*
X16529Y549950D01*
X16592Y549984D01*
X16659Y550009D01*
X16700Y550041D01*
X16746Y550066D01*
X16795Y550118D01*
X16851Y550162D01*
X16880Y550206D01*
X16915Y550244D01*
X16946Y550309D01*
X16984Y550369D01*
X16997Y550420D01*
X17019Y550467D01*
X17027Y550538D01*
X17045Y550608D01*
X17040Y550660D01*
X17046Y550711D01*
X17031Y550782D01*
X17025Y550853D01*
X17005Y550901D01*
X16994Y550952D01*
X16957Y551013D01*
X16929Y551079D01*
X16884Y551135D01*
X16868Y551163D01*
X16850Y551178D01*
X16824Y551210D01*
X15710Y552325D01*
X13969Y556526D01*
X13969Y561074D01*
X15710Y565275D01*
X18925Y568490D01*
X23126Y570231D01*
X27674Y570231D01*
X31875Y568490D01*
X35090Y565275D01*
X36831Y561074D01*
X36831Y556526D01*
X35090Y552325D01*
X33976Y551210D01*
X33934Y551152D01*
X33885Y551100D01*
X33863Y551053D01*
X33832Y551011D01*
X33811Y550942D01*
X33781Y550877D01*
X33775Y550825D01*
X33760Y550775D01*
X33762Y550704D01*
X33754Y550633D01*
X33765Y550582D01*
X33766Y550530D01*
X33791Y550462D01*
X33806Y550392D01*
X33833Y550347D01*
X33851Y550299D01*
X33896Y550243D01*
X33932Y550181D01*
X33972Y550147D01*
X34004Y550107D01*
X34065Y550068D01*
X34119Y550021D01*
X34167Y550002D01*
X34211Y549974D01*
X34281Y549956D01*
X34347Y549929D01*
X34419Y549921D01*
X34450Y549913D01*
X34473Y549915D01*
X34514Y549911D01*
X34598Y549911D01*
X41911Y542598D01*
X41911Y468322D01*
X36087Y462498D01*
X36019Y462403D01*
X35949Y462309D01*
X35947Y462303D01*
X35943Y462298D01*
X35909Y462187D01*
X35873Y462075D01*
X35873Y462069D01*
X35871Y462063D01*
X35874Y461946D01*
X35875Y461829D01*
X35877Y461822D01*
X35877Y461817D01*
X35884Y461800D01*
X35922Y461668D01*
X36831Y459474D01*
X36831Y454926D01*
X35090Y450725D01*
X31875Y447510D01*
X27674Y445769D01*
X23126Y445769D01*
X18925Y447510D01*
X17810Y448624D01*
X17752Y448666D01*
X17700Y448715D01*
X17653Y448737D01*
X17611Y448768D01*
X17542Y448789D01*
X17477Y448819D01*
X17425Y448825D01*
X17375Y448840D01*
X17304Y448838D01*
X17233Y448846D01*
X17182Y448835D01*
X17130Y448834D01*
X17062Y448809D01*
X16992Y448794D01*
X16947Y448767D01*
X16899Y448749D01*
X16843Y448704D01*
X16781Y448668D01*
X16747Y448628D01*
X16707Y448596D01*
X16668Y448535D01*
X16621Y448481D01*
X16602Y448433D01*
X16574Y448389D01*
X16556Y448319D01*
X16529Y448253D01*
X16521Y448181D01*
X16513Y448150D01*
X16515Y448127D01*
X16511Y448086D01*
X16511Y440914D01*
X16522Y440843D01*
X16524Y440772D01*
X16542Y440723D01*
X16550Y440671D01*
X16584Y440608D01*
X16609Y440541D01*
X16641Y440500D01*
X16666Y440454D01*
X16718Y440405D01*
X16762Y440349D01*
X16806Y440320D01*
X16844Y440285D01*
X16909Y440254D01*
X16969Y440216D01*
X17020Y440203D01*
X17067Y440181D01*
X17138Y440173D01*
X17208Y440155D01*
X17260Y440160D01*
X17311Y440154D01*
X17382Y440169D01*
X17453Y440175D01*
X17501Y440195D01*
X17552Y440206D01*
X17613Y440243D01*
X17679Y440271D01*
X17735Y440316D01*
X17763Y440332D01*
X17778Y440350D01*
X17810Y440376D01*
X18925Y441490D01*
X23126Y443231D01*
X27674Y443231D01*
X29868Y442322D01*
X29982Y442295D01*
X30095Y442267D01*
X30101Y442267D01*
X30108Y442266D01*
X30224Y442277D01*
X30340Y442286D01*
X30346Y442288D01*
X30352Y442289D01*
X30460Y442337D01*
X30567Y442382D01*
X30573Y442387D01*
X30577Y442389D01*
X30591Y442401D01*
X30698Y442487D01*
X49222Y461011D01*
X51241Y461011D01*
X51356Y461029D01*
X51472Y461047D01*
X51478Y461049D01*
X51484Y461050D01*
X51587Y461105D01*
X51691Y461158D01*
X51696Y461163D01*
X51701Y461166D01*
X51781Y461250D01*
X51864Y461334D01*
X51867Y461340D01*
X51871Y461344D01*
X51879Y461361D01*
X51945Y461481D01*
X51959Y461517D01*
X54103Y463661D01*
X56904Y464821D01*
X59936Y464821D01*
X62737Y463661D01*
X64881Y461517D01*
X65958Y458916D01*
X65982Y458877D01*
X65998Y458834D01*
X66047Y458773D01*
X66088Y458707D01*
X66123Y458677D01*
X66152Y458642D01*
X66217Y458599D01*
X66277Y458550D01*
X66320Y458533D01*
X66358Y458509D01*
X66434Y458490D01*
X66507Y458462D01*
X66552Y458460D01*
X66597Y458448D01*
X66675Y458455D01*
X66752Y458451D01*
X66797Y458464D01*
X66842Y458468D01*
X66914Y458498D01*
X66989Y458520D01*
X67026Y458546D01*
X67069Y458564D01*
X67175Y458649D01*
X67191Y458660D01*
X67194Y458664D01*
X67200Y458669D01*
X76049Y467518D01*
X76117Y467613D01*
X76187Y467707D01*
X76189Y467713D01*
X76193Y467718D01*
X76227Y467830D01*
X76263Y467941D01*
X76263Y467947D01*
X76265Y467953D01*
X76262Y468070D01*
X76261Y468187D01*
X76259Y468194D01*
X76259Y468199D01*
X76252Y468217D01*
X76214Y468348D01*
X76199Y468384D01*
X76199Y471416D01*
X77359Y474217D01*
X79503Y476361D01*
X82304Y477521D01*
X85336Y477521D01*
X88137Y476361D01*
X88870Y475628D01*
X88928Y475586D01*
X88980Y475536D01*
X89027Y475514D01*
X89069Y475484D01*
X89138Y475463D01*
X89203Y475433D01*
X89255Y475427D01*
X89305Y475412D01*
X89376Y475414D01*
X89447Y475406D01*
X89498Y475417D01*
X89550Y475418D01*
X89618Y475443D01*
X89688Y475458D01*
X89733Y475485D01*
X89781Y475502D01*
X89837Y475547D01*
X89899Y475584D01*
X89933Y475624D01*
X89973Y475656D01*
X90012Y475716D01*
X90059Y475771D01*
X90078Y475819D01*
X90106Y475863D01*
X90124Y475933D01*
X90151Y475999D01*
X90159Y476070D01*
X90167Y476102D01*
X90165Y476125D01*
X90169Y476166D01*
X90169Y567998D01*
X125422Y603251D01*
X260658Y603251D01*
X263114Y600796D01*
X309845Y554064D01*
X309861Y554052D01*
X309874Y554037D01*
X309961Y553981D01*
X310045Y553920D01*
X310064Y553914D01*
X310081Y553904D01*
X310181Y553878D01*
X310280Y553848D01*
X310300Y553848D01*
X310319Y553844D01*
X310422Y553852D01*
X310526Y553854D01*
X310545Y553861D01*
X310565Y553863D01*
X310660Y553903D01*
X310757Y553939D01*
X310773Y553951D01*
X310791Y553959D01*
X310922Y554064D01*
X311675Y554817D01*
X315455Y556383D01*
X336045Y556383D01*
X339825Y554817D01*
X342717Y551925D01*
X344283Y548145D01*
X344283Y544055D01*
X342717Y540275D01*
X339825Y537383D01*
X336045Y535817D01*
X315455Y535817D01*
X311675Y537383D01*
X308783Y540275D01*
X307217Y544055D01*
X307217Y545598D01*
X307216Y545605D01*
X307203Y545688D01*
X307195Y545779D01*
X307183Y545809D01*
X307178Y545841D01*
X307135Y545922D01*
X307099Y546006D01*
X307073Y546038D01*
X307062Y546058D01*
X307039Y546081D01*
X306994Y546136D01*
X265582Y587549D01*
X265524Y587590D01*
X265472Y587640D01*
X265425Y587662D01*
X265383Y587692D01*
X265314Y587713D01*
X265249Y587743D01*
X265197Y587749D01*
X265147Y587764D01*
X265076Y587763D01*
X265005Y587770D01*
X264954Y587759D01*
X264902Y587758D01*
X264834Y587733D01*
X264764Y587718D01*
X264719Y587692D01*
X264671Y587674D01*
X264615Y587629D01*
X264553Y587592D01*
X264519Y587552D01*
X264479Y587520D01*
X264440Y587460D01*
X264393Y587405D01*
X264374Y587357D01*
X264346Y587313D01*
X264328Y587244D01*
X264301Y587177D01*
X264293Y587106D01*
X264285Y587074D01*
X264287Y587051D01*
X264283Y587010D01*
X264283Y567155D01*
X262717Y563375D01*
X259825Y560483D01*
X256045Y558917D01*
X251955Y558917D01*
X248175Y560483D01*
X245283Y563375D01*
X243717Y567155D01*
X243717Y587745D01*
X245283Y591525D01*
X248088Y594330D01*
X248130Y594388D01*
X248179Y594440D01*
X248201Y594487D01*
X248231Y594529D01*
X248252Y594598D01*
X248283Y594663D01*
X248288Y594715D01*
X248304Y594765D01*
X248302Y594836D01*
X248310Y594907D01*
X248299Y594958D01*
X248297Y595010D01*
X248273Y595078D01*
X248257Y595148D01*
X248231Y595193D01*
X248213Y595241D01*
X248168Y595297D01*
X248131Y595359D01*
X248092Y595393D01*
X248059Y595433D01*
X247999Y595472D01*
X247944Y595519D01*
X247896Y595538D01*
X247852Y595566D01*
X247783Y595584D01*
X247716Y595611D01*
X247645Y595619D01*
X247614Y595627D01*
X247590Y595625D01*
X247549Y595629D01*
X235635Y595629D01*
X235627Y595628D01*
X235619Y595629D01*
X235505Y595608D01*
X235392Y595590D01*
X235385Y595586D01*
X235377Y595584D01*
X235276Y595528D01*
X235175Y595474D01*
X235169Y595469D01*
X235162Y595465D01*
X235084Y595380D01*
X235005Y595296D01*
X235002Y595289D01*
X234996Y595283D01*
X234950Y595178D01*
X234902Y595073D01*
X234901Y595065D01*
X234897Y595058D01*
X234887Y594943D01*
X234874Y594829D01*
X234876Y594821D01*
X234875Y594813D01*
X234902Y594700D01*
X234927Y594588D01*
X234931Y594581D01*
X234933Y594574D01*
X234994Y594476D01*
X235053Y594377D01*
X235059Y594372D01*
X235063Y594365D01*
X235187Y594252D01*
X235630Y593931D01*
X236831Y592730D01*
X237829Y591355D01*
X238600Y589842D01*
X239125Y588227D01*
X239391Y586549D01*
X239391Y570723D01*
X229362Y570723D01*
X229342Y570720D01*
X229323Y570722D01*
X229221Y570700D01*
X229119Y570683D01*
X229102Y570674D01*
X229082Y570670D01*
X228993Y570617D01*
X228902Y570568D01*
X228888Y570554D01*
X228871Y570544D01*
X228804Y570465D01*
X228733Y570390D01*
X228724Y570372D01*
X228711Y570357D01*
X228673Y570261D01*
X228629Y570167D01*
X228627Y570147D01*
X228619Y570129D01*
X228601Y569962D01*
X228601Y569199D01*
X228599Y569199D01*
X228599Y569962D01*
X228596Y569982D01*
X228598Y570001D01*
X228576Y570103D01*
X228559Y570205D01*
X228550Y570222D01*
X228546Y570242D01*
X228493Y570331D01*
X228444Y570422D01*
X228430Y570436D01*
X228420Y570453D01*
X228341Y570520D01*
X228266Y570591D01*
X228248Y570600D01*
X228233Y570613D01*
X228137Y570652D01*
X228043Y570695D01*
X228023Y570697D01*
X228005Y570705D01*
X227838Y570723D01*
X217809Y570723D01*
X217809Y586549D01*
X218075Y588227D01*
X218600Y589842D01*
X219371Y591355D01*
X220369Y592730D01*
X221570Y593931D01*
X222013Y594252D01*
X222018Y594258D01*
X222025Y594262D01*
X222104Y594345D01*
X222186Y594427D01*
X222189Y594434D01*
X222195Y594440D01*
X222243Y594544D01*
X222294Y594648D01*
X222295Y594656D01*
X222298Y594663D01*
X222311Y594777D01*
X222326Y594892D01*
X222325Y594900D01*
X222326Y594907D01*
X222301Y595020D01*
X222279Y595133D01*
X222275Y595140D01*
X222273Y595148D01*
X222214Y595247D01*
X222157Y595347D01*
X222151Y595352D01*
X222147Y595359D01*
X222060Y595433D01*
X221974Y595511D01*
X221966Y595514D01*
X221960Y595519D01*
X221853Y595562D01*
X221747Y595607D01*
X221739Y595608D01*
X221732Y595611D01*
X221565Y595629D01*
X209651Y595629D01*
X209580Y595618D01*
X209508Y595616D01*
X209459Y595598D01*
X209408Y595590D01*
X209344Y595556D01*
X209277Y595531D01*
X209236Y595499D01*
X209190Y595474D01*
X209141Y595422D01*
X209085Y595378D01*
X209057Y595334D01*
X209021Y595296D01*
X208991Y595231D01*
X208952Y595171D01*
X208939Y595120D01*
X208917Y595073D01*
X208909Y595002D01*
X208892Y594932D01*
X208896Y594880D01*
X208890Y594829D01*
X208906Y594758D01*
X208911Y594687D01*
X208931Y594639D01*
X208943Y594588D01*
X208979Y594527D01*
X209007Y594461D01*
X209052Y594405D01*
X209069Y594377D01*
X209087Y594362D01*
X209112Y594330D01*
X211917Y591525D01*
X213483Y587745D01*
X213483Y567155D01*
X211917Y563375D01*
X209025Y560483D01*
X205245Y558917D01*
X201155Y558917D01*
X197375Y560483D01*
X194483Y563375D01*
X192917Y567155D01*
X192917Y587745D01*
X194483Y591525D01*
X197288Y594330D01*
X197330Y594388D01*
X197379Y594440D01*
X197401Y594487D01*
X197431Y594529D01*
X197452Y594598D01*
X197483Y594663D01*
X197488Y594715D01*
X197504Y594765D01*
X197502Y594836D01*
X197510Y594907D01*
X197499Y594958D01*
X197497Y595010D01*
X197473Y595078D01*
X197457Y595148D01*
X197431Y595193D01*
X197413Y595241D01*
X197368Y595297D01*
X197331Y595359D01*
X197292Y595393D01*
X197259Y595433D01*
X197199Y595472D01*
X197144Y595519D01*
X197096Y595538D01*
X197052Y595566D01*
X196983Y595584D01*
X196916Y595611D01*
X196845Y595619D01*
X196814Y595627D01*
X196790Y595625D01*
X196749Y595629D01*
X128894Y595629D01*
X128804Y595615D01*
X128713Y595607D01*
X128683Y595595D01*
X128651Y595590D01*
X128570Y595547D01*
X128486Y595511D01*
X128454Y595485D01*
X128434Y595474D01*
X128411Y595451D01*
X128356Y595406D01*
X122259Y589310D01*
X122218Y589252D01*
X122168Y589200D01*
X122146Y589153D01*
X122116Y589111D01*
X122095Y589042D01*
X122065Y588977D01*
X122059Y588925D01*
X122044Y588875D01*
X122045Y588804D01*
X122038Y588733D01*
X122049Y588682D01*
X122050Y588630D01*
X122075Y588562D01*
X122090Y588492D01*
X122116Y588447D01*
X122134Y588399D01*
X122179Y588343D01*
X122216Y588281D01*
X122256Y588247D01*
X122288Y588207D01*
X122348Y588168D01*
X122403Y588121D01*
X122451Y588102D01*
X122495Y588074D01*
X122564Y588056D01*
X122631Y588029D01*
X122702Y588021D01*
X122734Y588013D01*
X122757Y588015D01*
X122798Y588011D01*
X146358Y588011D01*
X156211Y578158D01*
X156211Y564842D01*
X153756Y562386D01*
X146394Y555025D01*
X146382Y555009D01*
X146367Y554996D01*
X146311Y554909D01*
X146250Y554825D01*
X146244Y554806D01*
X146234Y554789D01*
X146208Y554689D01*
X146178Y554590D01*
X146178Y554570D01*
X146174Y554551D01*
X146182Y554448D01*
X146184Y554344D01*
X146191Y554325D01*
X146193Y554305D01*
X146233Y554210D01*
X146269Y554113D01*
X146281Y554097D01*
X146289Y554079D01*
X146394Y553948D01*
X148417Y551925D01*
X149983Y548145D01*
X149983Y544055D01*
X148417Y540275D01*
X145525Y537383D01*
X141745Y535817D01*
X121155Y535817D01*
X117375Y537383D01*
X114466Y540292D01*
X114444Y540328D01*
X114398Y540414D01*
X114380Y540432D01*
X114366Y540454D01*
X114291Y540516D01*
X114220Y540583D01*
X114196Y540594D01*
X114176Y540611D01*
X114085Y540646D01*
X113997Y540687D01*
X113971Y540690D01*
X113947Y540699D01*
X113849Y540703D01*
X113753Y540714D01*
X113727Y540708D01*
X113701Y540709D01*
X113608Y540682D01*
X113512Y540662D01*
X113490Y540648D01*
X113465Y540641D01*
X113385Y540585D01*
X113301Y540535D01*
X113284Y540516D01*
X113263Y540501D01*
X113205Y540423D01*
X113141Y540349D01*
X113131Y540324D01*
X113116Y540303D01*
X113086Y540211D01*
X113049Y540120D01*
X113046Y540088D01*
X113040Y540070D01*
X113040Y540037D01*
X113031Y539954D01*
X113031Y527404D01*
X113032Y527396D01*
X113031Y527389D01*
X113052Y527275D01*
X113070Y527162D01*
X113074Y527155D01*
X113076Y527147D01*
X113132Y527046D01*
X113186Y526944D01*
X113191Y526939D01*
X113195Y526932D01*
X113281Y526854D01*
X113364Y526775D01*
X113371Y526771D01*
X113377Y526766D01*
X113483Y526720D01*
X113587Y526671D01*
X113595Y526670D01*
X113602Y526667D01*
X113717Y526657D01*
X113831Y526644D01*
X113839Y526646D01*
X113847Y526645D01*
X113959Y526672D01*
X114072Y526696D01*
X114079Y526701D01*
X114086Y526702D01*
X114184Y526764D01*
X114283Y526823D01*
X114288Y526829D01*
X114295Y526833D01*
X114408Y526957D01*
X114969Y527730D01*
X116170Y528931D01*
X117545Y529929D01*
X119058Y530700D01*
X120673Y531225D01*
X122351Y531491D01*
X138177Y531491D01*
X138177Y521462D01*
X138180Y521442D01*
X138178Y521423D01*
X138200Y521321D01*
X138217Y521219D01*
X138226Y521202D01*
X138230Y521182D01*
X138283Y521093D01*
X138332Y521002D01*
X138346Y520988D01*
X138356Y520971D01*
X138435Y520904D01*
X138510Y520833D01*
X138528Y520824D01*
X138543Y520811D01*
X138639Y520773D01*
X138733Y520729D01*
X138753Y520727D01*
X138771Y520719D01*
X138938Y520701D01*
X139701Y520701D01*
X139701Y520699D01*
X138938Y520699D01*
X138918Y520696D01*
X138899Y520698D01*
X138797Y520676D01*
X138695Y520659D01*
X138678Y520650D01*
X138658Y520646D01*
X138569Y520593D01*
X138478Y520544D01*
X138464Y520530D01*
X138447Y520520D01*
X138380Y520441D01*
X138309Y520366D01*
X138300Y520348D01*
X138287Y520333D01*
X138248Y520237D01*
X138205Y520143D01*
X138203Y520123D01*
X138195Y520105D01*
X138177Y519938D01*
X138177Y509909D01*
X122351Y509909D01*
X120673Y510175D01*
X119058Y510700D01*
X117545Y511471D01*
X116170Y512469D01*
X114969Y513670D01*
X114408Y514443D01*
X114402Y514449D01*
X114398Y514456D01*
X114315Y514535D01*
X114233Y514616D01*
X114226Y514620D01*
X114220Y514625D01*
X114116Y514674D01*
X114012Y514724D01*
X114004Y514725D01*
X113997Y514729D01*
X113883Y514741D01*
X113768Y514757D01*
X113760Y514755D01*
X113753Y514756D01*
X113640Y514731D01*
X113527Y514709D01*
X113520Y514705D01*
X113512Y514704D01*
X113414Y514645D01*
X113313Y514587D01*
X113308Y514581D01*
X113301Y514577D01*
X113226Y514490D01*
X113149Y514404D01*
X113146Y514397D01*
X113141Y514391D01*
X113098Y514283D01*
X113053Y514178D01*
X113052Y514170D01*
X113049Y514162D01*
X113031Y513996D01*
X113031Y501446D01*
X113046Y501350D01*
X113056Y501253D01*
X113066Y501229D01*
X113070Y501204D01*
X113116Y501117D01*
X113156Y501028D01*
X113173Y501009D01*
X113186Y500986D01*
X113256Y500919D01*
X113322Y500847D01*
X113345Y500835D01*
X113364Y500817D01*
X113452Y500776D01*
X113538Y500729D01*
X113563Y500724D01*
X113587Y500713D01*
X113684Y500702D01*
X113780Y500685D01*
X113806Y500689D01*
X113831Y500686D01*
X113927Y500707D01*
X114023Y500721D01*
X114046Y500733D01*
X114072Y500738D01*
X114156Y500788D01*
X114242Y500833D01*
X114261Y500851D01*
X114283Y500865D01*
X114346Y500939D01*
X114415Y501008D01*
X114430Y501037D01*
X114443Y501051D01*
X114455Y501082D01*
X114474Y501116D01*
X117375Y504017D01*
X121155Y505583D01*
X141745Y505583D01*
X145525Y504017D01*
X148417Y501125D01*
X149057Y499581D01*
X149118Y499481D01*
X149178Y499381D01*
X149183Y499377D01*
X149186Y499372D01*
X149277Y499297D01*
X149365Y499221D01*
X149371Y499219D01*
X149376Y499215D01*
X149484Y499173D01*
X149593Y499129D01*
X149601Y499128D01*
X149606Y499127D01*
X149624Y499126D01*
X149760Y499111D01*
X282586Y499111D01*
X282676Y499125D01*
X282767Y499133D01*
X282797Y499145D01*
X282829Y499150D01*
X282910Y499193D01*
X282994Y499229D01*
X283026Y499255D01*
X283046Y499266D01*
X283063Y499283D01*
X283065Y499284D01*
X283072Y499292D01*
X283124Y499334D01*
X295602Y511811D01*
X309291Y511811D01*
X309362Y511822D01*
X309434Y511824D01*
X309482Y511842D01*
X309534Y511850D01*
X309597Y511884D01*
X309665Y511909D01*
X309705Y511941D01*
X309751Y511966D01*
X309801Y512017D01*
X309857Y512062D01*
X309885Y512106D01*
X309921Y512144D01*
X309951Y512209D01*
X309990Y512269D01*
X310002Y512320D01*
X310024Y512367D01*
X310032Y512438D01*
X310050Y512508D01*
X310046Y512560D01*
X310051Y512611D01*
X310036Y512682D01*
X310030Y512753D01*
X310010Y512801D01*
X309999Y512852D01*
X309962Y512913D01*
X309934Y512979D01*
X309889Y513035D01*
X309873Y513063D01*
X309855Y513078D01*
X309829Y513110D01*
X309269Y513670D01*
X308271Y515045D01*
X307500Y516558D01*
X306975Y518173D01*
X306816Y519177D01*
X316738Y519177D01*
X316758Y519180D01*
X316777Y519178D01*
X316879Y519200D01*
X316981Y519217D01*
X316998Y519226D01*
X317018Y519230D01*
X317107Y519283D01*
X317198Y519332D01*
X317212Y519346D01*
X317229Y519356D01*
X317296Y519435D01*
X317367Y519510D01*
X317376Y519528D01*
X317389Y519543D01*
X317427Y519639D01*
X317471Y519733D01*
X317473Y519753D01*
X317481Y519771D01*
X317499Y519938D01*
X317499Y520701D01*
X317501Y520701D01*
X317501Y519938D01*
X317504Y519918D01*
X317502Y519899D01*
X317524Y519797D01*
X317541Y519695D01*
X317550Y519678D01*
X317554Y519658D01*
X317607Y519569D01*
X317656Y519478D01*
X317670Y519464D01*
X317680Y519447D01*
X317759Y519380D01*
X317834Y519309D01*
X317852Y519300D01*
X317867Y519287D01*
X317963Y519248D01*
X318057Y519205D01*
X318077Y519203D01*
X318095Y519195D01*
X318262Y519177D01*
X344684Y519177D01*
X344525Y518173D01*
X344000Y516558D01*
X343229Y515045D01*
X342231Y513670D01*
X341030Y512469D01*
X340425Y512030D01*
X340369Y511973D01*
X340307Y511923D01*
X340283Y511886D01*
X340252Y511855D01*
X340217Y511783D01*
X340174Y511717D01*
X340163Y511674D01*
X340143Y511634D01*
X340133Y511555D01*
X340113Y511478D01*
X340117Y511434D01*
X340111Y511390D01*
X340126Y511312D01*
X340133Y511233D01*
X340150Y511192D01*
X340158Y511149D01*
X340198Y511079D01*
X340229Y511006D01*
X340265Y510961D01*
X340280Y510935D01*
X340301Y510916D01*
X340334Y510875D01*
X354416Y496794D01*
X356968Y494241D01*
X357026Y494200D01*
X357078Y494150D01*
X357125Y494128D01*
X357167Y494098D01*
X357236Y494077D01*
X357301Y494047D01*
X357353Y494041D01*
X357403Y494026D01*
X357474Y494027D01*
X357545Y494020D01*
X357596Y494031D01*
X357648Y494032D01*
X357716Y494057D01*
X357786Y494072D01*
X357831Y494098D01*
X357879Y494116D01*
X357935Y494161D01*
X357997Y494198D01*
X358031Y494238D01*
X358071Y494270D01*
X358110Y494330D01*
X358157Y494385D01*
X358176Y494433D01*
X358204Y494477D01*
X358222Y494546D01*
X358249Y494613D01*
X358257Y494684D01*
X358265Y494716D01*
X358263Y494739D01*
X358267Y494780D01*
X358267Y609206D01*
X358264Y609226D01*
X358266Y609245D01*
X358244Y609347D01*
X358228Y609449D01*
X358218Y609466D01*
X358214Y609486D01*
X358161Y609575D01*
X358112Y609666D01*
X358098Y609680D01*
X358088Y609697D01*
X358009Y609764D01*
X357934Y609836D01*
X357916Y609844D01*
X357901Y609857D01*
X357805Y609896D01*
X357711Y609939D01*
X357691Y609941D01*
X357673Y609949D01*
X357506Y609967D01*
X2794Y609967D01*
X2774Y609964D01*
X2755Y609966D01*
X2653Y609944D01*
X2551Y609928D01*
X2534Y609918D01*
X2514Y609914D01*
X2425Y609861D01*
X2334Y609812D01*
X2320Y609798D01*
X2303Y609788D01*
X2236Y609709D01*
X2164Y609634D01*
X2156Y609616D01*
X2143Y609601D01*
X2104Y609505D01*
X2061Y609411D01*
X2059Y609391D01*
X2051Y609373D01*
X2033Y609206D01*
X2033Y2794D01*
X2036Y2774D01*
X2034Y2755D01*
X2056Y2653D01*
X2072Y2551D01*
X2082Y2534D01*
X2086Y2514D01*
X2139Y2425D01*
X2188Y2334D01*
X2202Y2320D01*
X2212Y2303D01*
X2291Y2236D01*
X2366Y2164D01*
X2384Y2156D01*
X2399Y2143D01*
X2495Y2104D01*
X2589Y2061D01*
X2609Y2059D01*
X2627Y2051D01*
X2794Y2033D01*
X357506Y2033D01*
X357526Y2036D01*
G37*
G36*
X150854Y113285D02*
X150854Y113285D01*
X150925Y113290D01*
X150973Y113311D01*
X151024Y113322D01*
X151085Y113359D01*
X151151Y113387D01*
X151207Y113431D01*
X151235Y113448D01*
X151250Y113466D01*
X151282Y113491D01*
X282902Y245111D01*
X307440Y245111D01*
X307555Y245130D01*
X307671Y245147D01*
X307676Y245149D01*
X307683Y245150D01*
X307785Y245205D01*
X307890Y245258D01*
X307894Y245263D01*
X307900Y245266D01*
X307980Y245350D01*
X308062Y245434D01*
X308066Y245440D01*
X308069Y245444D01*
X308077Y245461D01*
X308143Y245581D01*
X308783Y247125D01*
X311675Y250017D01*
X315455Y251583D01*
X336045Y251583D01*
X339825Y250017D01*
X342717Y247125D01*
X344283Y243345D01*
X344283Y239255D01*
X342717Y235475D01*
X339825Y232583D01*
X336045Y231017D01*
X315455Y231017D01*
X311675Y232583D01*
X308783Y235475D01*
X308143Y237019D01*
X308082Y237119D01*
X308022Y237219D01*
X308017Y237223D01*
X308014Y237228D01*
X307923Y237303D01*
X307835Y237379D01*
X307829Y237381D01*
X307824Y237385D01*
X307716Y237427D01*
X307607Y237471D01*
X307599Y237472D01*
X307594Y237473D01*
X307576Y237474D01*
X307440Y237489D01*
X286374Y237489D01*
X286284Y237475D01*
X286193Y237467D01*
X286163Y237455D01*
X286131Y237450D01*
X286050Y237407D01*
X285966Y237371D01*
X285934Y237345D01*
X285914Y237334D01*
X285891Y237311D01*
X285836Y237266D01*
X247989Y199420D01*
X247948Y199362D01*
X247898Y199310D01*
X247876Y199263D01*
X247846Y199221D01*
X247825Y199152D01*
X247795Y199087D01*
X247789Y199035D01*
X247774Y198985D01*
X247775Y198914D01*
X247768Y198843D01*
X247779Y198792D01*
X247780Y198740D01*
X247805Y198672D01*
X247820Y198602D01*
X247846Y198557D01*
X247864Y198509D01*
X247909Y198453D01*
X247946Y198391D01*
X247986Y198357D01*
X248018Y198317D01*
X248078Y198278D01*
X248133Y198231D01*
X248181Y198212D01*
X248225Y198184D01*
X248294Y198166D01*
X248361Y198139D01*
X248432Y198131D01*
X248464Y198123D01*
X248487Y198125D01*
X248528Y198121D01*
X250436Y198121D01*
X253237Y196961D01*
X255381Y194817D01*
X256541Y192016D01*
X256541Y188984D01*
X256526Y188948D01*
X256499Y188835D01*
X256471Y188721D01*
X256471Y188715D01*
X256470Y188709D01*
X256481Y188592D01*
X256490Y188476D01*
X256492Y188470D01*
X256493Y188464D01*
X256541Y188356D01*
X256586Y188249D01*
X256591Y188244D01*
X256593Y188239D01*
X256605Y188225D01*
X256691Y188118D01*
X306409Y138400D01*
X306483Y138347D01*
X306553Y138287D01*
X306583Y138275D01*
X306609Y138256D01*
X306696Y138229D01*
X306781Y138195D01*
X306822Y138191D01*
X306844Y138184D01*
X306876Y138185D01*
X306948Y138177D01*
X315977Y138177D01*
X315977Y129148D01*
X315979Y129134D01*
X315978Y129122D01*
X315991Y129063D01*
X315992Y129058D01*
X315999Y128967D01*
X316011Y128937D01*
X316017Y128905D01*
X316059Y128824D01*
X316095Y128740D01*
X316121Y128708D01*
X316132Y128688D01*
X316155Y128665D01*
X316200Y128609D01*
X320004Y124806D01*
X320077Y124753D01*
X320147Y124693D01*
X320177Y124681D01*
X320203Y124662D01*
X320290Y124635D01*
X320375Y124601D01*
X320416Y124597D01*
X320438Y124590D01*
X320471Y124591D01*
X320542Y124583D01*
X336045Y124583D01*
X339825Y123017D01*
X342717Y120125D01*
X344283Y116345D01*
X344283Y115290D01*
X344294Y115219D01*
X344296Y115147D01*
X344314Y115098D01*
X344322Y115047D01*
X344356Y114984D01*
X344381Y114916D01*
X344413Y114876D01*
X344438Y114830D01*
X344490Y114780D01*
X344534Y114724D01*
X344578Y114696D01*
X344616Y114660D01*
X344681Y114630D01*
X344741Y114591D01*
X344792Y114579D01*
X344839Y114557D01*
X344910Y114549D01*
X344980Y114531D01*
X345032Y114535D01*
X345083Y114530D01*
X345154Y114545D01*
X345225Y114550D01*
X345273Y114571D01*
X345324Y114582D01*
X345385Y114619D01*
X345451Y114647D01*
X345507Y114691D01*
X345535Y114708D01*
X345550Y114726D01*
X345582Y114751D01*
X349026Y118196D01*
X349079Y118270D01*
X349139Y118339D01*
X349151Y118369D01*
X349170Y118395D01*
X349197Y118482D01*
X349231Y118567D01*
X349235Y118608D01*
X349242Y118630D01*
X349241Y118663D01*
X349249Y118734D01*
X349249Y359802D01*
X349238Y359873D01*
X349236Y359945D01*
X349218Y359994D01*
X349210Y360045D01*
X349176Y360108D01*
X349151Y360176D01*
X349119Y360216D01*
X349094Y360262D01*
X349042Y360312D01*
X348998Y360368D01*
X348954Y360396D01*
X348916Y360432D01*
X348851Y360462D01*
X348791Y360501D01*
X348740Y360513D01*
X348693Y360535D01*
X348622Y360543D01*
X348552Y360561D01*
X348500Y360557D01*
X348449Y360562D01*
X348378Y360547D01*
X348307Y360542D01*
X348259Y360521D01*
X348208Y360510D01*
X348147Y360473D01*
X348081Y360445D01*
X348025Y360401D01*
X347997Y360384D01*
X347982Y360366D01*
X347950Y360341D01*
X341854Y354244D01*
X340064Y352455D01*
X340052Y352439D01*
X340037Y352426D01*
X339981Y352339D01*
X339920Y352255D01*
X339914Y352236D01*
X339904Y352219D01*
X339878Y352119D01*
X339848Y352020D01*
X339848Y352000D01*
X339844Y351981D01*
X339852Y351878D01*
X339854Y351774D01*
X339861Y351755D01*
X339863Y351735D01*
X339903Y351640D01*
X339939Y351543D01*
X339951Y351527D01*
X339959Y351509D01*
X340064Y351378D01*
X342717Y348725D01*
X344283Y344945D01*
X344283Y340855D01*
X342717Y337075D01*
X339825Y334183D01*
X336045Y332617D01*
X315455Y332617D01*
X313911Y333257D01*
X313797Y333283D01*
X313684Y333312D01*
X313677Y333312D01*
X313671Y333313D01*
X313555Y333302D01*
X313438Y333293D01*
X313433Y333290D01*
X313426Y333290D01*
X313319Y333242D01*
X313212Y333197D01*
X313206Y333192D01*
X313202Y333190D01*
X313188Y333177D01*
X313081Y333092D01*
X289711Y309722D01*
X289643Y309627D01*
X289573Y309533D01*
X289571Y309527D01*
X289567Y309522D01*
X289533Y309410D01*
X289497Y309299D01*
X289497Y309293D01*
X289495Y309287D01*
X289498Y309170D01*
X289499Y309053D01*
X289501Y309046D01*
X289501Y309041D01*
X289508Y309023D01*
X289546Y308892D01*
X289561Y308856D01*
X289561Y305824D01*
X288401Y303023D01*
X286257Y300879D01*
X283456Y299719D01*
X280424Y299719D01*
X277623Y300879D01*
X275479Y303023D01*
X274319Y305824D01*
X274319Y308856D01*
X275479Y311657D01*
X277623Y313801D01*
X280424Y314961D01*
X283456Y314961D01*
X283492Y314946D01*
X283559Y314930D01*
X283572Y314925D01*
X283589Y314923D01*
X283605Y314919D01*
X283719Y314891D01*
X283725Y314891D01*
X283731Y314890D01*
X283848Y314901D01*
X283964Y314910D01*
X283970Y314912D01*
X283976Y314913D01*
X284084Y314961D01*
X284191Y315006D01*
X284196Y315011D01*
X284201Y315013D01*
X284215Y315026D01*
X284255Y315058D01*
X284262Y315061D01*
X284270Y315069D01*
X284322Y315111D01*
X307692Y338481D01*
X307759Y338575D01*
X307830Y338670D01*
X307832Y338676D01*
X307835Y338681D01*
X307869Y338792D01*
X307906Y338904D01*
X307906Y338910D01*
X307908Y338916D01*
X307905Y339033D01*
X307904Y339150D01*
X307901Y339157D01*
X307901Y339162D01*
X307895Y339179D01*
X307857Y339311D01*
X307217Y340855D01*
X307217Y344945D01*
X308783Y348725D01*
X310548Y350490D01*
X310590Y350548D01*
X310639Y350600D01*
X310661Y350647D01*
X310691Y350689D01*
X310712Y350758D01*
X310743Y350823D01*
X310748Y350875D01*
X310764Y350925D01*
X310762Y350996D01*
X310770Y351067D01*
X310759Y351118D01*
X310757Y351170D01*
X310733Y351238D01*
X310717Y351308D01*
X310691Y351353D01*
X310673Y351401D01*
X310628Y351457D01*
X310591Y351519D01*
X310552Y351553D01*
X310519Y351593D01*
X310459Y351632D01*
X310404Y351679D01*
X310356Y351698D01*
X310312Y351726D01*
X310243Y351744D01*
X310176Y351771D01*
X310105Y351779D01*
X310074Y351787D01*
X310050Y351785D01*
X310009Y351789D01*
X270426Y351789D01*
X270355Y351778D01*
X270283Y351776D01*
X270234Y351758D01*
X270183Y351750D01*
X270120Y351716D01*
X270052Y351691D01*
X270012Y351659D01*
X269966Y351634D01*
X269916Y351582D01*
X269860Y351538D01*
X269832Y351494D01*
X269796Y351456D01*
X269766Y351391D01*
X269727Y351331D01*
X269715Y351280D01*
X269693Y351233D01*
X269685Y351162D01*
X269667Y351092D01*
X269671Y351040D01*
X269666Y350989D01*
X269681Y350918D01*
X269686Y350847D01*
X269707Y350799D01*
X269718Y350748D01*
X269755Y350687D01*
X269783Y350621D01*
X269828Y350565D01*
X269844Y350537D01*
X269862Y350522D01*
X269888Y350490D01*
X270621Y349757D01*
X271781Y346956D01*
X271781Y343924D01*
X270621Y341123D01*
X268477Y338979D01*
X268441Y338965D01*
X268342Y338903D01*
X268241Y338843D01*
X268237Y338838D01*
X268232Y338835D01*
X268158Y338745D01*
X268081Y338656D01*
X268079Y338650D01*
X268075Y338645D01*
X268033Y338538D01*
X267989Y338428D01*
X267988Y338420D01*
X267987Y338416D01*
X267986Y338398D01*
X267971Y338261D01*
X267971Y270202D01*
X148814Y151044D01*
X146753Y148984D01*
X146741Y148968D01*
X146726Y148955D01*
X146670Y148868D01*
X146610Y148784D01*
X146604Y148765D01*
X146593Y148748D01*
X146568Y148648D01*
X146537Y148549D01*
X146538Y148529D01*
X146533Y148510D01*
X146541Y148407D01*
X146544Y148303D01*
X146550Y148284D01*
X146552Y148265D01*
X146592Y148170D01*
X146628Y148072D01*
X146641Y148057D01*
X146648Y148038D01*
X146753Y147907D01*
X147931Y146730D01*
X148929Y145355D01*
X149700Y143842D01*
X150225Y142227D01*
X150384Y141223D01*
X140462Y141223D01*
X140442Y141220D01*
X140423Y141222D01*
X140321Y141200D01*
X140219Y141183D01*
X140202Y141174D01*
X140182Y141170D01*
X140093Y141117D01*
X140002Y141068D01*
X139988Y141054D01*
X139971Y141044D01*
X139904Y140965D01*
X139833Y140890D01*
X139824Y140872D01*
X139811Y140857D01*
X139773Y140761D01*
X139729Y140667D01*
X139727Y140647D01*
X139719Y140629D01*
X139701Y140462D01*
X139701Y139699D01*
X139699Y139699D01*
X139699Y140462D01*
X139696Y140482D01*
X139698Y140501D01*
X139676Y140603D01*
X139659Y140705D01*
X139650Y140722D01*
X139646Y140742D01*
X139593Y140831D01*
X139544Y140922D01*
X139530Y140936D01*
X139520Y140953D01*
X139441Y141020D01*
X139366Y141091D01*
X139348Y141100D01*
X139333Y141113D01*
X139237Y141152D01*
X139143Y141195D01*
X139123Y141197D01*
X139105Y141205D01*
X138938Y141223D01*
X112516Y141223D01*
X112675Y142227D01*
X113200Y143842D01*
X113971Y145355D01*
X114969Y146730D01*
X115529Y147290D01*
X115571Y147348D01*
X115621Y147400D01*
X115643Y147447D01*
X115673Y147489D01*
X115694Y147558D01*
X115724Y147623D01*
X115730Y147675D01*
X115745Y147725D01*
X115743Y147796D01*
X115751Y147867D01*
X115740Y147918D01*
X115739Y147970D01*
X115714Y148038D01*
X115699Y148108D01*
X115672Y148153D01*
X115654Y148201D01*
X115610Y148257D01*
X115573Y148319D01*
X115533Y148353D01*
X115501Y148393D01*
X115440Y148432D01*
X115386Y148479D01*
X115338Y148498D01*
X115294Y148526D01*
X115224Y148544D01*
X115158Y148571D01*
X115087Y148579D01*
X115055Y148587D01*
X115032Y148585D01*
X114991Y148589D01*
X101159Y148589D01*
X101044Y148571D01*
X100928Y148553D01*
X100922Y148551D01*
X100916Y148550D01*
X100813Y148495D01*
X100709Y148442D01*
X100704Y148437D01*
X100699Y148434D01*
X100618Y148350D01*
X100536Y148266D01*
X100533Y148260D01*
X100529Y148256D01*
X100521Y148239D01*
X100455Y148119D01*
X100441Y148083D01*
X98297Y145939D01*
X95496Y144779D01*
X92464Y144779D01*
X90445Y145616D01*
X90350Y145638D01*
X90257Y145667D01*
X90230Y145666D01*
X90205Y145672D01*
X90108Y145663D01*
X90011Y145660D01*
X89986Y145651D01*
X89960Y145649D01*
X89871Y145609D01*
X89780Y145576D01*
X89759Y145559D01*
X89735Y145549D01*
X89664Y145483D01*
X89588Y145422D01*
X89574Y145400D01*
X89554Y145382D01*
X89507Y145297D01*
X89455Y145215D01*
X89448Y145190D01*
X89436Y145167D01*
X89418Y145071D01*
X89395Y144977D01*
X89397Y144951D01*
X89392Y144925D01*
X89406Y144828D01*
X89414Y144732D01*
X89424Y144708D01*
X89428Y144682D01*
X89472Y144595D01*
X89510Y144505D01*
X89530Y144480D01*
X89539Y144462D01*
X89563Y144439D01*
X89615Y144374D01*
X113635Y120354D01*
X113651Y120342D01*
X113664Y120327D01*
X113751Y120271D01*
X113835Y120210D01*
X113854Y120204D01*
X113871Y120194D01*
X113971Y120168D01*
X114070Y120138D01*
X114090Y120138D01*
X114109Y120134D01*
X114212Y120142D01*
X114316Y120144D01*
X114335Y120151D01*
X114355Y120153D01*
X114449Y120193D01*
X114547Y120229D01*
X114563Y120241D01*
X114581Y120249D01*
X114712Y120354D01*
X117375Y123017D01*
X121155Y124583D01*
X141745Y124583D01*
X145525Y123017D01*
X148417Y120125D01*
X149983Y116345D01*
X149983Y114030D01*
X149994Y113959D01*
X149996Y113887D01*
X150014Y113838D01*
X150022Y113787D01*
X150056Y113724D01*
X150081Y113656D01*
X150113Y113616D01*
X150138Y113570D01*
X150190Y113520D01*
X150234Y113464D01*
X150278Y113436D01*
X150316Y113400D01*
X150381Y113370D01*
X150441Y113331D01*
X150492Y113319D01*
X150539Y113297D01*
X150610Y113289D01*
X150680Y113271D01*
X150732Y113275D01*
X150783Y113270D01*
X150854Y113285D01*
G37*
G36*
X295376Y369585D02*
X295376Y369585D01*
X295467Y369593D01*
X295497Y369605D01*
X295529Y369610D01*
X295610Y369653D01*
X295694Y369689D01*
X295726Y369715D01*
X295746Y369726D01*
X295769Y369749D01*
X295824Y369794D01*
X298142Y372111D01*
X307440Y372111D01*
X307555Y372130D01*
X307671Y372147D01*
X307676Y372149D01*
X307683Y372150D01*
X307785Y372205D01*
X307890Y372258D01*
X307894Y372263D01*
X307900Y372266D01*
X307980Y372350D01*
X308062Y372434D01*
X308066Y372440D01*
X308069Y372444D01*
X308077Y372461D01*
X308143Y372581D01*
X308783Y374125D01*
X311675Y377017D01*
X315455Y378583D01*
X336045Y378583D01*
X339825Y377017D01*
X342734Y374108D01*
X342756Y374072D01*
X342802Y373986D01*
X342820Y373968D01*
X342834Y373946D01*
X342909Y373884D01*
X342980Y373817D01*
X343004Y373806D01*
X343024Y373789D01*
X343115Y373754D01*
X343203Y373713D01*
X343229Y373710D01*
X343253Y373701D01*
X343351Y373697D01*
X343447Y373686D01*
X343473Y373692D01*
X343499Y373691D01*
X343592Y373718D01*
X343688Y373738D01*
X343710Y373752D01*
X343735Y373759D01*
X343815Y373815D01*
X343899Y373865D01*
X343916Y373884D01*
X343937Y373899D01*
X343995Y373977D01*
X344059Y374051D01*
X344069Y374076D01*
X344084Y374097D01*
X344114Y374189D01*
X344151Y374280D01*
X344154Y374312D01*
X344160Y374330D01*
X344160Y374363D01*
X344169Y374446D01*
X344169Y386996D01*
X344168Y387004D01*
X344169Y387011D01*
X344148Y387125D01*
X344130Y387238D01*
X344126Y387245D01*
X344124Y387253D01*
X344068Y387354D01*
X344014Y387456D01*
X344009Y387461D01*
X344005Y387468D01*
X343919Y387546D01*
X343836Y387625D01*
X343829Y387629D01*
X343823Y387634D01*
X343717Y387680D01*
X343613Y387729D01*
X343605Y387730D01*
X343598Y387733D01*
X343483Y387743D01*
X343369Y387756D01*
X343361Y387754D01*
X343353Y387755D01*
X343241Y387728D01*
X343128Y387704D01*
X343121Y387699D01*
X343114Y387698D01*
X343016Y387636D01*
X342917Y387577D01*
X342912Y387571D01*
X342905Y387567D01*
X342792Y387443D01*
X342231Y386670D01*
X341030Y385469D01*
X339655Y384471D01*
X338142Y383700D01*
X336527Y383175D01*
X334849Y382909D01*
X319023Y382909D01*
X319023Y392938D01*
X319020Y392958D01*
X319022Y392977D01*
X319000Y393079D01*
X318983Y393181D01*
X318974Y393198D01*
X318970Y393218D01*
X318917Y393307D01*
X318868Y393398D01*
X318854Y393412D01*
X318844Y393429D01*
X318765Y393496D01*
X318690Y393567D01*
X318672Y393576D01*
X318657Y393589D01*
X318561Y393627D01*
X318467Y393671D01*
X318447Y393673D01*
X318429Y393681D01*
X318262Y393699D01*
X317499Y393699D01*
X317499Y393701D01*
X318262Y393701D01*
X318282Y393704D01*
X318301Y393702D01*
X318403Y393724D01*
X318505Y393741D01*
X318522Y393750D01*
X318542Y393754D01*
X318631Y393807D01*
X318722Y393856D01*
X318736Y393870D01*
X318753Y393880D01*
X318820Y393959D01*
X318891Y394034D01*
X318900Y394052D01*
X318913Y394067D01*
X318952Y394163D01*
X318995Y394257D01*
X318997Y394277D01*
X319005Y394295D01*
X319023Y394462D01*
X319023Y404491D01*
X334849Y404491D01*
X336527Y404225D01*
X338142Y403700D01*
X339655Y402929D01*
X341030Y401931D01*
X342231Y400730D01*
X342792Y399957D01*
X342798Y399951D01*
X342802Y399944D01*
X342885Y399865D01*
X342967Y399784D01*
X342974Y399780D01*
X342980Y399775D01*
X343084Y399726D01*
X343188Y399676D01*
X343196Y399675D01*
X343203Y399671D01*
X343317Y399659D01*
X343432Y399643D01*
X343440Y399645D01*
X343447Y399644D01*
X343560Y399669D01*
X343673Y399691D01*
X343680Y399695D01*
X343688Y399696D01*
X343786Y399755D01*
X343887Y399813D01*
X343892Y399819D01*
X343899Y399823D01*
X343974Y399910D01*
X344051Y399996D01*
X344054Y400003D01*
X344059Y400009D01*
X344102Y400117D01*
X344147Y400222D01*
X344148Y400230D01*
X344151Y400238D01*
X344169Y400404D01*
X344169Y412954D01*
X344154Y413050D01*
X344144Y413147D01*
X344134Y413171D01*
X344130Y413196D01*
X344084Y413282D01*
X344044Y413372D01*
X344027Y413391D01*
X344014Y413414D01*
X343944Y413481D01*
X343878Y413553D01*
X343855Y413565D01*
X343836Y413583D01*
X343748Y413624D01*
X343662Y413671D01*
X343637Y413676D01*
X343613Y413687D01*
X343516Y413698D01*
X343420Y413715D01*
X343394Y413711D01*
X343369Y413714D01*
X343273Y413693D01*
X343177Y413679D01*
X343154Y413667D01*
X343128Y413662D01*
X343045Y413612D01*
X342958Y413567D01*
X342939Y413549D01*
X342917Y413535D01*
X342854Y413462D01*
X342786Y413392D01*
X342770Y413363D01*
X342757Y413349D01*
X342745Y413318D01*
X342726Y413284D01*
X339825Y410383D01*
X336045Y408817D01*
X315455Y408817D01*
X311675Y410383D01*
X308783Y413275D01*
X308143Y414819D01*
X308082Y414919D01*
X308022Y415019D01*
X308017Y415023D01*
X308014Y415028D01*
X307923Y415103D01*
X307835Y415179D01*
X307829Y415181D01*
X307824Y415185D01*
X307716Y415227D01*
X307607Y415271D01*
X307599Y415272D01*
X307594Y415273D01*
X307576Y415274D01*
X307440Y415289D01*
X238114Y415289D01*
X238024Y415275D01*
X237933Y415267D01*
X237903Y415255D01*
X237871Y415250D01*
X237790Y415207D01*
X237706Y415171D01*
X237674Y415145D01*
X237654Y415134D01*
X237631Y415111D01*
X237576Y415066D01*
X214938Y392429D01*
X176446Y392429D01*
X176375Y392418D01*
X176303Y392416D01*
X176254Y392398D01*
X176203Y392390D01*
X176140Y392356D01*
X176072Y392331D01*
X176032Y392299D01*
X175986Y392274D01*
X175936Y392222D01*
X175880Y392178D01*
X175852Y392134D01*
X175816Y392096D01*
X175786Y392031D01*
X175747Y391971D01*
X175735Y391920D01*
X175713Y391873D01*
X175705Y391802D01*
X175687Y391732D01*
X175691Y391680D01*
X175686Y391629D01*
X175701Y391558D01*
X175706Y391487D01*
X175727Y391439D01*
X175738Y391388D01*
X175775Y391327D01*
X175803Y391261D01*
X175848Y391205D01*
X175864Y391177D01*
X175882Y391162D01*
X175908Y391130D01*
X176641Y390397D01*
X177801Y387596D01*
X177801Y385572D01*
X177804Y385552D01*
X177802Y385533D01*
X177824Y385431D01*
X177840Y385329D01*
X177850Y385312D01*
X177854Y385292D01*
X177907Y385203D01*
X177956Y385112D01*
X177970Y385098D01*
X177980Y385081D01*
X178059Y385014D01*
X178134Y384942D01*
X178152Y384934D01*
X178167Y384921D01*
X178263Y384882D01*
X178357Y384839D01*
X178377Y384837D01*
X178395Y384829D01*
X178562Y384811D01*
X267141Y384811D01*
X267256Y384829D01*
X267372Y384847D01*
X267378Y384849D01*
X267384Y384850D01*
X267487Y384905D01*
X267591Y384958D01*
X267596Y384963D01*
X267601Y384966D01*
X267681Y385050D01*
X267764Y385134D01*
X267767Y385140D01*
X267771Y385144D01*
X267779Y385161D01*
X267845Y385281D01*
X267859Y385317D01*
X270003Y387461D01*
X272804Y388621D01*
X275836Y388621D01*
X278637Y387461D01*
X280781Y385317D01*
X281941Y382516D01*
X281941Y379484D01*
X280781Y376683D01*
X278637Y374539D01*
X275836Y373379D01*
X272804Y373379D01*
X270003Y374539D01*
X267859Y376683D01*
X267845Y376719D01*
X267783Y376818D01*
X267723Y376919D01*
X267718Y376923D01*
X267715Y376928D01*
X267625Y377002D01*
X267536Y377079D01*
X267530Y377081D01*
X267525Y377085D01*
X267418Y377127D01*
X267308Y377171D01*
X267300Y377172D01*
X267296Y377173D01*
X267278Y377174D01*
X267141Y377189D01*
X173682Y377189D01*
X172562Y378309D01*
X172467Y378377D01*
X172373Y378447D01*
X172367Y378449D01*
X172362Y378453D01*
X172250Y378487D01*
X172139Y378523D01*
X172133Y378523D01*
X172127Y378525D01*
X172009Y378522D01*
X171893Y378521D01*
X171886Y378519D01*
X171881Y378519D01*
X171863Y378512D01*
X171732Y378474D01*
X171696Y378459D01*
X168664Y378459D01*
X165863Y379619D01*
X163719Y381763D01*
X162559Y384564D01*
X162559Y387596D01*
X162580Y387645D01*
X162596Y387715D01*
X162622Y387782D01*
X162624Y387834D01*
X162636Y387884D01*
X162629Y387956D01*
X162632Y388028D01*
X162618Y388078D01*
X162613Y388129D01*
X162584Y388195D01*
X162564Y388264D01*
X162534Y388307D01*
X162513Y388354D01*
X162464Y388407D01*
X162423Y388466D01*
X162382Y388497D01*
X162346Y388535D01*
X162283Y388570D01*
X162226Y388613D01*
X162176Y388629D01*
X162131Y388654D01*
X162060Y388667D01*
X161992Y388689D01*
X161940Y388688D01*
X161889Y388697D01*
X161818Y388687D01*
X161746Y388686D01*
X161677Y388666D01*
X161645Y388662D01*
X161625Y388651D01*
X161585Y388640D01*
X161536Y388619D01*
X158504Y388619D01*
X155703Y389779D01*
X153559Y391923D01*
X152399Y394724D01*
X152399Y397756D01*
X153559Y400557D01*
X154292Y401290D01*
X154334Y401348D01*
X154384Y401400D01*
X154406Y401447D01*
X154436Y401489D01*
X154457Y401558D01*
X154487Y401623D01*
X154493Y401675D01*
X154508Y401725D01*
X154506Y401796D01*
X154514Y401867D01*
X154503Y401918D01*
X154502Y401970D01*
X154477Y402038D01*
X154462Y402108D01*
X154435Y402153D01*
X154418Y402201D01*
X154373Y402257D01*
X154336Y402319D01*
X154296Y402353D01*
X154264Y402393D01*
X154204Y402432D01*
X154149Y402479D01*
X154101Y402498D01*
X154057Y402526D01*
X153987Y402544D01*
X153921Y402571D01*
X153850Y402579D01*
X153818Y402587D01*
X153795Y402585D01*
X153754Y402589D01*
X147909Y402589D01*
X147838Y402578D01*
X147766Y402576D01*
X147718Y402558D01*
X147666Y402550D01*
X147603Y402516D01*
X147535Y402491D01*
X147495Y402459D01*
X147449Y402434D01*
X147399Y402383D01*
X147343Y402338D01*
X147315Y402294D01*
X147279Y402256D01*
X147249Y402191D01*
X147210Y402131D01*
X147198Y402080D01*
X147176Y402033D01*
X147168Y401962D01*
X147150Y401892D01*
X147154Y401840D01*
X147149Y401789D01*
X147164Y401718D01*
X147170Y401647D01*
X147190Y401599D01*
X147201Y401548D01*
X147238Y401487D01*
X147266Y401421D01*
X147311Y401365D01*
X147327Y401337D01*
X147345Y401322D01*
X147371Y401290D01*
X147931Y400730D01*
X148929Y399355D01*
X149700Y397842D01*
X150225Y396227D01*
X150384Y395223D01*
X140462Y395223D01*
X140442Y395220D01*
X140423Y395222D01*
X140321Y395200D01*
X140219Y395183D01*
X140202Y395174D01*
X140182Y395170D01*
X140093Y395117D01*
X140002Y395068D01*
X139988Y395054D01*
X139971Y395044D01*
X139904Y394965D01*
X139833Y394890D01*
X139824Y394872D01*
X139811Y394857D01*
X139773Y394761D01*
X139729Y394667D01*
X139727Y394647D01*
X139719Y394629D01*
X139701Y394462D01*
X139701Y392938D01*
X139704Y392918D01*
X139702Y392899D01*
X139724Y392797D01*
X139741Y392695D01*
X139750Y392678D01*
X139754Y392658D01*
X139807Y392569D01*
X139856Y392478D01*
X139870Y392464D01*
X139880Y392447D01*
X139959Y392380D01*
X140034Y392309D01*
X140052Y392300D01*
X140067Y392287D01*
X140163Y392248D01*
X140257Y392205D01*
X140277Y392203D01*
X140295Y392195D01*
X140462Y392177D01*
X150384Y392177D01*
X150225Y391173D01*
X149700Y389558D01*
X148929Y388045D01*
X147931Y386670D01*
X146753Y385493D01*
X146741Y385477D01*
X146726Y385464D01*
X146670Y385377D01*
X146610Y385293D01*
X146604Y385274D01*
X146593Y385257D01*
X146568Y385157D01*
X146537Y385058D01*
X146538Y385038D01*
X146533Y385019D01*
X146541Y384916D01*
X146544Y384812D01*
X146550Y384793D01*
X146552Y384773D01*
X146592Y384679D01*
X146593Y384676D01*
X146596Y384662D01*
X146602Y384652D01*
X146628Y384581D01*
X146641Y384565D01*
X146648Y384547D01*
X146714Y384465D01*
X146723Y384451D01*
X146732Y384442D01*
X146753Y384416D01*
X161376Y369794D01*
X161449Y369741D01*
X161519Y369681D01*
X161549Y369669D01*
X161575Y369650D01*
X161662Y369623D01*
X161747Y369589D01*
X161788Y369585D01*
X161810Y369578D01*
X161843Y369579D01*
X161914Y369571D01*
X295286Y369571D01*
X295376Y369585D01*
G37*
G36*
X54765Y262902D02*
X54765Y262902D01*
X54837Y262904D01*
X54886Y262922D01*
X54937Y262930D01*
X55000Y262964D01*
X55068Y262989D01*
X55108Y263021D01*
X55154Y263046D01*
X55204Y263098D01*
X55260Y263142D01*
X55288Y263186D01*
X55324Y263224D01*
X55354Y263289D01*
X55393Y263349D01*
X55405Y263400D01*
X55427Y263447D01*
X55435Y263518D01*
X55453Y263588D01*
X55449Y263640D01*
X55454Y263691D01*
X55439Y263762D01*
X55434Y263833D01*
X55413Y263881D01*
X55402Y263932D01*
X55365Y263993D01*
X55337Y264059D01*
X55292Y264115D01*
X55276Y264143D01*
X55258Y264158D01*
X55232Y264190D01*
X54499Y264923D01*
X53339Y267724D01*
X53339Y270756D01*
X54499Y273557D01*
X55994Y275052D01*
X56006Y275068D01*
X56022Y275080D01*
X56078Y275168D01*
X56138Y275251D01*
X56144Y275270D01*
X56155Y275287D01*
X56180Y275388D01*
X56210Y275487D01*
X56210Y275506D01*
X56215Y275526D01*
X56207Y275629D01*
X56204Y275732D01*
X56197Y275751D01*
X56196Y275771D01*
X56155Y275866D01*
X56119Y275963D01*
X56107Y275979D01*
X56099Y275997D01*
X55994Y276128D01*
X54499Y277623D01*
X53339Y280424D01*
X53339Y283456D01*
X54499Y286257D01*
X56643Y288401D01*
X59444Y289561D01*
X62476Y289561D01*
X64308Y288802D01*
X64422Y288775D01*
X64535Y288747D01*
X64541Y288747D01*
X64548Y288746D01*
X64664Y288757D01*
X64780Y288766D01*
X64786Y288768D01*
X64792Y288769D01*
X64900Y288817D01*
X65007Y288862D01*
X65013Y288867D01*
X65017Y288869D01*
X65031Y288881D01*
X65138Y288967D01*
X77271Y301100D01*
X77298Y301138D01*
X77332Y301169D01*
X77370Y301237D01*
X77415Y301300D01*
X77428Y301344D01*
X77450Y301384D01*
X77464Y301461D01*
X77487Y301535D01*
X77486Y301581D01*
X77494Y301626D01*
X77483Y301703D01*
X77481Y301781D01*
X77465Y301824D01*
X77458Y301870D01*
X77423Y301939D01*
X77396Y302012D01*
X77368Y302048D01*
X77347Y302089D01*
X77291Y302143D01*
X77243Y302204D01*
X77204Y302229D01*
X77171Y302261D01*
X77051Y302327D01*
X77036Y302337D01*
X77031Y302338D01*
X77024Y302342D01*
X74423Y303419D01*
X72279Y305563D01*
X71119Y308364D01*
X71119Y311396D01*
X72279Y314197D01*
X74423Y316341D01*
X74459Y316355D01*
X74558Y316417D01*
X74659Y316477D01*
X74663Y316482D01*
X74668Y316485D01*
X74742Y316575D01*
X74819Y316664D01*
X74821Y316670D01*
X74825Y316675D01*
X74867Y316782D01*
X74911Y316892D01*
X74912Y316900D01*
X74913Y316904D01*
X74914Y316922D01*
X74929Y317059D01*
X74929Y348421D01*
X74927Y348433D01*
X74928Y348441D01*
X74919Y348482D01*
X74911Y348536D01*
X74893Y348652D01*
X74891Y348658D01*
X74890Y348664D01*
X74835Y348767D01*
X74782Y348871D01*
X74777Y348876D01*
X74774Y348881D01*
X74690Y348962D01*
X74606Y349044D01*
X74600Y349047D01*
X74596Y349051D01*
X74579Y349059D01*
X74459Y349125D01*
X74423Y349139D01*
X72279Y351283D01*
X71119Y354084D01*
X71119Y357116D01*
X72279Y359917D01*
X73012Y360650D01*
X73054Y360708D01*
X73104Y360760D01*
X73126Y360807D01*
X73156Y360849D01*
X73177Y360918D01*
X73207Y360983D01*
X73213Y361035D01*
X73228Y361085D01*
X73226Y361156D01*
X73234Y361227D01*
X73223Y361278D01*
X73222Y361330D01*
X73197Y361398D01*
X73182Y361468D01*
X73155Y361513D01*
X73138Y361561D01*
X73093Y361617D01*
X73056Y361679D01*
X73016Y361713D01*
X72984Y361753D01*
X72924Y361792D01*
X72869Y361839D01*
X72821Y361858D01*
X72777Y361886D01*
X72707Y361904D01*
X72641Y361931D01*
X72570Y361939D01*
X72538Y361947D01*
X72515Y361945D01*
X72474Y361949D01*
X62854Y361949D01*
X62764Y361935D01*
X62673Y361927D01*
X62643Y361915D01*
X62611Y361910D01*
X62530Y361867D01*
X62446Y361831D01*
X62414Y361805D01*
X62394Y361794D01*
X62371Y361771D01*
X62316Y361726D01*
X36087Y335498D01*
X36019Y335404D01*
X35949Y335309D01*
X35947Y335303D01*
X35943Y335298D01*
X35909Y335187D01*
X35873Y335075D01*
X35873Y335069D01*
X35871Y335063D01*
X35874Y334946D01*
X35875Y334829D01*
X35877Y334822D01*
X35877Y334817D01*
X35884Y334800D01*
X35922Y334668D01*
X36831Y332474D01*
X36831Y327926D01*
X35090Y323725D01*
X31875Y320510D01*
X27674Y318769D01*
X23126Y318769D01*
X18925Y320510D01*
X17810Y321624D01*
X17752Y321666D01*
X17700Y321715D01*
X17653Y321737D01*
X17611Y321768D01*
X17542Y321789D01*
X17477Y321819D01*
X17425Y321825D01*
X17375Y321840D01*
X17304Y321838D01*
X17233Y321846D01*
X17182Y321835D01*
X17130Y321834D01*
X17062Y321809D01*
X16992Y321794D01*
X16947Y321767D01*
X16899Y321749D01*
X16843Y321704D01*
X16781Y321668D01*
X16747Y321628D01*
X16707Y321596D01*
X16668Y321535D01*
X16621Y321481D01*
X16602Y321433D01*
X16574Y321389D01*
X16556Y321319D01*
X16529Y321253D01*
X16521Y321181D01*
X16513Y321150D01*
X16515Y321127D01*
X16511Y321086D01*
X16511Y314593D01*
X16513Y314581D01*
X16511Y314569D01*
X16532Y314460D01*
X16550Y314350D01*
X16556Y314339D01*
X16558Y314328D01*
X16613Y314231D01*
X16666Y314133D01*
X16674Y314124D01*
X16680Y314114D01*
X16763Y314040D01*
X16844Y313963D01*
X16855Y313958D01*
X16864Y313950D01*
X16966Y313907D01*
X17067Y313860D01*
X17079Y313858D01*
X17090Y313854D01*
X17201Y313845D01*
X17311Y313832D01*
X17323Y313835D01*
X17335Y313834D01*
X17443Y313861D01*
X17552Y313885D01*
X17562Y313891D01*
X17574Y313894D01*
X17719Y313977D01*
X19143Y315011D01*
X20817Y315864D01*
X22604Y316445D01*
X23877Y316646D01*
X23877Y305562D01*
X23880Y305542D01*
X23878Y305523D01*
X23900Y305421D01*
X23917Y305319D01*
X23926Y305302D01*
X23930Y305282D01*
X23983Y305193D01*
X24032Y305102D01*
X24046Y305088D01*
X24056Y305071D01*
X24135Y305004D01*
X24210Y304933D01*
X24228Y304924D01*
X24243Y304911D01*
X24339Y304873D01*
X24433Y304829D01*
X24453Y304827D01*
X24471Y304819D01*
X24638Y304801D01*
X25401Y304801D01*
X25401Y304799D01*
X24638Y304799D01*
X24618Y304796D01*
X24599Y304798D01*
X24497Y304776D01*
X24395Y304759D01*
X24378Y304750D01*
X24358Y304746D01*
X24269Y304693D01*
X24178Y304644D01*
X24164Y304630D01*
X24147Y304620D01*
X24080Y304541D01*
X24009Y304466D01*
X24000Y304448D01*
X23987Y304433D01*
X23948Y304337D01*
X23905Y304243D01*
X23903Y304223D01*
X23895Y304205D01*
X23877Y304038D01*
X23877Y292954D01*
X22604Y293155D01*
X20817Y293736D01*
X19143Y294589D01*
X17719Y295623D01*
X17709Y295629D01*
X17700Y295637D01*
X17599Y295684D01*
X17500Y295734D01*
X17488Y295735D01*
X17477Y295740D01*
X17366Y295753D01*
X17256Y295768D01*
X17244Y295766D01*
X17233Y295768D01*
X17124Y295744D01*
X17014Y295724D01*
X17004Y295718D01*
X16992Y295715D01*
X16897Y295658D01*
X16799Y295604D01*
X16791Y295595D01*
X16781Y295589D01*
X16709Y295504D01*
X16634Y295422D01*
X16629Y295411D01*
X16621Y295402D01*
X16579Y295299D01*
X16535Y295197D01*
X16534Y295185D01*
X16529Y295174D01*
X16511Y295007D01*
X16511Y293994D01*
X16525Y293904D01*
X16533Y293813D01*
X16545Y293783D01*
X16550Y293751D01*
X16593Y293671D01*
X16629Y293586D01*
X16655Y293554D01*
X16666Y293534D01*
X16689Y293512D01*
X16734Y293456D01*
X20102Y290087D01*
X20197Y290019D01*
X20291Y289949D01*
X20297Y289947D01*
X20302Y289943D01*
X20413Y289909D01*
X20525Y289873D01*
X20531Y289873D01*
X20537Y289871D01*
X20654Y289874D01*
X20771Y289875D01*
X20778Y289877D01*
X20783Y289877D01*
X20800Y289884D01*
X20932Y289922D01*
X23126Y290831D01*
X27674Y290831D01*
X31875Y289090D01*
X35090Y285875D01*
X36831Y281674D01*
X36831Y277126D01*
X35090Y272925D01*
X33976Y271810D01*
X33934Y271752D01*
X33885Y271700D01*
X33863Y271653D01*
X33832Y271611D01*
X33811Y271542D01*
X33781Y271477D01*
X33775Y271425D01*
X33760Y271375D01*
X33762Y271304D01*
X33754Y271233D01*
X33765Y271182D01*
X33766Y271130D01*
X33791Y271062D01*
X33806Y270992D01*
X33833Y270947D01*
X33851Y270899D01*
X33896Y270843D01*
X33932Y270781D01*
X33972Y270747D01*
X34004Y270707D01*
X34065Y270668D01*
X34119Y270621D01*
X34167Y270602D01*
X34211Y270574D01*
X34281Y270556D01*
X34347Y270529D01*
X34419Y270521D01*
X34450Y270513D01*
X34473Y270515D01*
X34514Y270511D01*
X34598Y270511D01*
X41996Y263114D01*
X42069Y263061D01*
X42139Y263001D01*
X42169Y262989D01*
X42195Y262970D01*
X42282Y262943D01*
X42367Y262909D01*
X42408Y262905D01*
X42430Y262898D01*
X42463Y262899D01*
X42534Y262891D01*
X54694Y262891D01*
X54765Y262902D01*
G37*
G36*
X115062Y384822D02*
X115062Y384822D01*
X115134Y384824D01*
X115182Y384842D01*
X115234Y384850D01*
X115297Y384884D01*
X115365Y384909D01*
X115405Y384941D01*
X115451Y384966D01*
X115501Y385017D01*
X115557Y385062D01*
X115585Y385106D01*
X115621Y385144D01*
X115651Y385209D01*
X115690Y385269D01*
X115702Y385320D01*
X115724Y385367D01*
X115732Y385438D01*
X115750Y385508D01*
X115746Y385560D01*
X115751Y385611D01*
X115736Y385682D01*
X115730Y385753D01*
X115710Y385801D01*
X115699Y385852D01*
X115662Y385913D01*
X115634Y385979D01*
X115589Y386035D01*
X115573Y386063D01*
X115555Y386078D01*
X115529Y386110D01*
X114969Y386670D01*
X113971Y388045D01*
X113200Y389558D01*
X112675Y391173D01*
X112516Y392177D01*
X138938Y392177D01*
X138958Y392180D01*
X138977Y392178D01*
X139079Y392200D01*
X139181Y392217D01*
X139198Y392226D01*
X139218Y392230D01*
X139307Y392283D01*
X139398Y392332D01*
X139412Y392346D01*
X139429Y392356D01*
X139496Y392435D01*
X139567Y392510D01*
X139576Y392528D01*
X139589Y392543D01*
X139627Y392639D01*
X139671Y392733D01*
X139673Y392753D01*
X139681Y392771D01*
X139699Y392938D01*
X139699Y394462D01*
X139696Y394482D01*
X139698Y394501D01*
X139676Y394603D01*
X139659Y394705D01*
X139650Y394722D01*
X139646Y394742D01*
X139593Y394831D01*
X139544Y394922D01*
X139530Y394936D01*
X139520Y394953D01*
X139441Y395020D01*
X139366Y395091D01*
X139348Y395100D01*
X139333Y395113D01*
X139237Y395152D01*
X139143Y395195D01*
X139123Y395197D01*
X139105Y395205D01*
X138938Y395223D01*
X112516Y395223D01*
X112675Y396227D01*
X113200Y397842D01*
X113971Y399355D01*
X114969Y400730D01*
X115529Y401290D01*
X115571Y401348D01*
X115621Y401400D01*
X115643Y401447D01*
X115673Y401489D01*
X115694Y401558D01*
X115724Y401623D01*
X115730Y401675D01*
X115745Y401725D01*
X115743Y401796D01*
X115751Y401867D01*
X115740Y401918D01*
X115739Y401970D01*
X115714Y402038D01*
X115699Y402108D01*
X115672Y402153D01*
X115654Y402201D01*
X115610Y402257D01*
X115573Y402319D01*
X115533Y402353D01*
X115501Y402393D01*
X115440Y402432D01*
X115386Y402479D01*
X115338Y402498D01*
X115294Y402526D01*
X115224Y402544D01*
X115158Y402571D01*
X115087Y402579D01*
X115055Y402587D01*
X115032Y402585D01*
X114991Y402589D01*
X73014Y402589D01*
X72924Y402575D01*
X72833Y402567D01*
X72803Y402555D01*
X72771Y402550D01*
X72690Y402507D01*
X72606Y402471D01*
X72574Y402445D01*
X72554Y402434D01*
X72531Y402411D01*
X72476Y402366D01*
X56219Y386110D01*
X56178Y386052D01*
X56128Y386000D01*
X56106Y385953D01*
X56076Y385911D01*
X56055Y385842D01*
X56025Y385777D01*
X56019Y385725D01*
X56004Y385675D01*
X56005Y385604D01*
X55998Y385533D01*
X56009Y385482D01*
X56010Y385430D01*
X56035Y385362D01*
X56050Y385292D01*
X56076Y385247D01*
X56094Y385199D01*
X56139Y385143D01*
X56176Y385081D01*
X56216Y385047D01*
X56248Y385007D01*
X56308Y384968D01*
X56363Y384921D01*
X56411Y384902D01*
X56455Y384874D01*
X56524Y384856D01*
X56591Y384829D01*
X56662Y384821D01*
X56694Y384813D01*
X56717Y384815D01*
X56758Y384811D01*
X114991Y384811D01*
X115062Y384822D01*
G37*
%LPC*%
G36*
X315455Y561217D02*
X315455Y561217D01*
X311675Y562783D01*
X308783Y565675D01*
X307217Y569455D01*
X307217Y573545D01*
X308783Y577325D01*
X311675Y580217D01*
X315455Y581783D01*
X336045Y581783D01*
X339825Y580217D01*
X342717Y577325D01*
X344283Y573545D01*
X344283Y569455D01*
X342717Y565675D01*
X339825Y562783D01*
X336045Y561217D01*
X315455Y561217D01*
G37*
%LPD*%
%LPC*%
G36*
X315455Y154817D02*
X315455Y154817D01*
X311675Y156383D01*
X308783Y159275D01*
X307217Y163055D01*
X307217Y167145D01*
X308783Y170925D01*
X311675Y173817D01*
X315455Y175383D01*
X336045Y175383D01*
X339825Y173817D01*
X342717Y170925D01*
X344283Y167145D01*
X344283Y163055D01*
X342717Y159275D01*
X339825Y156383D01*
X336045Y154817D01*
X315455Y154817D01*
G37*
%LPD*%
%LPC*%
G36*
X315455Y180217D02*
X315455Y180217D01*
X311675Y181783D01*
X308783Y184675D01*
X307217Y188455D01*
X307217Y192545D01*
X308783Y196325D01*
X311675Y199217D01*
X315455Y200783D01*
X336045Y200783D01*
X339825Y199217D01*
X342717Y196325D01*
X344283Y192545D01*
X344283Y188455D01*
X342717Y184675D01*
X339825Y181783D01*
X336045Y180217D01*
X315455Y180217D01*
G37*
%LPD*%
%LPC*%
G36*
X315455Y205617D02*
X315455Y205617D01*
X311675Y207183D01*
X308783Y210075D01*
X307217Y213855D01*
X307217Y217945D01*
X308783Y221725D01*
X311675Y224617D01*
X315455Y226183D01*
X336045Y226183D01*
X339825Y224617D01*
X342717Y221725D01*
X344283Y217945D01*
X344283Y213855D01*
X342717Y210075D01*
X339825Y207183D01*
X336045Y205617D01*
X315455Y205617D01*
G37*
%LPD*%
%LPC*%
G36*
X315455Y307217D02*
X315455Y307217D01*
X311675Y308783D01*
X308783Y311675D01*
X307217Y315455D01*
X307217Y319545D01*
X308783Y323325D01*
X311675Y326217D01*
X315455Y327783D01*
X336045Y327783D01*
X339825Y326217D01*
X342717Y323325D01*
X344283Y319545D01*
X344283Y315455D01*
X342717Y311675D01*
X339825Y308783D01*
X336045Y307217D01*
X315455Y307217D01*
G37*
%LPD*%
%LPC*%
G36*
X315455Y281817D02*
X315455Y281817D01*
X311675Y283383D01*
X308783Y286275D01*
X307217Y290055D01*
X307217Y294145D01*
X308783Y297925D01*
X311675Y300817D01*
X315455Y302383D01*
X336045Y302383D01*
X339825Y300817D01*
X342717Y297925D01*
X344283Y294145D01*
X344283Y290055D01*
X342717Y286275D01*
X339825Y283383D01*
X336045Y281817D01*
X315455Y281817D01*
G37*
%LPD*%
%LPC*%
G36*
X23126Y572769D02*
X23126Y572769D01*
X18925Y574510D01*
X15710Y577725D01*
X13969Y581926D01*
X13969Y586474D01*
X15710Y590675D01*
X18925Y593890D01*
X23126Y595631D01*
X27674Y595631D01*
X31875Y593890D01*
X35090Y590675D01*
X36831Y586474D01*
X36831Y581926D01*
X35090Y577725D01*
X31875Y574510D01*
X27674Y572769D01*
X23126Y572769D01*
G37*
%LPD*%
%LPC*%
G36*
X23126Y39369D02*
X23126Y39369D01*
X18925Y41110D01*
X15710Y44325D01*
X13969Y48526D01*
X13969Y53074D01*
X15710Y57275D01*
X18925Y60490D01*
X23126Y62231D01*
X27674Y62231D01*
X31875Y60490D01*
X35090Y57275D01*
X36831Y53074D01*
X36831Y48526D01*
X35090Y44325D01*
X31875Y41110D01*
X27674Y39369D01*
X23126Y39369D01*
G37*
%LPD*%
%LPC*%
G36*
X23126Y13969D02*
X23126Y13969D01*
X18925Y15710D01*
X15710Y18925D01*
X13969Y23126D01*
X13969Y27674D01*
X15710Y31875D01*
X18925Y35090D01*
X23126Y36831D01*
X27674Y36831D01*
X31875Y35090D01*
X35090Y31875D01*
X36831Y27674D01*
X36831Y23126D01*
X35090Y18925D01*
X31875Y15710D01*
X27674Y13969D01*
X23126Y13969D01*
G37*
%LPD*%
%LPC*%
G36*
X319023Y522223D02*
X319023Y522223D01*
X319023Y531491D01*
X334849Y531491D01*
X336527Y531225D01*
X338142Y530700D01*
X339655Y529929D01*
X341030Y528931D01*
X342231Y527730D01*
X343229Y526355D01*
X344000Y524842D01*
X344525Y523227D01*
X344684Y522223D01*
X319023Y522223D01*
G37*
%LPD*%
%LPC*%
G36*
X319023Y141223D02*
X319023Y141223D01*
X319023Y150491D01*
X334849Y150491D01*
X336527Y150225D01*
X338142Y149700D01*
X339655Y148929D01*
X341030Y147931D01*
X342231Y146730D01*
X343229Y145355D01*
X344000Y143842D01*
X344525Y142227D01*
X344684Y141223D01*
X319023Y141223D01*
G37*
%LPD*%
%LPC*%
G36*
X319023Y268223D02*
X319023Y268223D01*
X319023Y277491D01*
X334849Y277491D01*
X336527Y277225D01*
X338142Y276700D01*
X339655Y275929D01*
X341030Y274931D01*
X342231Y273730D01*
X343229Y272355D01*
X344000Y270842D01*
X344525Y269227D01*
X344684Y268223D01*
X319023Y268223D01*
G37*
%LPD*%
%LPC*%
G36*
X319023Y128909D02*
X319023Y128909D01*
X319023Y138177D01*
X344684Y138177D01*
X344525Y137173D01*
X344000Y135558D01*
X343229Y134045D01*
X342231Y132670D01*
X341030Y131469D01*
X339655Y130471D01*
X338142Y129700D01*
X336527Y129175D01*
X334849Y128909D01*
X319023Y128909D01*
G37*
%LPD*%
%LPC*%
G36*
X319023Y255909D02*
X319023Y255909D01*
X319023Y265177D01*
X344684Y265177D01*
X344525Y264173D01*
X344000Y262558D01*
X343229Y261045D01*
X342231Y259670D01*
X341030Y258469D01*
X339655Y257471D01*
X338142Y256700D01*
X336527Y256175D01*
X334849Y255909D01*
X319023Y255909D01*
G37*
%LPD*%
%LPC*%
G36*
X122351Y128909D02*
X122351Y128909D01*
X120673Y129175D01*
X119058Y129700D01*
X117545Y130471D01*
X116170Y131469D01*
X114969Y132670D01*
X113971Y134045D01*
X113200Y135558D01*
X112675Y137173D01*
X112516Y138177D01*
X138177Y138177D01*
X138177Y128909D01*
X122351Y128909D01*
G37*
%LPD*%
%LPC*%
G36*
X26923Y306323D02*
X26923Y306323D01*
X26923Y316646D01*
X28196Y316445D01*
X29983Y315864D01*
X31657Y315011D01*
X33178Y313906D01*
X34506Y312578D01*
X35611Y311057D01*
X36464Y309383D01*
X37045Y307596D01*
X37246Y306323D01*
X26923Y306323D01*
G37*
%LPD*%
%LPC*%
G36*
X128523Y39623D02*
X128523Y39623D01*
X128523Y49946D01*
X129796Y49745D01*
X131583Y49164D01*
X133257Y48311D01*
X134778Y47206D01*
X136106Y45878D01*
X137211Y44357D01*
X138064Y42683D01*
X138645Y40896D01*
X138846Y39623D01*
X128523Y39623D01*
G37*
%LPD*%
%LPC*%
G36*
X26923Y303277D02*
X26923Y303277D01*
X37246Y303277D01*
X37045Y302004D01*
X36464Y300217D01*
X35611Y298543D01*
X34506Y297022D01*
X33178Y295694D01*
X31657Y294589D01*
X29983Y293736D01*
X28196Y293155D01*
X26923Y292954D01*
X26923Y303277D01*
G37*
%LPD*%
%LPC*%
G36*
X115154Y39623D02*
X115154Y39623D01*
X115355Y40896D01*
X115936Y42683D01*
X116789Y44357D01*
X117894Y45878D01*
X119222Y47206D01*
X120743Y48311D01*
X122417Y49164D01*
X124204Y49745D01*
X125477Y49946D01*
X125477Y39623D01*
X115154Y39623D01*
G37*
%LPD*%
%LPC*%
G36*
X128523Y36577D02*
X128523Y36577D01*
X138846Y36577D01*
X138645Y35304D01*
X138064Y33517D01*
X137211Y31843D01*
X136106Y30322D01*
X134778Y28994D01*
X133257Y27889D01*
X131583Y27036D01*
X129796Y26455D01*
X128523Y26254D01*
X128523Y36577D01*
G37*
%LPD*%
%LPC*%
G36*
X124204Y26455D02*
X124204Y26455D01*
X122417Y27036D01*
X120743Y27889D01*
X119222Y28994D01*
X117894Y30322D01*
X116789Y31843D01*
X115936Y33517D01*
X115355Y35304D01*
X115154Y36577D01*
X125477Y36577D01*
X125477Y26254D01*
X124204Y26455D01*
G37*
%LPD*%
%LPC*%
G36*
X141223Y522223D02*
X141223Y522223D01*
X141223Y531384D01*
X142227Y531225D01*
X143842Y530700D01*
X145355Y529929D01*
X146730Y528931D01*
X147931Y527730D01*
X148929Y526355D01*
X149700Y524842D01*
X150225Y523227D01*
X150384Y522223D01*
X141223Y522223D01*
G37*
%LPD*%
%LPC*%
G36*
X306816Y522223D02*
X306816Y522223D01*
X306975Y523227D01*
X307500Y524842D01*
X308271Y526355D01*
X309269Y527730D01*
X310470Y528931D01*
X311845Y529929D01*
X313358Y530700D01*
X314973Y531225D01*
X315977Y531384D01*
X315977Y522223D01*
X306816Y522223D01*
G37*
%LPD*%
%LPC*%
G36*
X306816Y141223D02*
X306816Y141223D01*
X306975Y142227D01*
X307500Y143842D01*
X308271Y145355D01*
X309269Y146730D01*
X310470Y147931D01*
X311845Y148929D01*
X313358Y149700D01*
X314973Y150225D01*
X315977Y150384D01*
X315977Y141223D01*
X306816Y141223D01*
G37*
%LPD*%
%LPC*%
G36*
X230123Y567677D02*
X230123Y567677D01*
X239284Y567677D01*
X239125Y566673D01*
X238600Y565058D01*
X237829Y563545D01*
X236831Y562170D01*
X235630Y560969D01*
X234255Y559971D01*
X232742Y559200D01*
X231127Y558675D01*
X230123Y558516D01*
X230123Y567677D01*
G37*
%LPD*%
%LPC*%
G36*
X141223Y138177D02*
X141223Y138177D01*
X150384Y138177D01*
X150225Y137173D01*
X149700Y135558D01*
X148929Y134045D01*
X147931Y132670D01*
X146730Y131469D01*
X145355Y130471D01*
X143842Y129700D01*
X142227Y129175D01*
X141223Y129016D01*
X141223Y138177D01*
G37*
%LPD*%
%LPC*%
G36*
X306816Y395223D02*
X306816Y395223D01*
X306975Y396227D01*
X307500Y397842D01*
X308271Y399355D01*
X309269Y400730D01*
X310470Y401931D01*
X311845Y402929D01*
X313358Y403700D01*
X314973Y404225D01*
X315977Y404384D01*
X315977Y395223D01*
X306816Y395223D01*
G37*
%LPD*%
%LPC*%
G36*
X141223Y519177D02*
X141223Y519177D01*
X150384Y519177D01*
X150225Y518173D01*
X149700Y516558D01*
X148929Y515045D01*
X147931Y513670D01*
X146730Y512469D01*
X145355Y511471D01*
X143842Y510700D01*
X142227Y510175D01*
X141223Y510016D01*
X141223Y519177D01*
G37*
%LPD*%
%LPC*%
G36*
X306816Y268223D02*
X306816Y268223D01*
X306975Y269227D01*
X307500Y270842D01*
X308271Y272355D01*
X309269Y273730D01*
X310470Y274931D01*
X311845Y275929D01*
X313358Y276700D01*
X314973Y277225D01*
X315977Y277384D01*
X315977Y268223D01*
X306816Y268223D01*
G37*
%LPD*%
%LPC*%
G36*
X226073Y558675D02*
X226073Y558675D01*
X224458Y559200D01*
X222945Y559971D01*
X221570Y560969D01*
X220369Y562170D01*
X219371Y563545D01*
X218600Y565058D01*
X218075Y566673D01*
X217916Y567677D01*
X227077Y567677D01*
X227077Y558516D01*
X226073Y558675D01*
G37*
%LPD*%
%LPC*%
G36*
X314973Y383175D02*
X314973Y383175D01*
X313358Y383700D01*
X311845Y384471D01*
X310470Y385469D01*
X309269Y386670D01*
X308271Y388045D01*
X307500Y389558D01*
X306975Y391173D01*
X306816Y392177D01*
X315977Y392177D01*
X315977Y383016D01*
X314973Y383175D01*
G37*
%LPD*%
%LPC*%
G36*
X314973Y256175D02*
X314973Y256175D01*
X313358Y256700D01*
X311845Y257471D01*
X310470Y258469D01*
X309269Y259670D01*
X308271Y261045D01*
X307500Y262558D01*
X306975Y264173D01*
X306816Y265177D01*
X315977Y265177D01*
X315977Y256016D01*
X314973Y256175D01*
G37*
%LPD*%
%LPC*%
G36*
X317499Y139699D02*
X317499Y139699D01*
X317499Y139701D01*
X317501Y139701D01*
X317501Y139699D01*
X317499Y139699D01*
G37*
%LPD*%
%LPC*%
G36*
X317499Y266699D02*
X317499Y266699D01*
X317499Y266701D01*
X317501Y266701D01*
X317501Y266699D01*
X317499Y266699D01*
G37*
%LPD*%
%LPC*%
G36*
X126999Y38099D02*
X126999Y38099D01*
X126999Y38101D01*
X127001Y38101D01*
X127001Y38099D01*
X126999Y38099D01*
G37*
%LPD*%
D10*
X76200Y152400D03*
X76200Y76200D03*
D11*
X101600Y38100D03*
X127000Y38100D03*
X25400Y584200D03*
X25400Y558800D03*
X25400Y533400D03*
X25400Y508000D03*
X25400Y482600D03*
X25400Y457200D03*
X25400Y431800D03*
X25400Y406400D03*
X25400Y381000D03*
X25400Y355600D03*
X25400Y330200D03*
X25400Y304800D03*
X25400Y279400D03*
X25400Y254000D03*
X25400Y228600D03*
X25400Y203200D03*
X25400Y177800D03*
X25400Y152400D03*
X25400Y127000D03*
X25400Y101600D03*
X25400Y76200D03*
X25400Y50800D03*
X25400Y25400D03*
D12*
X317500Y88900D02*
X334000Y88900D01*
X334000Y114300D02*
X317500Y114300D01*
X317500Y139700D02*
X334000Y139700D01*
X334000Y165100D02*
X317500Y165100D01*
X317500Y190500D02*
X334000Y190500D01*
X334000Y215900D02*
X317500Y215900D01*
X317500Y241300D02*
X334000Y241300D01*
X334000Y266700D02*
X317500Y266700D01*
X317500Y292100D02*
X334000Y292100D01*
X334000Y317500D02*
X317500Y317500D01*
X317500Y342900D02*
X334000Y342900D01*
X334000Y368300D02*
X317500Y368300D01*
X317500Y393700D02*
X334000Y393700D01*
X334000Y419100D02*
X317500Y419100D01*
X317500Y444500D02*
X334000Y444500D01*
X334000Y469900D02*
X317500Y469900D01*
X317500Y495300D02*
X334000Y495300D01*
X334000Y520700D02*
X317500Y520700D01*
X317500Y546100D02*
X334000Y546100D01*
X334000Y571500D02*
X317500Y571500D01*
X139700Y571500D02*
X123200Y571500D01*
X123200Y546100D02*
X139700Y546100D01*
X139700Y520700D02*
X123200Y520700D01*
X123200Y495300D02*
X139700Y495300D01*
X139700Y469900D02*
X123200Y469900D01*
X123200Y444500D02*
X139700Y444500D01*
X139700Y419100D02*
X123200Y419100D01*
X123200Y393700D02*
X139700Y393700D01*
X139700Y368300D02*
X123200Y368300D01*
X123200Y342900D02*
X139700Y342900D01*
X139700Y317500D02*
X123200Y317500D01*
X123200Y292100D02*
X139700Y292100D01*
X139700Y266700D02*
X123200Y266700D01*
X123200Y241300D02*
X139700Y241300D01*
X139700Y215900D02*
X123200Y215900D01*
X123200Y190500D02*
X139700Y190500D01*
X139700Y165100D02*
X123200Y165100D01*
X123200Y139700D02*
X139700Y139700D01*
X139700Y114300D02*
X123200Y114300D01*
X123200Y88900D02*
X139700Y88900D01*
X254000Y569200D02*
X254000Y585700D01*
X228600Y585700D02*
X228600Y569200D01*
X203200Y569200D02*
X203200Y585700D01*
D13*
X139700Y114300D02*
X114300Y114300D01*
X76200Y152400D01*
X76200Y76200D02*
X76200Y63500D01*
X101600Y38100D01*
X139700Y520700D02*
X180340Y520700D01*
X228600Y568960D01*
X276860Y520700D02*
X317500Y520700D01*
X276860Y520700D02*
X228600Y568960D01*
X228600Y569200D01*
X317500Y139700D02*
X325120Y139700D01*
X347980Y162560D01*
X347980Y243840D01*
X325120Y266700D01*
X317500Y266700D01*
X149860Y393700D02*
X139700Y393700D01*
X149860Y393700D02*
X172720Y370840D01*
X294640Y370840D01*
X317500Y393700D01*
X317500Y266700D02*
X266700Y266700D01*
X139700Y139700D01*
X317500Y121920D02*
X317500Y114300D01*
X317500Y121920D02*
X248920Y190500D01*
X106680Y309880D02*
X106680Y314960D01*
X93980Y327660D01*
X93980Y337820D01*
X101600Y345440D01*
D14*
X248920Y190500D03*
X106680Y309880D03*
X101600Y345440D03*
D13*
X78740Y355600D02*
X78740Y309880D01*
X40640Y393700D02*
X17780Y393700D01*
X12700Y398780D01*
X12700Y520700D01*
X25400Y533400D01*
D14*
X78740Y309880D03*
X78740Y355600D03*
X40640Y393700D03*
D13*
X223520Y439420D02*
X223520Y469900D01*
X210820Y482600D01*
X149860Y482600D01*
D14*
X223520Y439420D03*
X149860Y482600D03*
D13*
X284480Y241300D02*
X317500Y241300D01*
X284480Y241300D02*
X144780Y101600D01*
X45720Y101600D01*
X33020Y88900D01*
X17780Y88900D01*
X7620Y99060D01*
X7620Y535940D01*
X17780Y546100D01*
X33020Y546100D01*
X38100Y541020D01*
X38100Y469900D01*
X25400Y457200D01*
X50800Y457200D02*
X58420Y457200D01*
X50800Y457200D02*
X25400Y431800D01*
D14*
X58420Y457200D03*
D13*
X175260Y381000D02*
X274320Y381000D01*
X175260Y381000D02*
X170180Y386080D01*
X78740Y436880D02*
X63500Y436880D01*
X33020Y406400D01*
X25400Y406400D01*
D14*
X274320Y381000D03*
X170180Y386080D03*
X78740Y436880D03*
D13*
X281940Y307340D02*
X317500Y342900D01*
X157480Y317500D02*
X144780Y330200D01*
X104140Y330200D01*
D14*
X281940Y307340D03*
X157480Y317500D03*
X104140Y330200D03*
D13*
X299720Y368300D02*
X317500Y368300D01*
X299720Y368300D02*
X297180Y365760D01*
X160020Y365760D01*
X144780Y381000D01*
X53340Y381000D01*
X27940Y355600D01*
X25400Y355600D01*
X254000Y444500D02*
X317500Y444500D01*
X254000Y444500D02*
X215900Y406400D01*
X71120Y406400D01*
X33020Y368300D01*
X17780Y368300D01*
X12700Y363220D01*
X12700Y292100D01*
X25400Y279400D01*
X317500Y469900D02*
X325120Y469900D01*
X347980Y447040D01*
X347980Y365760D01*
X337820Y355600D01*
X261620Y355600D01*
X220980Y314960D01*
X220980Y276860D01*
X198120Y254000D01*
X25400Y254000D01*
X38100Y190500D02*
X139700Y190500D01*
X38100Y190500D02*
X25400Y203200D01*
X292100Y495300D02*
X317500Y495300D01*
X292100Y495300D02*
X213360Y416560D01*
X213360Y355600D02*
X182880Y355600D01*
X170180Y342900D01*
X170180Y335280D01*
X182880Y322580D01*
X182880Y317500D01*
X144780Y279400D01*
X96520Y279400D01*
X76200Y259080D01*
X40640Y259080D01*
X33020Y266700D01*
X17780Y266700D01*
X12700Y261620D01*
X12700Y241300D01*
X25400Y228600D01*
D14*
X213360Y416560D03*
X213360Y355600D03*
D13*
X312420Y546100D02*
X317500Y546100D01*
X312420Y546100D02*
X259080Y599440D01*
X127000Y599440D01*
X93980Y566420D01*
X93980Y436880D01*
X73660Y416560D01*
X88900Y345440D02*
X88900Y307340D01*
X63500Y281940D01*
X60960Y281940D01*
D14*
X73660Y416560D03*
X88900Y345440D03*
X60960Y281940D03*
D13*
X213360Y441960D02*
X213360Y467360D01*
X213360Y441960D02*
X200660Y429260D01*
X172720Y320040D02*
X157480Y304800D01*
X114300Y304800D01*
X78740Y269240D01*
X60960Y269240D01*
D14*
X213360Y467360D03*
X200660Y429260D03*
X172720Y320040D03*
X60960Y269240D03*
D13*
X132080Y571500D02*
X139700Y571500D01*
X132080Y571500D02*
X109220Y548640D01*
X109220Y467360D01*
X119380Y457200D01*
X182880Y457200D01*
X264160Y345440D02*
X264160Y271780D01*
X144780Y152400D01*
X93980Y152400D01*
D14*
X182880Y457200D03*
X264160Y345440D03*
X93980Y152400D03*
D13*
X139700Y546100D02*
X139700Y553720D01*
X152400Y566420D01*
X152400Y576580D01*
X144780Y584200D01*
X119380Y584200D01*
X104140Y568960D01*
X104140Y447040D01*
X119380Y431800D01*
X185420Y431800D01*
X200660Y416560D01*
X236220Y317500D02*
X236220Y269240D01*
X144780Y177800D01*
X83820Y177800D01*
X38100Y132080D01*
X38100Y114300D01*
X25400Y101600D01*
D14*
X200660Y416560D03*
X236220Y317500D03*
D13*
X284480Y495300D02*
X139700Y495300D01*
X284480Y495300D02*
X297180Y508000D01*
X337820Y508000D01*
X353060Y492760D01*
X353060Y116840D01*
X337820Y101600D01*
X170180Y101600D01*
X144780Y76200D01*
X93980Y76200D01*
X81280Y88900D01*
X40640Y88900D01*
X27940Y76200D01*
X25400Y76200D01*
X43180Y429260D02*
X83820Y469900D01*
D14*
X83820Y469900D03*
X43180Y429260D03*
D13*
X180340Y340360D02*
X180340Y332740D01*
X210820Y302260D01*
X210820Y279400D01*
D14*
X180340Y340360D03*
X210820Y279400D03*
D13*
X236220Y419100D02*
X317500Y419100D01*
X236220Y419100D02*
X213360Y396240D01*
X160020Y396240D01*
X162560Y355600D02*
X91440Y355600D01*
X81280Y365760D01*
X60960Y365760D01*
X25400Y330200D01*
D14*
X160020Y396240D03*
X162560Y355600D03*
M02*
