M48
; DRILL file {KiCad 8.0.4} date 2024-08-02T20:21:59-0700
; FORMAT={-:-/ absolute / inch / decimal}
; #@! TF.CreationDate,2024-08-02T20:21:59-07:00
; #@! TF.GenerationSoftware,Kicad,Pcbnew,8.0.4
; #@! TF.FileFunction,Plated,1,2,PTH
FMAT,2
INCH
; #@! TA.AperFunction,Plated,PTH,ComponentDrill
T1C0.0394
; #@! TA.AperFunction,Plated,PTH,ComponentDrill
T2C0.0409
%
G90
G05
T1
X4.3996Y-2.2587
X4.3996Y-2.3587
X4.3996Y-2.4587
X4.3996Y-2.5587
X4.3996Y-2.6587
X4.3996Y-2.7587
X4.3996Y-2.8587
X4.3996Y-2.9587
X4.3996Y-3.0587
X4.3996Y-3.1587
X4.3996Y-3.2587
X4.3996Y-3.3587
X4.3996Y-3.4587
X4.3996Y-3.5587
X4.3996Y-3.6587
X4.3996Y-3.7587
X4.3996Y-3.8587
X4.3996Y-3.9587
X4.3996Y-4.0587
X4.3996Y-4.1587
X4.3996Y-4.2587
X4.3996Y-4.3587
X4.3996Y-4.4587
X4.6939Y-4.4094
X4.7939Y-4.4094
T2
X4.6822Y-2.362
X4.6822Y-2.462
X4.6822Y-2.562
X4.6822Y-2.662
X4.6822Y-2.762
X4.6822Y-2.862
X4.6822Y-2.962
X4.6822Y-3.062
X4.6822Y-3.162
X4.6822Y-3.262
X4.6822Y-3.362
X4.6822Y-3.462
X4.6822Y-3.562
X4.6822Y-3.662
X4.6822Y-3.762
X4.6822Y-3.862
X4.6822Y-3.962
X4.6822Y-4.062
X4.6822Y-4.162
X5.5822Y-2.362
X5.5822Y-2.462
X5.5822Y-2.562
X5.5822Y-2.662
X5.5822Y-2.762
X5.5822Y-2.862
X5.5822Y-2.962
X5.5822Y-3.062
X5.5822Y-3.162
X5.5822Y-3.262
X5.5822Y-3.362
X5.5822Y-3.462
X5.5822Y-3.562
X5.5822Y-3.662
X5.5822Y-3.762
X5.5822Y-3.862
X5.5822Y-3.962
X5.5822Y-4.062
X5.5822Y-4.162
M30
